<svg width="25" height="25" viewBox="0 0 25 25" fill="none" xmlns="http://www.w3.org/2000/svg"><g clip-path="url(#clip0_321_6)"><path d="M15.47 5.50001C15.47 5.50001 15.47 5.57001 15.47 5.61001C15.47 5.63001 15.45 5.65001 15.43 5.66001C15.37 5.68001 15.34 5.72001 15.34 5.78001C15.34 6.03001 15.34 6.29001 15.34 6.54001C15.34 6.58001 15.36 6.64001 15.39 6.65001C15.48 6.68001 15.47 6.75001 15.46 6.82001H14.85C14.85 6.82001 14.85 6.74001 14.85 6.71001C14.85 6.70001 14.87 6.67001 14.89 6.67001C14.96 6.66001 14.98 6.61001 14.98 6.55001C14.98 6.29001 14.98 6.02001 14.98 5.76001C14.98 5.70001 14.95 5.66001 14.89 5.65001C14.81 5.63001 14.85 5.57001 14.84 5.53001C14.84 5.48001 14.88 5.49001 14.91 5.49001C15.09 5.49001 15.26 5.49001 15.45 5.49001L15.47 5.50001Z" fill="#515151"></path><path d="M15.45 5.13C15.45 5.13 15.42 5.19 15.4 5.2C15.23 5.27 15.06 5.27 14.89 5.2C14.86 5.19 14.83 5.15 14.83 5.13C14.83 5.1 14.86 5.07 14.89 5.06C14.97 5.03 15.06 5.02 15.14 5C15.23 5.02 15.31 5.04 15.39 5.07C15.41 5.07 15.44 5.11 15.44 5.14L15.45 5.13Z" fill="#515151"></path><path d="M14.67 5.02002V5.25002H14.58C12.3 5.25002 10.03 5.25002 7.75 5.25002C7.71 5.25002 7.67 5.25002 7.64 5.26002C7.58 5.28002 7.57 5.32002 7.56 5.38002C7.56 5.48002 7.56 5.57002 7.56 5.67002C7.56 5.72002 7.57 5.76002 7.63 5.77002C7.69 5.78002 7.73 5.77002 7.76 5.72002C7.78 5.69002 7.78 5.65002 7.8 5.61002H7.94V6.16002C7.94 6.16002 7.87 6.16002 7.83 6.16002C7.81 6.16002 7.79 6.14002 7.78 6.13002C7.76 6.11002 7.74 6.07002 7.72 6.05002C7.69 6.03002 7.64 6.02002 7.61 6.04002C7.59 6.05002 7.57 6.10002 7.57 6.13002C7.57 6.25002 7.57 6.37002 7.57 6.50002C7.57 6.58002 7.63 6.64002 7.71 6.65002C7.80333 6.65669 7.84667 6.70669 7.84 6.80002C7.84 6.80002 7.84 6.82002 7.84 6.83002H7.01V6.66002C7.01 6.66002 7.08 6.66002 7.11 6.66002C7.19 6.66002 7.23 6.62002 7.23 6.54002C7.23 6.17002 7.23 5.80002 7.23 5.43002C7.23 5.30002 7.19 5.27002 7 5.25002C7.04 5.18002 7.07 5.11002 7.11 5.05002C7.12 5.03002 7.17 5.03002 7.2 5.03002C9.67 5.03002 12.13 5.03002 14.6 5.03002H14.69L14.67 5.02002Z" fill="#515151"></path><path d="M14.67 5.65001C14.67 5.83001 14.67 6.01001 14.67 6.20001H14.32C14.32 6.07001 14.32 5.95001 14.32 5.82001C14.32 5.79001 14.32 5.77001 14.32 5.74001C14.31 5.68001 14.27 5.66001 14.22 5.69001C14.17 5.72001 14.12 5.76001 14.08 5.80001C14.06 5.81001 14.06 5.84001 14.06 5.87001C14.06 6.10001 14.06 6.33001 14.06 6.56001C14.06 6.60001 14.08 6.64001 14.11 6.66001C14.19 6.72001 14.19 6.72001 14.18 6.83001H13.59V6.69001C13.7 6.65001 13.71 6.64001 13.71 6.51001C13.71 6.27001 13.71 6.04001 13.71 5.80001C13.71 5.73001 13.69 5.68001 13.62 5.66001C13.6 5.66001 13.59 5.63001 13.59 5.61001C13.59 5.58001 13.59 5.55001 13.59 5.50001H13.85C13.85 5.50001 13.94 5.50001 13.98 5.50001C14 5.50001 14.03 5.52001 14.04 5.53001C14.07 5.57001 14.1 5.58001 14.15 5.55001C14.26 5.49001 14.37 5.44001 14.5 5.45001C14.61 5.45001 14.68 5.52001 14.69 5.63001L14.67 5.65001Z" fill="#515151"></path><path d="M13.41 6.84H13.14C12.96 6.84 12.77 6.84 12.59 6.84C12.52 6.84 12.44 6.82 12.37 6.78C12.22 6.71 12.2 6.56 12.2 6.41C12.2 6.28 12.22 6.15 12.35 6.09C12.41 6.06 12.48 6.05 12.55 6.04C12.64 6.03 12.74 6.03 12.83 6.02C12.92 6.02 12.92 6.01 12.92 5.92C12.92 5.87 12.92 5.81 12.92 5.76C12.92 5.68 12.88 5.61999 12.81 5.60999C12.73 5.58999 12.64 5.63 12.61 5.7C12.59 5.75 12.58 5.81 12.56 5.87H12.25C12.21 5.71 12.32 5.52 12.5 5.47C12.68 5.42 12.86 5.42 13.04 5.47C13.2 5.51 13.28 5.61 13.28 5.77C13.28 6.02 13.28 6.27 13.28 6.51C13.28 6.59 13.3 6.65 13.38 6.69C13.41 6.7 13.41 6.77 13.43 6.83L13.41 6.84ZM12.91 6.44V6.33C12.91 6.16 12.89 6.14 12.72 6.16C12.63 6.16 12.57 6.21 12.56 6.3C12.56 6.38 12.55 6.47 12.56 6.55C12.57 6.65 12.62 6.68 12.72 6.68C12.77 6.68 12.81 6.68 12.86 6.68C12.88 6.68 12.91 6.65 12.91 6.63C12.91 6.57 12.91 6.5 12.91 6.44Z" fill="#515151"></path><path d="M11.9999 5.64002C11.9999 5.82002 11.9999 6.01002 11.9999 6.20002H11.6499C11.6499 6.14002 11.6499 6.08002 11.6499 6.01002C11.6499 5.92002 11.6499 5.83002 11.6399 5.74002C11.6399 5.68002 11.5899 5.66002 11.5399 5.69002C11.4999 5.71002 11.4599 5.74002 11.4299 5.78002C11.4099 5.81002 11.3899 5.85002 11.3899 5.88002C11.3899 6.09002 11.3899 6.30002 11.3899 6.51002C11.3899 6.61002 11.4099 6.67002 11.5099 6.69002V6.83002H10.8999C10.8999 6.83002 10.8999 6.76002 10.8999 6.73002C10.8999 6.71002 10.9199 6.69002 10.9399 6.68002C11.0099 6.68002 11.0299 6.62002 11.0299 6.56002C11.0299 6.29002 11.0299 6.03002 11.0299 5.76002C11.0299 5.72002 10.9799 5.68002 10.9399 5.66002C10.8699 5.63002 10.8999 5.57002 10.8999 5.53002C10.8999 5.53002 10.9399 5.50002 10.9599 5.50002C11.0699 5.50002 11.1699 5.50002 11.2799 5.50002C11.3099 5.50002 11.3399 5.52002 11.3599 5.54002C11.3899 5.57002 11.4199 5.59002 11.4699 5.56002C11.5699 5.50002 11.6799 5.45002 11.8099 5.46002C11.9299 5.46002 11.9999 5.52002 12.0099 5.64002H11.9999Z" fill="#515151"></path><path d="M10.4699 5.46002C10.5799 5.46002 10.6799 5.53002 10.6699 5.66002C10.6699 5.84002 10.6699 6.01002 10.6699 6.20002H10.3199C10.3199 6.07002 10.3199 5.95002 10.3199 5.83002C10.3199 5.78002 10.3399 5.71002 10.2799 5.69002C10.2399 5.69002 10.1899 5.72002 10.1399 5.75002C10.0699 5.79002 10.0499 5.86002 10.0499 5.94002C10.0499 6.14002 10.0499 6.34002 10.0499 6.55002C10.0499 6.61002 10.0699 6.66002 10.1199 6.67002C10.2199 6.70002 10.1899 6.77002 10.1799 6.83002H9.57995V6.69002C9.69995 6.65002 9.69995 6.65002 9.69995 6.52002C9.69995 6.27002 9.69995 6.02002 9.69995 5.78002C9.69995 5.73002 9.67995 5.69002 9.63995 5.68002C9.56995 5.66002 9.56995 5.62002 9.56995 5.57002C9.56995 5.55002 9.56995 5.54002 9.56995 5.51002C9.67995 5.51002 9.77995 5.51002 9.87995 5.51002C9.93995 5.51002 10.0099 5.51002 10.0499 5.57002C10.0499 5.58002 10.0999 5.58002 10.1199 5.57002C10.2299 5.52002 10.3399 5.47002 10.4599 5.47002L10.4699 5.46002Z" fill="#515151"></path><path d="M9.31004 5.74999C9.31004 5.89999 9.31004 6.03999 9.31004 6.19999H8.70004C8.59004 6.19999 8.59004 6.19999 8.59004 6.31999C8.59004 6.38999 8.59004 6.45999 8.59004 6.52999C8.59004 6.67999 8.76004 6.77999 8.89004 6.70999C8.94004 6.67999 8.96004 6.63999 8.96004 6.58999C8.96004 6.53999 8.96004 6.48999 8.96004 6.42999H9.30004C9.34004 6.58999 9.28004 6.77999 9.09004 6.83999C8.94004 6.88999 8.79004 6.88999 8.63004 6.86999C8.59004 6.86999 8.54004 6.85999 8.50004 6.84999C8.36004 6.81999 8.25004 6.71999 8.24004 6.57999C8.23004 6.30999 8.23004 6.03999 8.24004 5.77999C8.24004 5.62999 8.35004 5.53999 8.51004 5.50999C8.71004 5.46999 8.91004 5.46999 9.10004 5.52999C9.22004 5.55999 9.30004 5.64999 9.30004 5.77999L9.31004 5.74999ZM8.89004 6.03999C8.95004 6.03999 8.97004 6.01999 8.97004 5.95999C8.97004 5.89999 8.97004 5.83999 8.97004 5.77999C8.97004 5.67999 8.92004 5.61999 8.83004 5.60999C8.70004 5.58999 8.62004 5.62999 8.60004 5.72999C8.59004 5.79999 8.59004 5.87999 8.59004 5.95999C8.59004 6.01999 8.62004 6.03999 8.67004 6.03999C8.71004 6.03999 8.74004 6.03999 8.78004 6.03999C8.82004 6.03999 8.85004 6.03999 8.89004 6.03999Z" fill="#515151"></path><path d="M16.3861 0.315217H16.3877C16.5876 0.315217 16.75 0.477275 16.75 0.673913V21.3913C16.75 21.5879 16.5876 21.75 16.3877 21.75H5.61235C5.41236 21.75 5.25 21.5879 5.25 21.3913V1.08696V0.608696C5.25 0.412274 5.412 0.250357 5.61169 0.250001C5.61191 0.25 5.61213 0.25 5.61235 0.25L16.3861 0.315217Z" stroke="#515151" stroke-width="0.5" stroke-miterlimit="10"></path><path d="M17 2C13 2 9 2 5 2" stroke="#515151" stroke-width="0.5" stroke-miterlimit="10"></path><path d="M17 4C13 4 9 4 5 4" stroke="#515151" stroke-width="0.5" stroke-miterlimit="10"></path><path d="M5.33997 11.65C5.51997 12.12 5.69997 12.61 5.86997 13.12C6.18997 14.07 6.44997 14.99 6.66997 15.86C7.32997 13.99 7.97997 12.11 8.63997 10.24C8.48997 9.48999 8.19997 8.50999 7.56997 7.51999C7.31997 7.12999 7.05997 6.71999 6.58997 6.28999C6.05997 5.79999 5.68997 5.66999 5.05997 5.09999C4.68997 4.75999 4.42997 4.44999 4.26997 4.23999C3.78997 3.88999 3.31997 3.52999 2.83997 3.17999C3.03997 4.60999 3.24997 6.03999 3.44997 7.47999C3.61997 7.70999 3.78997 7.94999 3.95997 8.20999C4.72997 9.43999 5.11997 10.65 5.32997 11.66L5.33997 11.65Z" fill="white"></path><path d="M15.92 10.36C16.39 10.51 16.93 10.65 17.53 10.76C18.15 10.88 18.72 10.94 19.23 10.96V13.79C18.76 13.95 18.21 14.18 17.62 14.52C16.95 14.9 16.41 15.31 16 15.67C15.98 13.9 15.95 12.13 15.93 10.36H15.92Z" fill="white"></path><path d="M8.51002 23.54C8.76002 22.95 9.20001 22.03 9.91001 21.02C10.94 19.55 11.75 19.02 11.6 18.47C11.49 18.1 10.92 17.67 8.60002 17.62C7.86002 17.39 7.12001 17.16 6.39001 16.93C6.53001 17.6 6.64001 18.45 6.63001 19.42C6.63001 20.2 6.53001 20.89 6.43001 21.47C6.72001 21.73 7.01001 22.01 7.31001 22.3C7.74001 22.72 8.14002 23.13 8.52002 23.54H8.51002Z" fill="white"></path><path d="M3.44002 4.43001C3.44002 4.43001 3.50002 4.43001 3.52002 4.45001C3.52002 4.45001 3.65002 4.59001 3.84002 4.79001C3.90002 4.85001 4.01002 4.96001 4.15002 5.10001C4.18002 5.13001 4.37002 5.32002 4.57002 5.51002C4.89002 5.81002 5.17002 6.06001 5.41002 6.27001C6.24002 7.00001 6.64002 7.29001 6.84002 7.43001C7.73002 8.09001 8.98002 8.91001 10.58 9.69001C12.14 10.41 13.48 10.82 14.45 11.06C17.73 11.88 21.82 12.08 22.04 12.07C22.05 12.07 22.14 12.07 22.14 12.07C22.14 12.09 21.95 12.13 21.94 12.13C16.9 13.27 13.35 16.06 13.35 16.06C11.76 17.34 10.53 18.94 9.38002 20.61C8.49002 21.92 7.63002 23.25 7.02002 24.72C7.01002 24.75 6.95002 24.84 6.90002 24.83C6.87002 24.83 6.85002 24.78 6.84002 24.75C6.84002 24.74 6.84002 24.72 6.84002 24.69C6.84002 24.66 6.84002 24.64 6.84002 24.61C6.84002 24.58 6.84002 24.55 6.84002 24.53C6.84002 24.49 6.87002 24.3 6.92002 23.8C6.95002 23.51 6.97002 23.34 6.97002 23.32C7.53002 18.37 6.93002 14.79 6.93002 14.79C6.66002 12.97 6.05002 11.24 5.40002 9.52002C4.77002 7.87002 4.11002 6.23001 3.46002 4.59001C3.43002 4.51001 3.40002 4.42001 3.40002 4.42001C3.40002 4.40001 3.41002 4.40001 3.42002 4.39001L3.44002 4.43001ZM9.28002 11.77C9.14002 12.25 8.96002 12.75 8.84002 13.25C8.64002 14.13 8.76002 14.98 9.22002 15.77C9.46002 16.18 9.52002 16.19 9.96002 16.02C11.45 15.45 11.91 14.14 12.32 12.82C11.43 12.1 10.44 11.75 9.28002 11.76V11.77Z" stroke="#515151" stroke-width="0.45" stroke-miterlimit="10"></path><path d="M11.15 13.58C11.15 13.58 11.15 13.58 11.15 13.59C11.15 13.61 11.14 13.62 11.12 13.63C11.12 13.63 11.11 13.64 11.1 13.65C11.1 13.66 11.09 13.67 11.08 13.68C11.08 13.68 11.08 13.68 11.08 13.7C11.08 13.69 11.07 13.68 11.07 13.67C11.07 13.63 11.07 13.59 11.11 13.55C11.11 13.55 11.12 13.53 11.13 13.53C11.15 13.51 11.15 13.48 11.15 13.46C11.15 13.47 11.13 13.49 11.12 13.5C11.11 13.51 11.09 13.53 11.08 13.54C11.07 13.56 11.05 13.57 11.04 13.59C11.04 13.59 11.04 13.6 11.03 13.61C11.03 13.57 11.03 13.54 11.04 13.51C11.04 13.51 11.04 13.5 11.05 13.49C11.06 13.45 11.09 13.43 11.11 13.4C11.11 13.4 11.11 13.4 11.11 13.39C11.11 13.39 11.1 13.39 11.09 13.39C11.06 13.41 11.03 13.43 11.01 13.45C10.97 13.49 10.96 13.54 10.95 13.6C10.95 13.63 10.95 13.66 10.96 13.7C10.97 13.73 10.98 13.77 10.99 13.8C10.99 13.81 10.99 13.82 10.99 13.84C10.99 13.88 10.99 13.92 10.99 13.96C10.99 13.99 10.99 14.02 10.97 14.04C10.94 14.08 10.91 14.12 10.86 14.14C10.84 14.14 10.83 14.14 10.81 14.14C10.81 14.12 10.8 14.11 10.79 14.09C10.76 14.03 10.72 13.98 10.67 13.93C10.63 13.89 10.59 13.86 10.54 13.84C10.52 13.83 10.5 13.81 10.48 13.78C10.45 13.73 10.42 13.68 10.4 13.63C10.39 13.61 10.4 13.58 10.39 13.55C10.39 13.55 10.4 13.55 10.41 13.55C10.42 13.55 10.44 13.56 10.45 13.57C10.47 13.57 10.49 13.58 10.51 13.6C10.52 13.6 10.54 13.62 10.55 13.63C10.56 13.63 10.58 13.63 10.59 13.63C10.56 13.63 10.55 13.6 10.54 13.58C10.54 13.57 10.52 13.56 10.5 13.55C10.5 13.55 10.5 13.55 10.49 13.55C10.5 13.55 10.51 13.55 10.52 13.55C10.53 13.55 10.54 13.57 10.55 13.57C10.55 13.57 10.57 13.58 10.59 13.58C10.59 13.57 10.59 13.56 10.58 13.55C10.56 13.53 10.53 13.51 10.5 13.5C10.5 13.5 10.49 13.5 10.48 13.5C10.51 13.51 10.54 13.52 10.57 13.53C10.59 13.53 10.61 13.54 10.64 13.53C10.66 13.53 10.67 13.51 10.68 13.5C10.68 13.5 10.68 13.5 10.68 13.49C10.68 13.49 10.66 13.49 10.65 13.5C10.64 13.5 10.63 13.5 10.61 13.5C10.61 13.5 10.59 13.5 10.59 13.49C10.58 13.48 10.57 13.47 10.56 13.46C10.55 13.45 10.53 13.44 10.51 13.44C10.51 13.44 10.49 13.44 10.49 13.42C10.51 13.42 10.52 13.42 10.54 13.42C10.56 13.42 10.58 13.42 10.6 13.42C10.6 13.42 10.62 13.42 10.64 13.42C10.62 13.41 10.61 13.39 10.59 13.38C10.57 13.37 10.55 13.38 10.53 13.36C10.53 13.36 10.54 13.36 10.55 13.36C10.56 13.36 10.58 13.36 10.59 13.38C10.61 13.4 10.64 13.4 10.67 13.38C10.67 13.37 10.66 13.36 10.65 13.36C10.65 13.36 10.64 13.36 10.63 13.35C10.61 13.33 10.59 13.32 10.56 13.32C10.56 13.32 10.54 13.32 10.54 13.3C10.56 13.3 10.58 13.32 10.6 13.32C10.6 13.31 10.59 13.3 10.58 13.29H10.6C10.62 13.29 10.63 13.3 10.64 13.31C10.64 13.31 10.66 13.33 10.68 13.33C10.68 13.33 10.68 13.32 10.68 13.31C10.68 13.3 10.66 13.28 10.65 13.27C10.64 13.26 10.63 13.24 10.61 13.23C10.59 13.22 10.57 13.2 10.55 13.18C10.55 13.18 10.55 13.18 10.55 13.17C10.56 13.17 10.57 13.17 10.59 13.18C10.61 13.18 10.62 13.19 10.63 13.21C10.63 13.21 10.64 13.22 10.65 13.23C10.66 13.23 10.67 13.23 10.68 13.23C10.7 13.23 10.71 13.23 10.73 13.23C10.73 13.22 10.71 13.21 10.7 13.21C10.68 13.21 10.67 13.19 10.66 13.17C10.66 13.16 10.64 13.14 10.63 13.13C10.65 13.13 10.67 13.15 10.68 13.17C10.69 13.18 10.71 13.19 10.73 13.18C10.73 13.18 10.71 13.17 10.7 13.16C10.7 13.16 10.7 13.15 10.69 13.14C10.69 13.13 10.68 13.12 10.67 13.11C10.67 13.11 10.65 13.09 10.65 13.08C10.65 13.07 10.65 13.06 10.63 13.05C10.62 13.04 10.61 13.03 10.6 13.02C10.65 13.05 10.7 13.05 10.76 13.06C10.76 13.05 10.76 13.04 10.74 13.03C10.72 13.02 10.69 13.01 10.67 13C10.66 13 10.65 12.99 10.65 12.98C10.65 12.98 10.66 12.98 10.67 12.98C10.68 12.98 10.7 12.98 10.71 12.98C10.73 12.98 10.75 12.98 10.77 13.01C10.77 13.01 10.77 13.01 10.78 13.02C10.78 12.99 10.78 12.98 10.75 12.97C10.72 12.96 10.7 12.94 10.67 12.94C10.67 12.94 10.66 12.94 10.65 12.94C10.63 12.92 10.62 12.91 10.6 12.89C10.6 12.89 10.61 12.89 10.62 12.89C10.64 12.9 10.67 12.91 10.69 12.91C10.7 12.91 10.71 12.91 10.72 12.93C10.73 12.95 10.75 12.95 10.78 12.95C10.77 12.93 10.75 12.92 10.74 12.91C10.73 12.89 10.71 12.88 10.68 12.87C10.67 12.87 10.66 12.87 10.66 12.85C10.64 12.83 10.62 12.81 10.59 12.81C10.6 12.8 10.62 12.79 10.63 12.79H10.65C10.65 12.79 10.66 12.79 10.65 12.78C10.65 12.78 10.62 12.76 10.61 12.77C10.58 12.77 10.54 12.77 10.52 12.75C10.5 12.73 10.47 12.72 10.44 12.72C10.44 12.72 10.43 12.72 10.42 12.72C10.41 12.72 10.4 12.72 10.39 12.7C10.38 12.68 10.36 12.66 10.33 12.64C10.33 12.64 10.33 12.66 10.32 12.66C10.32 12.67 10.31 12.68 10.32 12.7V12.71C10.31 12.71 10.3 12.71 10.29 12.71H10.31C10.31 12.68 10.28 12.67 10.27 12.65C10.27 12.67 10.26 12.68 10.25 12.7C10.26 12.7 10.27 12.72 10.29 12.72C10.26 12.71 10.23 12.7 10.2 12.7C10.19 12.7 10.18 12.7 10.18 12.72C10.18 12.72 10.19 12.72 10.2 12.72C10.18 12.72 10.16 12.72 10.15 12.73C10.15 12.73 10.16 12.73 10.17 12.73C10.19 12.73 10.21 12.73 10.23 12.73C10.24 12.73 10.25 12.73 10.25 12.75C10.25 12.75 10.24 12.75 10.23 12.75C10.2 12.77 10.17 12.78 10.14 12.8C10.12 12.81 10.1 12.82 10.07 12.83C10.07 12.83 10.07 12.83 10.06 12.83C10.04 12.83 10.03 12.84 10.02 12.85C10 12.88 10 12.91 10 12.94C10 12.95 10.01 12.96 10.03 12.96C10.03 12.96 10.03 12.96 10.04 12.96C10.06 12.96 10.07 12.95 10.09 12.94C10.09 12.94 10.09 12.94 10.1 12.94C10.1 12.94 10.09 12.94 10.08 12.94C10.07 12.94 10.06 12.94 10.04 12.95C10.04 12.95 10.04 12.95 10.04 12.96C10.04 12.96 10.04 12.96 10.05 12.97C10.06 12.97 10.07 12.97 10.09 12.97C10.11 12.97 10.12 12.97 10.14 12.96C10.16 12.96 10.18 12.96 10.2 12.96C10.21 12.96 10.23 12.96 10.24 12.97C10.25 12.97 10.27 12.97 10.28 12.97C10.3 12.97 10.3 12.97 10.3 12.99C10.3 13.02 10.3 13.05 10.28 13.08C10.27 13.1 10.26 13.12 10.24 13.14C10.21 13.18 10.18 13.21 10.15 13.24C10.15 13.25 10.13 13.26 10.13 13.27C10.13 13.27 10.12 13.29 10.11 13.29C10.1 13.3 10.08 13.31 10.07 13.32C10.05 13.34 10.03 13.35 10 13.37C9.98005 13.38 9.97005 13.38 9.95005 13.37C9.91005 13.35 9.88005 13.33 9.85005 13.3C9.83005 13.28 9.81005 13.27 9.79005 13.26C9.76005 13.25 9.72005 13.26 9.71005 13.29C9.69005 13.31 9.68005 13.34 9.68005 13.37C9.66005 13.45 9.63005 13.53 9.60005 13.61C9.60005 13.62 9.59005 13.64 9.59005 13.65C9.59005 13.7 9.59005 13.75 9.59005 13.79C9.59005 13.79 9.59005 13.8 9.59005 13.81C9.61005 13.8 9.63005 13.78 9.64005 13.75C9.65005 13.73 9.64005 13.71 9.64005 13.68C9.63005 13.64 9.63005 13.61 9.64005 13.57C9.64005 13.57 9.64005 13.55 9.64005 13.54C9.65005 13.52 9.67005 13.5 9.69005 13.49C9.69005 13.49 9.69005 13.49 9.70005 13.49C9.71005 13.48 9.72005 13.46 9.72005 13.44C9.72005 13.43 9.72005 13.41 9.72005 13.4C9.73005 13.4 9.73005 13.4 9.74005 13.41C9.77005 13.44 9.80005 13.48 9.83005 13.51C9.83005 13.51 9.83005 13.51 9.84005 13.52C9.84005 13.52 9.84005 13.52 9.83005 13.52C9.81005 13.52 9.78005 13.51 9.76005 13.51C9.74005 13.51 9.72005 13.51 9.70005 13.51C9.67005 13.51 9.64005 13.53 9.64005 13.56C9.64005 13.57 9.64005 13.59 9.64005 13.6C9.64005 13.64 9.64005 13.68 9.64005 13.72C9.65005 13.77 9.66005 13.82 9.67005 13.88C9.67005 13.9 9.67005 13.92 9.69005 13.93C9.70005 13.94 9.71005 13.95 9.72005 13.97C9.73005 14.01 9.76005 14.04 9.79005 14.06C9.80005 14.07 9.81005 14.06 9.82005 14.06C9.82005 14.06 9.82005 14.06 9.82005 14.05C9.82005 14.03 9.82005 14.01 9.82005 13.99C9.82005 13.95 9.80005 13.92 9.76005 13.91C9.76005 13.91 9.76005 13.91 9.76005 13.9C9.76005 13.89 9.76005 13.88 9.76005 13.87C9.74005 13.85 9.74005 13.82 9.73005 13.8C9.73005 13.78 9.73005 13.76 9.71005 13.73C9.71005 13.71 9.70005 13.69 9.71005 13.67C9.71005 13.66 9.71005 13.65 9.73005 13.65H9.74005C9.77005 13.67 9.80005 13.69 9.83005 13.71C9.85005 13.72 9.87005 13.74 9.89005 13.75C9.93005 13.78 9.92005 13.78 9.98005 13.78H10C10 13.8 10 13.82 10.01 13.83C10.02 13.84 10.03 13.86 10.04 13.87C10.1 13.93 10.17 13.99 10.24 14.04C10.28 14.07 10.32 14.11 10.35 14.14C10.36 14.15 10.37 14.16 10.37 14.18C10.37 14.2 10.38 14.22 10.4 14.23C10.42 14.23 10.43 14.23 10.44 14.23C10.46 14.2 10.48 14.17 10.48 14.13C10.48 14.12 10.48 14.1 10.49 14.09C10.49 14.09 10.49 14.08 10.51 14.09C10.51 14.09 10.5 14.11 10.5 14.12C10.5 14.14 10.5 14.15 10.49 14.17C10.49 14.19 10.49 14.2 10.47 14.21C10.45 14.23 10.44 14.26 10.43 14.29C10.41 14.35 10.41 14.41 10.43 14.47C10.45 14.51 10.47 14.55 10.49 14.59C10.49 14.6 10.5 14.61 10.51 14.63C10.51 14.64 10.51 14.65 10.51 14.67C10.51 14.67 10.51 14.67 10.51 14.68C10.48 14.72 10.45 14.75 10.42 14.79C10.42 14.79 10.42 14.79 10.41 14.79C10.39 14.79 10.37 14.81 10.36 14.82C10.35 14.84 10.33 14.85 10.32 14.87C10.32 14.87 10.31 14.88 10.3 14.89C10.28 14.92 10.26 14.94 10.26 14.98C10.26 15 10.26 15 10.29 15.01C10.31 15.01 10.33 15.01 10.34 15.01C10.36 15.01 10.37 14.99 10.39 14.98C10.4 14.98 10.41 14.96 10.41 14.94C10.41 14.92 10.41 14.91 10.43 14.9C10.45 14.88 10.47 14.87 10.47 14.84C10.47 14.84 10.47 14.83 10.48 14.82C10.49 14.82 10.5 14.81 10.51 14.8C10.51 14.78 10.53 14.77 10.54 14.76C10.57 14.74 10.6 14.72 10.62 14.7C10.64 14.68 10.65 14.64 10.63 14.62C10.62 14.6 10.61 14.59 10.6 14.57C10.59 14.53 10.6 14.5 10.62 14.48C10.64 14.46 10.66 14.45 10.68 14.43C10.73 14.39 10.77 14.35 10.81 14.29C10.82 14.27 10.83 14.24 10.83 14.21C10.83 14.21 10.83 14.2 10.83 14.19C10.83 14.19 10.83 14.19 10.85 14.19C10.85 14.19 10.85 14.2 10.85 14.21C10.85 14.25 10.85 14.3 10.85 14.34C10.85 14.35 10.85 14.36 10.87 14.36C10.87 14.32 10.87 14.28 10.9 14.24C10.9 14.26 10.9 14.28 10.9 14.3V14.32C10.88 14.34 10.87 14.37 10.86 14.4C10.86 14.43 10.86 14.45 10.86 14.47C10.86 14.47 10.86 14.46 10.86 14.45C10.86 14.41 10.88 14.39 10.9 14.36C10.92 14.34 10.93 14.32 10.94 14.3C10.95 14.26 10.95 14.22 10.94 14.18C10.94 14.18 10.94 14.17 10.94 14.16C10.94 14.16 10.94 14.16 10.94 14.15C10.94 14.15 10.95 14.16 10.96 14.17C10.96 14.17 10.96 14.18 10.96 14.19C10.96 14.23 10.97 14.26 10.99 14.3V14.28C10.99 14.25 10.99 14.23 10.99 14.2C10.99 14.17 10.99 14.14 10.97 14.11C10.98 14.11 11 14.1 11.01 14.09C11.06 14.06 11.1 14.02 11.11 13.96C11.12 13.9 11.11 13.84 11.11 13.78C11.11 13.76 11.11 13.75 11.11 13.73C11.11 13.71 11.11 13.7 11.11 13.68C11.11 13.65 11.11 13.63 11.13 13.61C11.13 13.6 11.14 13.59 11.15 13.58C11.15 13.57 11.16 13.55 11.15 13.54C11.15 13.54 11.15 13.53 11.14 13.53L11.15 13.58ZM10.55 13.11C10.55 13.11 10.57 13.13 10.58 13.13C10.58 13.13 10.56 13.11 10.55 13.11ZM10.02 12.91C10.02 12.91 10.01 12.92 10 12.93H9.99005C9.99005 12.93 9.99005 12.93 9.99005 12.92C9.99005 12.91 9.99005 12.9 10 12.89C10 12.89 10.02 12.89 10.03 12.89C10.03 12.89 10.03 12.9 10.03 12.91H10.02ZM10.05 12.91C10.05 12.91 10.05 12.9 10.05 12.89C10.06 12.89 10.07 12.89 10.07 12.9C10.07 12.9 10.07 12.91 10.05 12.9V12.91ZM10.09 12.95C10.09 12.95 10.09 12.95 10.1 12.95C10.1 12.95 10.1 12.95 10.09 12.95ZM10.18 12.82C10.18 12.82 10.14 12.85 10.11 12.86C10.11 12.86 10.1 12.86 10.09 12.86C10.09 12.86 10.09 12.86 10.1 12.85C10.13 12.84 10.15 12.82 10.19 12.81V12.82H10.18ZM9.56005 13.8C9.56005 13.8 9.55005 13.8 9.55005 13.79C9.55005 13.79 9.55005 13.78 9.56005 13.78H9.57005C9.57005 13.78 9.57005 13.78 9.57005 13.8H9.56005ZM9.66005 13.44C9.66005 13.44 9.64005 13.48 9.63005 13.49C9.63005 13.46 9.63005 13.42 9.66005 13.4C9.66005 13.41 9.66005 13.42 9.66005 13.44ZM9.70005 13.37C9.70005 13.37 9.68005 13.37 9.68005 13.36C9.68005 13.36 9.68005 13.35 9.70005 13.35C9.71005 13.35 9.72005 13.35 9.72005 13.36C9.72005 13.36 9.72005 13.37 9.70005 13.37ZM9.75005 13.46C9.75005 13.46 9.77005 13.46 9.78005 13.46C9.79005 13.46 9.80005 13.48 9.80005 13.5C9.78005 13.5 9.76005 13.48 9.75005 13.46ZM9.63005 13.61C9.63005 13.61 9.64005 13.59 9.65005 13.59C9.65005 13.59 9.65005 13.61 9.63005 13.61ZM9.64005 13.73C9.64005 13.73 9.65005 13.74 9.65005 13.75C9.65005 13.78 9.67005 13.8 9.66005 13.84C9.64005 13.82 9.62005 13.76 9.63005 13.73H9.64005ZM9.76005 14.04C9.76005 14.04 9.77005 14.04 9.77005 14.05C9.77005 14.05 9.77005 14.06 9.76005 14.06C9.76005 14.06 9.75005 14.06 9.75005 14.05C9.75005 14.05 9.75005 14.04 9.76005 14.04ZM9.82005 13.72C9.82005 13.72 9.81005 13.72 9.80005 13.72C9.78005 13.71 9.76005 13.69 9.74005 13.68C9.78005 13.68 9.82005 13.71 9.84005 13.73C9.84005 13.73 9.83005 13.73 9.82005 13.73V13.72ZM9.87005 13.6C9.87005 13.6 9.87005 13.55 9.89005 13.51C9.90005 13.49 9.91005 13.48 9.92005 13.48C9.93005 13.51 9.90005 13.59 9.87005 13.6ZM10.42 13.38C10.42 13.38 10.41 13.38 10.41 13.37C10.41 13.37 10.41 13.37 10.42 13.37C10.42 13.37 10.42 13.37 10.44 13.37C10.44 13.37 10.43 13.37 10.42 13.37V13.38ZM10.43 13.35C10.43 13.35 10.42 13.35 10.42 13.34C10.42 13.34 10.42 13.34 10.43 13.33C10.43 13.33 10.43 13.34 10.44 13.35C10.44 13.35 10.44 13.36 10.43 13.36V13.35ZM10.44 13.31C10.44 13.31 10.44 13.31 10.42 13.31C10.42 13.31 10.43 13.3 10.44 13.3C10.44 13.3 10.45 13.3 10.45 13.31C10.45 13.31 10.45 13.32 10.44 13.32V13.31ZM10.45 13.28C10.45 13.28 10.44 13.28 10.44 13.27C10.44 13.27 10.44 13.26 10.46 13.26C10.46 13.26 10.47 13.26 10.47 13.27C10.47 13.27 10.47 13.28 10.45 13.28ZM10.46 13.24C10.46 13.24 10.45 13.24 10.45 13.23C10.45 13.23 10.45 13.22 10.46 13.22C10.46 13.22 10.47 13.22 10.47 13.23C10.47 13.23 10.47 13.24 10.45 13.24H10.46ZM10.47 13.21C10.47 13.21 10.45 13.21 10.45 13.2C10.45 13.2 10.45 13.19 10.47 13.19C10.48 13.19 10.49 13.19 10.49 13.2C10.49 13.2 10.49 13.21 10.47 13.21ZM10.46 13.13C10.46 13.13 10.47 13.13 10.48 13.13C10.48 13.13 10.48 13.13 10.47 13.13V13.12L10.46 13.13ZM10.46 13.1C10.46 13.1 10.46 13.1 10.47 13.1C10.48 13.1 10.49 13.1 10.49 13.1C10.49 13.1 10.49 13.1 10.47 13.1C10.47 13.1 10.45 13.1 10.46 13.1ZM10.48 13.17C10.48 13.17 10.46 13.17 10.46 13.16C10.46 13.16 10.46 13.15 10.48 13.15H10.5C10.5 13.15 10.5 13.16 10.48 13.16V13.17ZM10.48 13.08C10.48 13.08 10.47 13.08 10.47 13.07C10.47 13.07 10.47 13.06 10.48 13.07C10.48 13.07 10.48 13.07 10.49 13.07C10.49 13.07 10.49 13.08 10.48 13.08ZM10.48 13.02C10.48 13.02 10.48 13.02 10.49 13.02C10.49 13.02 10.49 13.02 10.48 13.02H10.47C10.47 13.02 10.47 13.02 10.48 13.02ZM10.48 12.98C10.48 12.98 10.48 12.98 10.49 12.98C10.49 12.98 10.49 12.98 10.48 12.98ZM10.49 12.95H10.48C10.48 12.95 10.48 12.95 10.49 12.95ZM10.48 12.87C10.48 12.87 10.47 12.87 10.46 12.87C10.45 12.87 10.44 12.87 10.43 12.88C10.43 12.88 10.42 12.88 10.41 12.88C10.41 12.85 10.41 12.83 10.44 12.83V12.85C10.44 12.85 10.47 12.84 10.47 12.85L10.48 12.87ZM10.45 12.78C10.45 12.78 10.44 12.79 10.43 12.79C10.43 12.79 10.43 12.79 10.43 12.78H10.45ZM10.44 12.74C10.44 12.74 10.43 12.74 10.42 12.73C10.44 12.73 10.45 12.73 10.45 12.73L10.44 12.74ZM10.41 13.38C10.41 13.38 10.41 13.38 10.41 13.39C10.41 13.39 10.41 13.39 10.4 13.39C10.4 13.39 10.4 13.39 10.39 13.39C10.39 13.39 10.39 13.39 10.4 13.38H10.41ZM10.4 13.41C10.4 13.41 10.4 13.41 10.41 13.42C10.41 13.42 10.4 13.42 10.39 13.42C10.39 13.42 10.39 13.42 10.4 13.42V13.41ZM10.33 12.95H10.35C10.35 12.95 10.33 12.97 10.32 12.98H10.31C10.31 12.98 10.31 12.98 10.31 12.97C10.31 12.97 10.33 12.95 10.34 12.94L10.33 12.95ZM10.27 12.79C10.27 12.79 10.29 12.79 10.3 12.79C10.3 12.8 10.29 12.8 10.28 12.81L10.27 12.79ZM10.21 12.83C10.21 12.83 10.24 12.82 10.25 12.83C10.26 12.83 10.27 12.85 10.27 12.86C10.27 12.88 10.26 12.89 10.24 12.88C10.23 12.88 10.21 12.87 10.2 12.86C10.2 12.86 10.2 12.85 10.2 12.84L10.21 12.83ZM10.22 12.98V12.97C10.25 12.95 10.26 12.94 10.27 12.94C10.27 12.95 10.26 12.97 10.25 12.97C10.24 12.97 10.22 12.97 10.21 12.98H10.22ZM10.16 13.36C10.16 13.36 10.22 13.38 10.22 13.4C10.19 13.4 10.17 13.39 10.14 13.39C10.12 13.39 10.09 13.39 10.06 13.39C10.07 13.36 10.11 13.35 10.15 13.35L10.16 13.36ZM10.25 14.06C10.21 14.03 10.17 14 10.13 13.96C10.11 13.95 10.1 13.93 10.08 13.91C10.08 13.91 10.08 13.9 10.07 13.89V13.88C10.07 13.88 10.07 13.88 10.08 13.88C10.08 13.88 10.08 13.88 10.09 13.88C10.09 13.88 10.09 13.88 10.1 13.89C10.15 13.94 10.19 14 10.24 14.05L10.25 14.06ZM10.27 13.51C10.27 13.51 10.24 13.5 10.24 13.49C10.24 13.49 10.25 13.47 10.26 13.47C10.27 13.47 10.28 13.47 10.28 13.49C10.28 13.5 10.28 13.51 10.27 13.51ZM10.32 13.12C10.32 13.12 10.3 13.18 10.28 13.2C10.26 13.22 10.24 13.25 10.22 13.27C10.22 13.27 10.22 13.27 10.21 13.28C10.23 13.23 10.26 13.19 10.28 13.14C10.28 13.13 10.29 13.12 10.3 13.11H10.31C10.31 13.11 10.31 13.11 10.31 13.12H10.32ZM10.31 13.02C10.31 13.02 10.31 13.02 10.31 13.01C10.31 13.01 10.31 13.01 10.32 13.01C10.33 13.01 10.35 13.01 10.36 12.99C10.36 12.99 10.36 12.99 10.37 12.99V13C10.35 13.02 10.34 13.03 10.31 13.03V13.02ZM10.46 13.97C10.46 13.97 10.45 13.99 10.45 14C10.45 14 10.45 14.01 10.44 14.01C10.44 14.01 10.44 14.01 10.44 13.99C10.44 13.98 10.44 13.96 10.44 13.95V13.94H10.45C10.45 13.94 10.45 13.96 10.45 13.97H10.46ZM10.44 13.78C10.44 13.78 10.36 13.68 10.35 13.61C10.35 13.61 10.35 13.61 10.35 13.6V13.59C10.35 13.59 10.36 13.59 10.37 13.59C10.37 13.59 10.37 13.59 10.37 13.6C10.39 13.67 10.42 13.72 10.46 13.78C10.46 13.78 10.46 13.79 10.47 13.8C10.46 13.8 10.44 13.8 10.43 13.78H10.44ZM10.44 14.39C10.44 14.39 10.43 14.35 10.44 14.33C10.44 14.32 10.45 14.31 10.46 14.3C10.45 14.33 10.44 14.35 10.43 14.38L10.44 14.39ZM10.49 14.57C10.49 14.57 10.47 14.53 10.46 14.51C10.46 14.5 10.46 14.49 10.46 14.49C10.46 14.49 10.48 14.49 10.48 14.5C10.48 14.52 10.48 14.54 10.48 14.57H10.49ZM10.28 14.99C10.28 14.99 10.28 14.99 10.28 14.98C10.28 14.97 10.29 14.96 10.31 14.95C10.31 14.96 10.29 14.98 10.28 14.98V14.99ZM10.34 14.89C10.34 14.89 10.35 14.86 10.37 14.86C10.37 14.88 10.37 14.89 10.34 14.89ZM10.52 14.73C10.52 14.73 10.46 14.8 10.43 14.82C10.43 14.82 10.43 14.82 10.42 14.82C10.42 14.79 10.5 14.72 10.53 14.71C10.53 14.71 10.53 14.71 10.53 14.72L10.52 14.73ZM10.58 14.68C10.58 14.68 10.59 14.68 10.59 14.69C10.59 14.69 10.59 14.7 10.58 14.7C10.58 14.7 10.57 14.7 10.57 14.69C10.57 14.69 10.57 14.68 10.58 14.68ZM10.77 14.21C10.77 14.21 10.77 14.22 10.77 14.23C10.77 14.22 10.77 14.21 10.77 14.2C10.77 14.2 10.77 14.19 10.77 14.18C10.77 14.18 10.78 14.18 10.79 14.18V14.2L10.77 14.21ZM11.02 14.06C11.02 14.06 11 14.09 10.98 14.1H10.97C10.97 14.1 10.97 14.1 10.97 14.09C10.97 14.08 10.99 14.06 11 14.05C11 14.04 11.02 14.02 11.03 14.01C11.04 13.99 11.05 13.97 11.05 13.94C11.05 13.91 11.05 13.87 11.05 13.84C11.05 13.84 11.05 13.83 11.05 13.82C11.06 13.86 11.07 13.91 11.07 13.95C11.07 13.99 11.05 14.02 11.03 14.05L11.02 14.06Z" fill="#515151"></path><path d="M20.49 2.48999H19.61V6.04999H20.49V2.48999Z" fill="white"></path></g><defs><clipPath id="clip0_321_6"><rect width="25" height="25" fill="white"></rect></clipPath></defs></svg>