<svg xmlns="http://www.w3.org/2000/svg" width="24" height="24" viewBox="0 0 24 24" fill="none"><path d="M12.2642 4.78309L13.5765 6.52444C13.594 6.54794 13.6172 6.5667 13.644 6.57903C13.6707 6.59135 13.7001 6.59686 13.7295 6.59507C14.2631 6.56555 15.186 6.50796 15.6587 6.82087C16.049 7.07853 15.9744 7.68933 15.563 7.86416C15.3344 7.96157 14.967 7.93557 14.6832 7.93393C14.6437 7.93312 14.6366 7.94793 14.6619 7.97836L16.8158 10.5265C16.8323 10.5458 16.8528 10.5614 16.8759 10.572C16.899 10.5827 16.9241 10.5882 16.9495 10.5881C18.2373 10.5746 19.6319 10.5042 20.8699 10.6806C21.4445 10.7617 23.2526 11.0237 23.5172 11.546C23.6925 11.8901 23.4012 12.2791 23.0986 12.4467C22.3658 12.8529 21.3682 12.9492 20.5445 12.9629C19.3337 12.9822 18.1374 12.9888 16.9554 12.9827C16.9259 12.9828 16.8968 12.9892 16.87 13.0015C16.8432 13.0139 16.8194 13.0319 16.8002 13.0543L14.663 15.5876C14.6342 15.6224 14.6421 15.6411 14.6867 15.6436C15.1172 15.6657 15.7326 15.5131 15.8852 16.105C16.1569 17.1563 14.2026 17.0071 13.6492 16.9884C13.6365 16.988 13.6238 16.9907 13.6122 16.9962C13.6007 17.0017 13.5906 17.0098 13.5829 17.02L12.245 18.8027C12.24 18.8096 12.237 18.8179 12.2365 18.8264C12.2359 18.835 12.2379 18.8435 12.2421 18.851C12.2463 18.8585 12.2526 18.8645 12.2602 18.8685C12.2677 18.8725 12.2763 18.8742 12.2849 18.8735C12.514 18.8509 12.75 18.8481 12.9928 18.865C13.5513 18.903 13.6858 19.5619 13.3894 19.9316C13.1877 20.1834 12.8176 20.2231 12.5087 20.2157C12.0896 20.2054 11.6783 20.2069 11.275 20.2202C11.2556 20.2208 11.2366 20.2259 11.2194 20.235C11.2022 20.2442 11.1873 20.2572 11.1759 20.273C10.4983 21.2189 9.76589 22.0992 8.97863 22.9139C8.75766 23.1426 8.43494 23.4357 8.08813 23.3762C7.67826 23.3065 7.06859 22.912 7.31881 22.4162C7.66575 21.7311 8.15558 21.0201 8.46703 20.431C8.90808 19.5965 9.32426 18.7496 9.71558 17.8902C10.3451 16.5098 10.8663 15.3445 11.3201 14.0189C11.3946 13.8022 11.4233 13.581 11.4064 13.3553C11.4052 13.3403 11.401 13.3256 11.394 13.3122C11.3871 13.2989 11.3775 13.2871 11.3659 13.2775C11.2523 13.1845 11.126 13.1295 10.987 13.1125C9.88866 12.9779 8.75598 13.0202 7.64976 12.9834C6.53711 12.9466 5.57962 12.8498 4.54175 12.6855C4.51353 12.6811 4.48463 12.6844 4.45811 12.6951C4.43159 12.7057 4.40843 12.7234 4.3911 12.7461C3.90349 13.382 3.41736 14.0357 2.93272 14.7073C2.72906 14.9893 2.43977 15.3146 2.07414 15.409C1.69306 15.5072 1.30971 15.5168 0.924097 15.4378C0.878325 15.4285 0.837987 15.4017 0.811522 15.3633C0.785055 15.3248 0.774508 15.2775 0.782089 15.2314C0.965375 14.1147 1.48594 12.9397 1.94522 11.9082C1.95554 11.8859 1.95966 11.8376 1.9576 11.7634C1.95636 11.7184 1.94611 11.6725 1.92685 11.6257C1.56053 10.7329 1.20547 9.74346 0.86166 8.65752C0.815904 8.51299 0.796523 8.37807 0.803518 8.25279C0.804651 8.23727 0.810729 8.22253 0.820837 8.2108C0.830945 8.19907 0.844539 8.19097 0.859576 8.18773C1.29 8.08818 1.70894 8.09568 2.11639 8.21024C2.43614 8.29936 2.70807 8.5803 2.88801 8.82595C3.38454 9.50544 3.88709 10.1832 4.39564 10.8593C4.4109 10.88 4.43166 10.8961 4.45562 10.9057C4.47958 10.9153 4.50581 10.9182 4.53137 10.9138C6.45334 10.5875 8.35118 10.5565 10.4266 10.5383C10.6306 10.5361 11.2672 10.4486 11.3845 10.24C11.509 10.0191 11.2875 9.44465 11.1804 9.16225C10.3914 7.08056 9.48183 5.05391 8.45164 3.08231C8.2262 2.65073 7.91906 2.1967 7.66276 1.74971C7.30238 1.12263 6.98877 0.698216 7.83545 0.297692C8.18056 0.134302 8.48577 0.177101 8.75108 0.42609C9.66595 1.28298 10.4487 2.2951 11.1903 3.28925C11.2108 3.31649 11.2374 3.33844 11.268 3.35329C11.2985 3.36815 11.3321 3.37547 11.3659 3.37466C11.8392 3.3643 12.3165 3.36702 12.7978 3.38282C13.3661 3.40218 13.7272 3.86387 13.5073 4.38472C13.3331 4.79549 12.7527 4.72916 12.2951 4.72256C12.2436 4.72176 12.2333 4.74193 12.2642 4.78309Z" fill="var(--primary-color, #f37002)"></path></svg>