<svg xmlns="http://www.w3.org/2000/svg" width="25" height="26" viewBox="0 0 25 26" fill="none"><g clip-path="url(#clip0_1_229)"><path d="M12.2 25.012C11.85 25.012 11.5 24.882 11.2 24.674L10.1 23.816L8.79996 24.18C8.67496 24.232 8.52496 24.232 8.39996 24.232C7.79996 24.232 7.27496 23.92 6.94996 23.374L6.24996 22.152L4.89996 21.944C4.17496 21.84 3.57496 21.216 3.47496 20.462L3.27496 19.084L2.12496 18.33C1.49996 17.94 1.17496 17.108 1.37496 16.38L1.67496 15.028L0.849961 13.91C0.424961 13.26 0.424961 12.428 0.824961 11.804L1.67496 10.66L1.34996 9.28199C1.14996 8.50199 1.47496 7.72199 2.17496 7.30599L3.32496 6.60399L3.52496 5.19999C3.62496 4.44599 4.22496 3.82199 4.94996 3.71799L6.27496 3.50999L6.97496 2.31399C7.22496 1.79399 7.77496 1.45599 8.42496 1.45599C8.52496 1.45599 8.67496 1.45599 8.82496 1.50799L10.15 1.81999L11.225 0.961994C11.5 0.753994 11.875 0.649994 12.25 0.649994C12.625 0.649994 13 0.779994 13.275 0.987994L14.425 1.87199L15.85 1.50799H16.15C16.725 1.50799 17.275 1.84599 17.6 2.36599L18.3 3.58799L19.65 3.79599C20.375 3.89999 20.975 4.52399 21.075 5.27799L21.275 6.65599L22.425 7.38399C23.05 7.77399 23.375 8.60599 23.175 9.33399L22.85 10.686L23.65 11.804C24.125 12.506 24.05 13.364 23.525 13.988L22.725 15.08L23.05 16.458C23.25 17.186 22.95 17.94 22.3 18.382L22.275 18.408L21.1 19.084L20.9 20.462C20.8 21.216 20.2 21.84 19.475 21.944L18.15 22.152L17.45 23.348C17.2 23.868 16.65 24.206 16 24.206C15.9 24.206 15.75 24.206 15.6 24.154L14.275 23.816L13.175 24.7C12.85 24.908 12.525 25.012 12.2 25.012ZM10.25 23.036L11.6 24.102C11.775 24.232 12 24.31 12.2 24.31C12.4 24.31 12.6 24.232 12.825 24.128L14.15 23.088L15.775 23.504C15.85 23.53 15.95 23.53 16 23.53C16.375 23.53 16.7 23.348 16.85 23.036L17.725 21.528L19.375 21.268C19.8 21.216 20.15 20.826 20.225 20.41L20.475 18.668L21.925 17.836C22.3 17.55 22.475 17.108 22.375 16.692L22 14.924L23 13.52C23.325 13.156 23.375 12.662 23.1 12.246L22.1 10.868L22.5 9.17799C22.625 8.73599 22.425 8.24199 22.05 8.00799L20.6 7.12399L20.35 5.40799C20.3 4.96599 19.925 4.60199 19.525 4.52399L17.85 4.26399L17 2.72999C16.825 2.41799 16.475 2.23599 16.15 2.23599H15.9L14.25 2.65199L12.85 1.55999C12.525 1.29999 11.95 1.29999 11.65 1.55999L10.325 2.59999L8.69996 2.20999C8.62496 2.18399 8.52496 2.18399 8.44996 2.18399C8.07496 2.18399 7.74996 2.36599 7.59996 2.67799L6.72496 4.18599L5.07496 4.44599C4.64996 4.49799 4.29996 4.86199 4.22496 5.30399L3.97496 7.04599L2.54996 7.92999C2.12496 8.18999 1.92496 8.65799 2.04996 9.09999L2.44996 10.816L1.39996 12.22C1.14996 12.584 1.14996 13.104 1.42496 13.494L2.42496 14.872L2.04996 16.562C1.92496 17.004 2.12496 17.498 2.49996 17.706L3.94996 18.616L4.19996 20.332C4.24996 20.774 4.59996 21.138 5.02496 21.216L6.69996 21.476L7.54996 22.984C7.74996 23.296 8.04996 23.478 8.39996 23.478C8.44996 23.478 8.57496 23.478 8.59996 23.478L10.25 23.036Z" fill="#515151"></path><path d="M12.2 25.272C11.825 25.272 11.4 25.142 11.05 24.908L10.05 24.128L8.84997 24.466C8.72497 24.518 8.52497 24.518 8.37497 24.518C7.69997 24.518 7.07497 24.154 6.72497 23.556L6.09997 22.438L4.87497 22.256C4.04997 22.152 3.34997 21.424 3.24997 20.54L3.07497 19.266L1.99997 18.538C1.27497 18.096 0.899975 17.134 1.12497 16.302L1.39997 15.08L0.649975 14.066C0.149975 13.312 0.149975 12.376 0.624975 11.648L1.39997 10.608L1.12497 9.36C0.899975 8.476 1.27497 7.566 2.07497 7.098L3.12497 6.448L3.29997 5.174C3.42497 4.316 4.09997 3.588 4.94997 3.484L6.14997 3.302L6.77497 2.21C7.04997 1.612 7.72497 1.222 8.44997 1.222C8.54997 1.222 8.72497 1.222 8.89997 1.274L10.1 1.56L11.075 0.779999C11.4 0.519999 11.8 0.389999 12.25 0.389999C12.7 0.389999 13.1 0.519999 13.425 0.779999L14.475 1.586L15.825 1.248H16.125C16.8 1.248 17.425 1.612 17.775 2.21L18.4 3.328L19.625 3.51C20.45 3.64 21.15 4.342 21.25 5.226L21.425 6.474L22.475 7.124C23.2 7.566 23.575 8.502 23.35 9.386L23.05 10.608L23.8 11.622C24.325 12.402 24.275 13.416 23.65 14.118L23 15.132L23.3 16.38C23.525 17.212 23.175 18.07 22.45 18.59L22.4 18.616L21.35 19.24L21.175 20.488C21.05 21.346 20.375 22.074 19.525 22.178L18.325 22.36L17.7 23.452C17.425 24.05 16.75 24.44 16.025 24.44C15.925 24.44 15.75 24.44 15.55 24.388L14.35 24.076L13.3 24.882C12.925 25.142 12.55 25.272 12.2 25.272ZM10.15 23.53L11.35 24.466C11.6 24.648 11.9 24.752 12.2 24.752C12.475 24.752 12.75 24.674 13.05 24.492L14.25 23.556L15.675 23.92C15.8 23.946 15.925 23.946 16.025 23.946C16.575 23.946 17.05 23.66 17.25 23.244L18 21.918L19.45 21.684C20.075 21.606 20.575 21.06 20.675 20.436L20.9 18.928L22.2 18.174C22.75 17.784 23 17.134 22.825 16.536L22.475 15.028L23.325 13.832C23.8 13.312 23.85 12.584 23.45 11.986L22.575 10.79L22.925 9.308C23.1 8.658 22.825 7.956 22.275 7.644L21.025 6.864L20.8 5.356C20.725 4.706 20.2 4.186 19.6 4.082L18.15 3.848L17.4 2.522C17.125 2.08 16.65 1.794 16.175 1.794H15.9L14.4 2.158L13.175 1.196C12.95 1.014 12.625 0.909999 12.3 0.909999C11.975 0.909999 11.65 1.014 11.425 1.196L10.25 2.106L8.82497 1.768C8.69997 1.742 8.54997 1.742 8.47497 1.742C7.92497 1.742 7.44997 2.028 7.24997 2.444L6.49997 3.77L4.99997 4.004C4.37497 4.082 3.87497 4.628 3.77497 5.252L3.54997 6.76L2.29997 7.54C1.69997 7.878 1.42497 8.58 1.59997 9.23L1.94997 10.712L1.02497 11.96C0.674975 12.506 0.674975 13.208 1.04997 13.754L1.92497 14.95L1.59997 16.406C1.42497 17.03 1.69997 17.758 2.22497 18.07L3.49997 18.876L3.72497 20.384C3.79997 21.034 4.32497 21.554 4.92497 21.658L6.37497 21.892L7.12497 23.218C7.39997 23.686 7.84997 23.946 8.34997 23.946C8.44997 23.946 8.59997 23.946 8.67497 23.92L10.15 23.53ZM12.2 24.544C11.95 24.544 11.675 24.466 11.45 24.31L10.2 23.322L8.64997 23.738C8.59997 23.764 8.52497 23.764 8.37497 23.764C7.92497 23.764 7.54997 23.53 7.29997 23.14L6.49997 21.736L4.94997 21.502C4.42497 21.424 3.97497 20.956 3.89997 20.41L3.67497 18.798L2.34997 17.94C1.89997 17.654 1.64997 17.056 1.79997 16.51L2.14997 14.95L1.22497 13.676C0.899975 13.182 0.899975 12.558 1.19997 12.116L2.17497 10.816L1.79997 9.23C1.64997 8.658 1.89997 8.06 2.42497 7.748L3.74997 6.916L3.97497 5.304C4.04997 4.758 4.49997 4.29 5.02497 4.212L6.57497 3.978L7.37497 2.574C7.54997 2.21 7.94997 1.95 8.42497 1.95C8.49997 1.95 8.62497 1.95 8.72497 1.976L10.25 2.314L11.5 1.326C11.9 1.014 12.6 1.014 13.025 1.326L14.325 2.34L15.875 1.95H16.125C16.55 1.95 16.975 2.184 17.2 2.574L18 3.978L19.55 4.212C20.075 4.29 20.525 4.758 20.6 5.304L20.825 6.916L22.175 7.748C22.65 8.034 22.875 8.632 22.725 9.204L22.35 10.79L23.275 12.064C23.625 12.584 23.575 13.208 23.175 13.676L22.25 14.976L22.625 16.562C22.75 17.082 22.55 17.654 22.075 17.992L22.05 18.018L20.7 18.798L20.475 20.41C20.4 20.956 19.95 21.424 19.425 21.502L17.875 21.736L17.075 23.14C16.9 23.504 16.5 23.764 16.025 23.764C15.95 23.764 15.825 23.764 15.725 23.738L14.2 23.348L12.95 24.336C12.7 24.466 12.425 24.544 12.2 24.544ZM10.3 22.75L11.75 23.868C11.875 23.946 12.05 24.024 12.2 24.024C12.35 24.024 12.5 23.972 12.7 23.868L14.1 22.776L15.85 23.218C15.9 23.218 15.975 23.218 16.025 23.218C16.3 23.218 16.55 23.088 16.65 22.88L17.6 21.242L19.375 20.956C19.7 20.904 19.975 20.618 20 20.306L20.25 18.46L21.8 17.576C22.1 17.368 22.225 17.03 22.15 16.718L21.725 14.872L22.825 13.338C23.075 13.052 23.1 12.688 22.9 12.376L21.8 10.92L22.225 9.1C22.325 8.762 22.175 8.398 21.9 8.216L20.35 7.254L20.075 5.408C20.025 5.07 19.75 4.784 19.45 4.758L17.65 4.472L16.725 2.86C16.6 2.626 16.325 2.47 16.075 2.47H15.85L14.15 2.912L12.65 1.742C12.425 1.56 11.975 1.56 11.75 1.742L10.325 2.86L8.57497 2.444C8.52497 2.444 8.42497 2.444 8.39997 2.444C8.12497 2.444 7.87497 2.574 7.77497 2.782L6.87497 4.42L5.09997 4.706C4.77497 4.758 4.49997 5.018 4.47497 5.356L4.19997 7.228L2.67497 8.19C2.34997 8.372 2.19997 8.736 2.29997 9.074L2.72497 10.92L1.62497 12.428C1.44997 12.688 1.44997 13.078 1.64997 13.39L2.69997 14.846L2.29997 16.666C2.19997 17.004 2.34997 17.368 2.62497 17.524L4.17497 18.512L4.44997 20.358C4.49997 20.696 4.74997 20.982 5.07497 21.008L6.87497 21.294L7.79997 22.906C7.94997 23.14 8.17497 23.296 8.44997 23.296C8.49997 23.296 8.57497 23.296 8.59997 23.296L10.3 22.75Z" fill="#515151"></path><path d="M11.35 10.244C11.35 8.96999 10.35 7.92999 9.125 7.92999C7.875 7.92999 6.875 8.96999 6.875 10.244C6.875 11.57 7.875 12.61 9.125 12.61C10.325 12.61 11.35 11.544 11.35 10.244ZM7.85 10.244C7.85 9.56799 8.425 8.96999 9.1 8.96999C9.75 8.96999 10.325 9.56799 10.325 10.244C10.325 10.972 9.775 11.57 9.1 11.57C8.425 11.57 7.85 10.972 7.85 10.244Z" fill="#515151"></path><path d="M15.375 12.896C14.15 12.896 13.15 13.962 13.15 15.262C13.15 16.536 14.15 17.576 15.375 17.576C16.625 17.576 17.625 16.536 17.625 15.262C17.65 13.936 16.65 12.896 15.375 12.896ZM15.375 16.562C14.725 16.562 14.15 15.964 14.15 15.288C14.15 14.56 14.7 13.962 15.375 13.962C16.05 13.962 16.625 14.56 16.625 15.288C16.625 15.964 16.05 16.562 15.375 16.562Z" fill="#515151"></path><path d="M15.1 7.358C15.05 7.332 14.975 7.306 14.9 7.306C14.85 7.306 14.825 7.306 14.8 7.306C14.35 7.358 14.125 7.956 14.1 8.008L9.17499 17.55C9.02499 17.81 9.02498 18.122 9.19998 18.278C9.27498 18.356 9.39998 18.408 9.52498 18.408C9.64998 18.408 9.72499 18.382 9.74999 18.382C9.94999 18.304 10.05 18.148 10.1 18.07L10.25 17.784L10.4 17.498L12.75 12.948L15.075 8.398C15.3 7.878 15.25 7.488 15.1 7.358Z" fill="#515151"></path></g><defs><clipPath id="clip0_1_229"><rect width="25" height="26" fill="white"></rect></clipPath></defs></svg>