<svg width="25" height="23" viewBox="0 0 25 23" fill="none" xmlns="http://www.w3.org/2000/svg"><path d="M20.6154 14.9866C20.456 14.9866 20.3231 15.1195 20.3231 15.2789C20.3231 15.4384 20.456 15.5713 20.6154 15.5713C20.7749 15.5713 20.9078 15.4384 20.9078 15.2789C20.9078 15.1195 20.7749 14.9866 20.6154 14.9866Z" fill="#515151"></path><path d="M12.4968 3.82516H12.4835C12.3294 3.82516 12.2045 3.95009 12.2045 4.1042V4.11749C12.2045 4.2716 12.3294 4.39652 12.4835 4.39652H12.4968C12.6509 4.39652 12.7758 4.2716 12.7758 4.11749V4.1042C12.7758 3.95009 12.6509 3.82516 12.4968 3.82516Z" fill="#515151"></path><path d="M13.6528 3.81183C13.4934 3.81183 13.3738 3.9447 13.3738 4.09086C13.3738 4.23703 13.5067 4.3699 13.6528 4.3699C13.8123 4.3699 13.9319 4.23703 13.9319 4.09086C13.9319 3.9447 13.799 3.81183 13.6528 3.81183Z" fill="#515151"></path><path d="M11.5135 3.81183C11.5135 3.81183 11.3939 3.81183 11.3275 3.81183C11.168 3.81183 11.0352 3.9447 11.0352 4.09086C11.0352 4.2636 11.168 4.39648 11.3142 4.39648C11.4736 4.39648 11.6065 4.2636 11.5932 4.10415C11.5932 4.051 11.5932 3.99785 11.5932 3.9447C11.5932 3.90484 11.5268 3.82512 11.4869 3.82512L11.5135 3.81183Z" fill="#515151"></path><path d="M24.9472 22.1618C24.9472 21.989 24.9472 21.8296 24.9472 21.6569C24.9472 21.3114 24.708 21.0722 24.3625 21.0589C24.2562 21.0589 24.1366 21.0589 24.0038 21.0589C24.0038 20.8463 24.0038 20.6603 24.0038 20.4743C24.0038 20.0491 23.7779 19.8232 23.3527 19.8099C23.2464 19.8099 23.1401 19.8099 22.9939 19.8099C22.9939 19.6106 22.9939 19.4246 22.9939 19.2386C22.9939 18.9329 22.8876 18.7336 22.675 18.6273C22.6352 18.5875 22.582 18.5609 22.5156 18.5609H22.4093C22.4093 18.5609 22.3561 18.5609 22.3295 18.5609C22.303 18.5609 21.9841 18.5609 21.519 18.5609V17.3783H20.9211V16.4881C20.9211 16.3286 20.7882 16.1824 20.6155 16.1824C20.4427 16.1824 20.3099 16.3153 20.3099 16.4881V17.3517H19.114V8.36944H20.2966V14.0432C20.2966 14.2159 20.4294 14.3488 20.6022 14.3488C20.7749 14.3488 20.9078 14.2159 20.9078 14.0432V8.35615H21.5057V7.147C21.8645 7.147 22.1967 7.147 22.5156 7.147C22.5953 7.147 22.675 7.12042 22.7547 7.12042V5.40634C22.5554 5.40634 22.3428 5.40634 22.1435 5.36648C21.9974 5.35319 21.8512 5.32662 21.7316 5.26018C19.8581 4.17061 16.2838 2.09777 15.3005 1.52642C15.1543 1.44669 14.9816 1.48655 14.9019 1.63271C14.8221 1.77888 14.862 1.9649 15.0082 2.04462L20.642 5.32662C20.642 5.32662 20.642 5.35319 20.642 5.36648C20.5623 5.36648 20.1504 5.44621 19.7119 5.37977C19.4063 5.33991 19.1538 5.23361 18.7685 4.99443C16.7355 3.82514 14.6893 2.68242 12.6563 1.52642C12.5234 1.44669 12.4437 1.48655 12.3374 1.5397C10.145 2.77543 7.95255 4.02445 5.76012 5.26018C5.64054 5.32662 5.48109 5.36648 5.33493 5.37977C5.02931 5.39306 4.7237 5.37977 4.36494 5.37977C4.45796 5.31333 4.49782 5.28676 4.53768 5.26018C7.1553 3.7587 9.75964 2.24394 12.3773 0.742457C12.4703 0.689307 12.5766 0.689307 12.6696 0.742457C13.0815 0.981631 13.4934 1.20752 13.9186 1.4334C14.0648 1.51313 14.2375 1.45998 14.3172 1.31382C14.3969 1.16765 14.3438 0.994918 14.2109 0.915194C13.8256 0.702595 13.0948 0.290685 12.7094 0.0647983C12.5766 -0.0149263 12.4703 -0.0149263 12.3374 0.0647983C9.40088 1.76559 6.45107 3.45309 3.51455 5.16717C3.2488 5.31333 2.99634 5.41963 2.69073 5.37977C2.58443 5.37977 2.46484 5.37977 2.34525 5.37977V7.16028H3.50126V8.35615H4.09919V17.365H3.52784V18.5609H2.98305C2.8236 18.5609 2.67744 18.5609 2.53128 18.5609C2.15923 18.5609 1.93334 18.8001 1.92006 19.1721C1.92006 19.3714 1.92006 19.5707 1.92006 19.7966C1.7739 19.7966 1.65431 19.7966 1.53472 19.7966C1.1361 19.8099 0.910213 20.0491 0.910213 20.4477C0.910213 20.647 0.910213 20.833 0.910213 21.0456C0.777338 21.0456 0.671039 21.0456 0.56474 21.0456C0.205979 21.0589 -0.0199072 21.2981 -0.0331946 21.6569C-0.0331946 21.8296 -0.0331946 21.989 -0.0331946 22.1618C-0.0597694 22.5205 0.0863924 22.773 0.418578 22.9059H9.61348C9.74635 22.7996 9.86594 22.6933 9.7995 22.5073C9.73306 22.3212 9.57361 22.3079 9.40088 22.3079C6.54408 22.3079 3.68728 22.3079 0.830488 22.3079H0.578027V21.6834H24.3359V22.3079H11.1814C11.1814 22.3079 11.0884 22.3079 11.0352 22.3079C10.8625 22.3079 10.703 22.3212 10.6366 22.5073C10.5702 22.6933 10.6765 22.8129 10.8226 22.9059H24.5087C24.8542 22.773 24.987 22.5205 24.9605 22.1618H24.9472ZM2.5047 19.1854H22.3827V19.7966H2.5047V19.1854ZM4.08591 7.74493V7.17357H6.46436V7.74493H4.08591ZM5.86642 8.38273V17.3783H4.69713V8.38273H5.86642ZM6.49093 17.3916V8.38273H7.07558V7.18686H8.28473V8.36944H8.86938V17.3783H8.29802V18.5742H7.07558V17.3916H6.49093ZM8.89596 7.75822V7.17357H11.2611V7.75822H8.89596ZM10.6632 8.38273V17.365H9.49389V8.38273H10.6632ZM8.89596 17.9895H11.2611V18.5609H8.89596V17.9895ZM11.2877 17.3783V8.36944H11.8723V7.17357H13.0948V8.35615H13.6794V17.365H13.0948V18.5609H11.8723V17.3783H11.2877ZM16.111 17.3783V8.36944H16.6957V7.17357H17.9048V8.35615H18.4895V17.365H17.9181V18.5609C17.6524 18.5609 17.4796 18.5609 17.4531 18.5609H16.6957V17.3783H16.111ZM16.0845 7.74493H13.7193V7.16028H16.0845V7.74493ZM15.4865 8.36944V17.365H14.3172V8.36944H15.4865ZM16.0845 17.9762V18.5609H13.7193V17.9762H16.0845ZM20.9078 17.9762V18.5476C20.1504 18.5476 19.2203 18.5476 18.5293 18.5476V17.9762H20.9078ZM20.9078 7.73164H18.5426V7.16028H20.9078V7.73164ZM6.98257 5.24689C8.77637 4.22376 10.5702 3.21392 12.3773 2.20407C12.4437 2.16421 12.5633 2.16421 12.6297 2.20407C14.4634 3.22721 16.2838 4.26362 18.1041 5.30004C18.1174 5.30004 18.1307 5.32662 18.1839 5.36648H6.8364C6.8364 5.36648 6.9427 5.28676 6.98257 5.26018V5.24689ZM2.91661 6.53577V5.9777H22.1302V6.53577H2.91661ZM4.09919 17.9895H6.47764V18.5609H4.09919V17.9895ZM23.3925 21.0456H1.49486V20.4344H23.3792V21.0456H23.3925Z" fill="#515151"></path></svg>