<svg width="25" height="25" viewBox="0 0 25 25" fill="none" xmlns="http://www.w3.org/2000/svg"><path d="M0.314104 24.987C0.131746 24.987 -0.0115356 24.8437 -0.0115356 24.6613C-0.0115356 24.479 0.11872 24.3357 0.301078 24.3227L0.379231 20.2978C0.379231 19.9721 0.639743 19.7116 0.965382 19.7116H1.98138L2.05953 19.2297C2.05953 19.0473 2.21584 18.891 2.39819 18.891C2.58055 18.891 2.73686 19.0473 2.73686 19.2297V19.5292L3.03645 19.425C3.24486 19.3599 3.44024 19.2818 3.6226 19.2036C3.73983 19.1515 3.73983 18.9561 3.73983 18.9301C3.73983 18.7477 3.73983 18.5654 3.73983 18.383C3.73983 18.2918 3.7789 18.2137 3.83101 18.1485C3.89613 18.0834 3.97429 18.0574 4.06547 18.0574C4.24782 18.0574 4.40413 18.2006 4.40413 18.383V18.8649L4.76885 18.5914C4.97726 18.4351 5.17264 18.2918 5.355 18.1355C5.43315 18.0704 5.43315 17.9532 5.43315 17.862V16.7027C5.43315 16.5203 5.58946 16.364 5.77182 16.364C5.95417 16.364 6.11048 16.5203 6.11048 16.7027V17.2758L6.25376 17.1065C6.76176 16.5203 7.10042 15.8821 7.26976 15.2178C7.51724 14.2278 7.72565 13.2379 7.94709 12.2349L8.7677 8.40541C8.79375 8.34028 8.80677 8.28818 8.79375 8.2491C8.71559 7.87136 8.91098 7.59782 9.10636 7.29824L11.8027 3.07795C11.8027 3.07795 11.8938 2.97375 11.972 2.92164L12.1283 2.80441L12.1543 1.59304L11.49 1.51488C11.4119 1.51488 11.3468 1.44976 11.3468 1.3716V0.99386C11.3468 0.915707 11.4119 0.850579 11.49 0.850579H12.0762L12.1543 0.212326C12.1543 0.108121 12.2325 0.0299683 12.3367 0.0299683H12.6363C12.7405 0.0299683 12.8186 0.108121 12.8186 0.212326V0.7594L13.483 0.837553C13.5741 0.837553 13.6393 0.915707 13.6393 0.99386V1.34555C13.6393 1.43673 13.5611 1.50186 13.483 1.50186H12.9229L12.8447 2.73929L13.014 2.92164C13.0922 2.98677 13.1703 3.0519 13.2094 3.11703C14.1212 4.53682 15.033 5.96963 15.9448 7.40244L16.075 7.61085C16.1271 7.689 16.1662 7.76716 16.1792 7.83228C16.2183 8.06674 16.2574 8.31423 16.2965 8.56172C16.3616 8.95248 16.4267 9.35628 16.5049 9.74704C16.8566 11.4534 17.2343 13.1597 17.6121 14.8661C17.7944 15.6867 18.2764 16.6766 18.7192 17.1456L18.8625 17.3019V16.7287C18.8625 16.5464 19.0188 16.3901 19.2012 16.3901C19.3835 16.3901 19.5398 16.5464 19.5398 16.7287C19.5398 17.1456 19.5398 17.4842 19.5398 17.8359C19.5398 18.0443 19.605 18.1746 19.7482 18.2788C19.8915 18.383 20.0348 18.4872 20.1911 18.6044L20.5298 18.8519V18.409C20.5298 18.2267 20.6861 18.0704 20.8685 18.0704C20.9596 18.0704 21.0508 18.1095 21.1159 18.1746C21.1811 18.2397 21.2201 18.3309 21.2201 18.4221C21.2201 18.5914 21.2201 18.7738 21.2201 18.9561C21.2201 19.0733 21.3243 19.2166 21.4286 19.2687C21.5718 19.3339 21.7281 19.386 21.8844 19.4381L22.2101 19.5553V19.2427C22.2101 19.0603 22.3534 18.904 22.5487 18.904C22.7441 18.904 22.8874 19.0473 22.8874 19.2427V19.6204L24.0337 19.6986C24.3333 19.6986 24.5677 19.9461 24.5677 20.2326V24.2575C24.8282 24.3357 24.9715 24.492 24.9715 24.6613C24.9715 24.8567 24.8282 25 24.6459 25H0.314104V24.987ZM16.2834 12.3912L16.2313 24.2315L17.1171 24.3096H17.1952V24.1924L17.2213 15.9212C17.2213 15.856 17.2213 15.7909 17.1952 15.7258C17.1952 15.7258 16.8305 14.2539 16.7393 13.8761C16.6612 13.5505 16.5961 13.2249 16.5179 12.8992L16.4007 12.3522L16.2965 12.3912H16.2834ZM19.5789 24.2315L20.4907 24.3096L20.5689 23.6583V19.7507C20.5689 19.7507 20.5428 19.5813 20.4647 19.5292C20.2823 19.412 20.0999 19.3078 19.9046 19.1906L19.5789 18.9952V24.2184V24.2315ZM22.9395 24.2315L23.8383 24.3096L23.9164 20.4671L23.4345 20.3629L22.9395 20.3368V24.2315ZM21.2592 24.2315L22.158 24.3096L22.2361 20.2066L21.2462 19.92V24.2315H21.2592ZM2.81501 20.1935L2.74988 24.2315L3.64865 24.3096L3.7268 19.907L2.80199 20.1805L2.81501 20.1935ZM17.8986 24.2315L18.8104 24.3096L18.8886 23.9189V22.6033C18.8886 21.3659 18.8886 20.1284 18.8886 18.891C18.8886 18.4872 18.7844 18.2267 18.5369 18.0053C18.4196 17.888 18.3154 17.7578 18.1982 17.6145L17.8856 17.2237V24.2184L17.8986 24.2315ZM12.493 20.3629C12.3107 20.3629 12.1283 20.441 11.998 20.5843C11.6463 20.9751 11.5031 21.418 11.5682 21.9259C11.5682 22.0171 11.5682 22.1213 11.5682 22.2125V24.2315L13.3266 24.3096L13.4048 23.502C13.4048 22.955 13.3918 22.4209 13.4178 21.8869C13.4439 21.3919 13.3006 20.9621 12.975 20.5843C12.8447 20.441 12.6754 20.3629 12.48 20.3629H12.493ZM1.14774 20.3889L1.06959 24.2184L1.96835 24.2966L2.0465 20.3108L1.14774 20.3759V20.3889ZM9.4841 24.2184L10.8127 24.2966L10.8909 23.5541V21.6003C10.8909 21.0923 11.0081 20.7015 11.2686 20.402C11.5291 20.1024 11.8027 19.8158 12.0892 19.5162C12.1934 19.412 12.3367 19.3469 12.48 19.3469C12.6233 19.3469 12.7665 19.399 12.8707 19.5162L13.4569 20.1024C13.8607 20.5062 14.0821 21.0532 14.0821 21.6264V24.2054L15.4107 24.2836L15.4889 10.8021L9.45805 10.724V24.2054L9.4841 24.2184ZM6.73571 17.6536C6.5794 17.8359 6.42309 18.0053 6.29284 18.1876C6.17561 18.3309 6.11048 18.5002 6.11048 18.6435C6.11048 20.1284 6.11048 21.6003 6.11048 23.0852V23.971V24.2315L6.18863 24.3096H7.00924L7.0874 17.2367L6.72268 17.6536H6.73571ZM5.09449 19.1906C4.95121 19.2818 4.80792 19.3729 4.66464 19.4381C4.48229 19.5292 4.41716 19.6465 4.41716 19.8549C4.41716 20.8318 4.41716 21.8087 4.41716 22.7856V23.984L4.43018 24.2184L4.50834 24.2836H5.32895L5.4071 18.9691L5.08146 19.1776L5.09449 19.1906ZM7.79078 15.7779C7.79078 15.7779 7.79078 15.8951 7.79078 15.9472V23.971L7.8038 24.2184L7.88196 24.2966H8.70257L8.78072 12.4433L8.61139 12.4173L7.77775 15.7649L7.79078 15.7779ZM12.493 3.57292C12.3497 3.57292 12.2195 3.65108 12.1153 3.80738L9.57528 7.79321C9.51015 7.88439 9.45805 7.96254 9.45805 8.04069C9.45805 8.53566 9.45805 9.03063 9.45805 9.53863V9.95545L15.4238 10.0336L15.5019 9.49956C15.5019 9.01761 15.5019 8.53566 15.5019 8.06674C15.5019 7.96254 15.4498 7.87136 15.3977 7.79321L12.8707 3.82041C12.7665 3.65108 12.6363 3.57292 12.48 3.57292H12.493Z" fill="#515151"></path><path d="M12.493 14.0845C11.8547 14.0845 11.3337 13.5375 11.3337 12.9122C11.3337 12.261 11.8677 11.7399 12.506 11.7399C13.1573 11.7399 13.6783 12.274 13.6783 12.9122C13.6783 13.5635 13.1442 14.0845 12.493 14.0845ZM12.506 12.4042C12.3757 12.4042 12.2455 12.4563 12.1413 12.5605C12.0371 12.6647 11.998 12.782 11.998 12.9253C11.998 13.1988 12.2324 13.4202 12.506 13.4202C12.7795 13.4202 13.001 13.1858 13.014 12.9253C13.014 12.6517 12.7925 12.4303 12.519 12.4173L12.506 12.4042Z" fill="#515151"></path><path d="M12.506 16.1686C12.3236 16.1686 12.1804 16.0253 12.1804 15.843V15.4262C12.1804 15.2438 12.3236 15.1005 12.506 15.1005C12.6884 15.1005 12.8316 15.2438 12.8316 15.4262V15.843C12.8316 16.0253 12.6884 16.1686 12.506 16.1686Z" fill="#515151"></path><path d="M12.506 18.2657C12.3367 18.2657 12.1804 18.1225 12.1804 17.9531V17.5363C12.1804 17.367 12.3236 17.2237 12.506 17.2237C12.6884 17.2237 12.8316 17.367 12.8316 17.5363V17.9531C12.8316 18.1225 12.6884 18.2657 12.506 18.2657Z" fill="#515151"></path><path d="M12.506 9.04362C12.3236 9.04362 12.1804 8.90034 12.1804 8.71798V6.62087C12.1804 6.43851 12.3236 6.29523 12.506 6.29523C12.6884 6.29523 12.8316 6.43851 12.8316 6.62087V8.71798C12.8316 8.90034 12.6884 9.04362 12.506 9.04362Z" fill="#515151"></path><path d="M10.8256 9.03062C10.6433 9.03062 10.5 8.88734 10.5 8.70498V8.28816C10.5 8.10581 10.6433 7.96252 10.8256 7.96252C11.008 7.96252 11.1513 8.10581 11.1513 8.28816V8.70498C11.1513 8.88734 11.008 9.03062 10.8256 9.03062Z" fill="#515151"></path><path d="M14.1864 9.04368C14.004 9.04368 13.8607 8.9004 13.8607 8.71804V8.30123C13.8607 8.11887 14.004 7.97559 14.1864 7.97559C14.3687 7.97559 14.512 8.11887 14.512 8.30123V8.71804C14.512 8.9004 14.3687 9.04368 14.1864 9.04368Z" fill="#515151"></path></svg>