<svg xmlns="http://www.w3.org/2000/svg" width="25" height="25" fill="none"><path d="M18.396 11.667c-.24-.313-.531-.584-.802-.854-.698-.626-1.49-1.073-2.157-1.73-1.552-1.52-1.895-4.03-.906-5.958-.99.24-1.854.781-2.594 1.375-2.697 2.167-3.76 5.99-2.49 9.27.043.105.084.21.084.345 0 .229-.156.437-.364.52-.24.105-.49.042-.688-.125a.605.605 0 0 1-.146-.177C7.156 12.843 6.97 10.708 7.76 9c-1.74 1.417-2.687 3.813-2.552 6.073.063.52.125 1.042.302 1.562.146.625.427 1.25.74 1.802 1.125 1.803 3.073 3.094 5.167 3.355 2.229.28 4.614-.125 6.323-1.667 1.906-1.73 2.573-4.5 1.593-6.875l-.135-.27c-.219-.48-.802-1.313-.802-1.313Zm-3.292 6.562c-.291.25-.77.521-1.146.625-1.166.417-2.333-.166-3.02-.854 1.24-.292 1.979-1.208 2.197-2.135.178-.834-.156-1.521-.291-2.323-.125-.771-.104-1.427.177-2.146.198.396.406.791.656 1.104.802 1.042 2.063 1.5 2.333 2.917.042.146.063.291.063.448.031.854-.344 1.791-.969 2.364Z" fill="#515151"/></svg>