<svg width="23" height="25" viewBox="0 0 23 25" fill="none" xmlns="http://www.w3.org/2000/svg"><path d="M17.7917 4.86791C17.7917 4.99325 17.917 5.09351 18.0423 5.08098C18.6189 5.03084 20.0978 4.85538 20.5866 4.50446C21.0754 4.15353 21.7396 1.98531 21.9903 1.108C22.0404 0.945066 21.89 0.782136 21.7145 0.819735C20.7871 1.0328 18.4058 1.65945 18.0674 2.4365C17.729 3.21355 17.7541 4.36659 17.7792 4.86791H17.7917Z" stroke="#515151" stroke-width="0.651719" stroke-miterlimit="10"></path><path d="M16.7765 7.16149L18.9948 4.9682" stroke="#515151" stroke-width="0.651719" stroke-miterlimit="10"></path><path d="M17.7792 4.14099L16.0997 5.85802" stroke="#515151" stroke-width="0.651719" stroke-miterlimit="10"></path><path d="M17.5284 8.99133C17.5284 8.99133 15.473 10.019 15.31 13.052C15.2098 14.744 15.7236 16.5237 17.2527 17.5263" stroke="#515151" stroke-width="0.651719" stroke-miterlimit="10"></path><path d="M12.2395 11.7987V5.06847C12.2395 4.94314 12.3899 4.88047 12.4651 4.9682C13.1293 5.64499 14.9216 8.01374 13.0416 12.7638" stroke="#515151" stroke-width="0.651719" stroke-miterlimit="10"></path><path d="M12.1769 14.556V21.5996C12.1769 21.6873 12.2771 21.7249 12.3398 21.6748C12.9414 21.0983 14.9216 18.742 12.979 13.804" stroke="#515151" stroke-width="0.651719" stroke-miterlimit="10"></path><path d="M16.5384 18.9802L19.9725 23.8054C20.0853 23.9683 19.9725 24.1814 19.7845 24.1814H18.5437C18.4685 24.1814 18.3933 24.1438 18.3432 24.0811L15.6987 20.2585" stroke="#515151" stroke-width="0.651719" stroke-miterlimit="10"></path><path d="M12.0765 23.5297C11.7256 23.7428 11.287 23.7428 10.936 23.5297C9.31927 22.5772 4.84497 19.3186 4.90763 12.7387C4.9703 6.08367 9.45714 3.23866 10.9987 2.46161C11.3246 2.29868 11.7006 2.29868 12.0264 2.46161C13.568 3.23866 18.0548 6.08367 18.1175 12.7387C18.1801 19.3938 13.7058 22.5772 12.0891 23.5297H12.0765Z" stroke="#515151" stroke-width="0.651719" stroke-miterlimit="10"></path><path d="M5.20847 4.86791C5.20847 4.99325 5.08314 5.09351 4.95781 5.08098C4.38129 5.03084 2.90239 4.85538 2.4136 4.50446C1.92481 4.15353 1.26056 1.98531 1.0099 1.108C0.959764 0.945066 1.11016 0.782136 1.28562 0.819735C2.21307 1.0328 4.59435 1.65945 4.93274 2.4365C5.27114 3.21355 5.24607 4.36659 5.221 4.86791H5.20847Z" stroke="#515151" stroke-width="0.651719" stroke-miterlimit="10"></path><path d="M6.2236 7.16149L4.00525 4.9682" stroke="#515151" stroke-width="0.651719" stroke-miterlimit="10"></path><path d="M5.22095 4.14099L6.90038 5.85802" stroke="#515151" stroke-width="0.651719" stroke-miterlimit="10"></path><path d="M5.47144 8.99133C5.47144 8.99133 7.52686 10.019 7.68979 13.052C7.79005 14.744 7.2762 16.5237 5.74716 17.5263" stroke="#515151" stroke-width="0.651719" stroke-miterlimit="10"></path><path d="M10.7606 11.7987V5.06847C10.7606 4.94314 10.6102 4.88047 10.535 4.9682C9.87077 5.64499 8.07855 8.01374 9.95851 12.7638" stroke="#515151" stroke-width="0.651719" stroke-miterlimit="10"></path><path d="M10.8232 14.556V21.5996C10.8232 21.6873 10.723 21.7249 10.6603 21.6748C10.0587 21.0983 8.0785 18.742 10.0211 13.804" stroke="#515151" stroke-width="0.651719" stroke-miterlimit="10"></path><path d="M6.46173 18.9802L3.02767 23.8054C2.91487 23.9683 3.02767 24.1814 3.21567 24.1814H4.45644C4.53164 24.1814 4.60684 24.1438 4.65697 24.0811L7.30144 20.2585" stroke="#515151" stroke-width="0.651719" stroke-miterlimit="10"></path><path d="M11.4499 14.744C12.3082 14.744 13.004 14.0482 13.004 13.1899C13.004 12.3316 12.3082 11.6358 11.4499 11.6358C10.5915 11.6358 9.89575 12.3316 9.89575 13.1899C9.89575 14.0482 10.5915 14.744 11.4499 14.744Z" stroke="#515151" stroke-width="0.651719" stroke-miterlimit="10"></path></svg>