<svg width="25" height="25" viewBox="0 0 25 25" fill="none" xmlns="http://www.w3.org/2000/svg"><path d="M4.84338 0.145581C6.16299 2.00173 7.46809 3.82887 8.7732 5.65602C9.91879 4.51043 11.0644 3.36484 12.21 2.21925C12.3405 2.08874 12.558 2.08874 12.6885 2.21925C13.8776 3.40834 15.0087 4.55393 16.1833 5.71402C17.5609 3.79987 18.895 1.91472 20.2581 0.00056953C20.3306 -0.100939 20.4756 -0.100939 20.5481 0.00056953C21.1717 0.856137 23.6079 4.26391 24.8695 6.03305C24.942 6.13456 25 6.27957 25 6.41008C25 11.761 25 21.8538 25 24.4495C25 24.7975 24.7245 25.0731 24.3764 25.0731H0.565545C0.261021 25.0731 0 24.8265 0 24.5075C0 22.0133 0 11.8045 0 6.45358C0 6.32307 0.0290022 6.17806 0.101508 6.07655C1.3196 4.36542 3.58178 1.20416 4.33584 0.160082C4.45185 -0.0139318 4.71287 -0.0139318 4.82888 0.160082L4.84338 0.145581ZM4.93039 4.2059C4.75638 3.97389 4.42285 3.97389 4.24884 4.2059C3.52378 5.20648 1.85615 7.54117 0.928074 8.84627C0.855568 8.94778 0.841067 9.09279 0.841067 9.2088C0.841067 13.4576 0.841067 21.4913 0.841067 23.681C0.841067 23.9855 1.08759 24.2465 1.40661 24.2465H2.92923C2.92923 24.145 2.92923 24.058 2.92923 23.9855C2.92923 23.2604 2.92923 22.5209 2.92923 21.7958C2.92923 20.8387 3.66879 20.0992 4.59687 20.0992C5.52494 20.0992 6.25 20.8387 6.2645 21.8103C6.2645 22.5354 6.2645 23.2749 6.2645 24C6.2645 24.087 6.2645 24.174 6.2645 24.2465H8.32366C8.32366 24.2465 8.32366 24.145 8.32366 24.1015C8.32366 19.1276 8.32366 14.1392 8.32366 9.1653C8.32366 9.04929 8.26566 8.91878 8.19315 8.81727C7.27958 7.52667 6.36601 6.25057 5.43793 4.95996C5.26392 4.71344 5.0899 4.48143 4.91589 4.23491L4.93039 4.2059ZM23.5354 24.232C23.8834 24.232 24.1589 23.9565 24.1589 23.6084C24.1589 21.3463 24.1589 13.3996 24.1589 9.1653C24.1589 9.03479 24.1009 8.87527 24.0284 8.77377C23.0423 7.38166 21.1137 4.68444 20.5626 3.93038C20.4901 3.82887 20.3451 3.82887 20.2726 3.93038C19.7361 4.68444 17.8074 7.38166 16.8213 8.77377C16.7343 8.88978 16.6763 9.07829 16.6763 9.2233C16.6763 14.1392 16.6763 19.0406 16.6763 23.9565V24.232H19.5911C19.5911 23.3764 19.5911 22.5499 19.5911 21.7088C19.5911 20.8677 20.2581 20.1717 21.0992 20.0847C21.9402 20.0122 22.7088 20.5632 22.8828 21.3898C22.9118 21.5638 22.9263 21.7378 22.9263 21.9118C22.9263 22.6804 22.9263 23.4489 22.9263 24.232H23.5644H23.5354ZM12.732 5.91704C12.6015 5.78653 12.384 5.78653 12.2535 5.91704C11.6589 6.49709 10.1218 8.03421 9.30974 8.84627C9.19373 8.96228 9.15023 9.09279 9.15023 9.2523C9.15023 14.1537 9.15023 19.0551 9.15023 23.9565V24.232H10.3973V20.0992H14.5592V24.232H15.8063C15.8063 24.1595 15.8063 24.1015 15.8063 24.0435C15.8063 19.0986 15.8063 14.1537 15.8063 9.2088C15.8063 9.09279 15.7483 8.96228 15.6612 8.87527C15.1682 8.36773 14.6752 7.87469 14.1821 7.38166C13.7036 6.90312 13.225 6.42458 12.732 5.93154V5.91704ZM12.732 3.43734C12.6015 3.30683 12.3985 3.30683 12.268 3.43734C11.6734 4.01739 10.1073 5.56901 9.26624 6.42458C9.22273 6.46808 9.16473 6.54059 9.16473 6.59859C9.16473 6.99012 9.16473 7.38166 9.16473 7.84569C10.2233 6.78711 11.2384 5.77203 12.2825 4.72794C12.413 4.59743 12.6305 4.59743 12.761 4.72794C13.7906 5.75753 14.8057 6.77261 15.8353 7.80219C15.8353 7.43966 15.8353 7.09163 15.8353 6.7436C15.8353 6.62759 15.7628 6.46808 15.6902 6.39558C14.8927 5.58351 13.3411 4.04639 12.761 3.46634L12.732 3.43734ZM4.91589 2.77029C6.04698 4.35091 7.16357 5.91704 8.26566 7.46866C8.30916 7.25114 8.29466 7.04813 8.32366 6.84511C8.35266 6.58409 8.25116 6.36657 8.10614 6.14906C7.19257 4.87296 5.46693 2.46576 4.82888 1.58119C4.71287 1.40718 4.45185 1.40718 4.33584 1.58119C3.71229 2.46576 2.04466 4.80045 1.13109 6.01855C0.783062 6.48258 0.826566 6.94662 0.841067 7.51217C1.98666 5.90254 3.10325 4.35092 4.23434 2.75579C4.40835 2.52377 4.75638 2.52377 4.91589 2.75579V2.77029ZM20.5481 2.49477C21.7517 4.1769 22.9263 5.81553 24.1009 7.46866C24.1589 7.26565 24.1444 7.06263 24.1589 6.87411C24.1879 6.59859 24.0864 6.38108 23.9269 6.16356C22.9553 4.81495 21.0847 2.20474 20.5481 1.45068C20.4756 1.34918 20.3306 1.34918 20.2581 1.45068C19.7216 2.19024 17.8654 4.81495 16.8793 6.14906C16.5603 6.58409 16.7053 7.01913 16.7053 7.46866C17.8799 5.81553 19.0545 4.1769 20.2581 2.49477C20.3306 2.39326 20.4756 2.39326 20.5481 2.49477ZM22.0708 24.232C22.0708 24.1595 22.0708 24.087 22.0708 24.0145C22.0708 23.2894 22.0708 22.5644 22.0708 21.8248C22.0708 21.2738 21.7227 20.8967 21.2297 20.8967C20.7511 20.8967 20.4031 21.2738 20.4031 21.8103C20.4031 22.5499 20.4031 23.2894 20.4031 24.0145C20.4031 24.087 20.4031 24.145 20.4176 24.2175H22.0708V24.232ZM5.40893 24.232C5.40893 23.3909 5.40893 22.5934 5.40893 21.7813C5.40893 21.2738 5.0464 20.9112 4.56786 20.9112C4.08932 20.9112 3.7413 21.2883 3.7413 21.7958C3.7413 22.5499 3.7413 23.3039 3.7413 24.058C3.7413 24.116 3.7413 24.174 3.7558 24.232H5.39443H5.40893ZM11.2529 24.232H12.0505V20.9257H11.2529V24.232ZM13.7181 24.232V20.9257H12.9205V24.232H13.7181Z" fill="#515151"></path><path d="M5.81505 11.326H3.34985V7.17865H5.81505V11.326ZM4.19092 8.01972V8.81728H4.98848V8.01972H4.19092ZM4.19092 10.4849H5.00298V9.68735H4.19092V10.4849Z" fill="#515151"></path><path d="M2.90022 13.0226C2.90022 12.7984 2.72168 12.6166 2.50144 12.6166C2.2812 12.6166 2.10266 12.7984 2.10266 13.0226V15.0963C2.10266 15.3205 2.2812 15.5023 2.50144 15.5023C2.72168 15.5023 2.90022 15.3205 2.90022 15.0963V13.0226Z" fill="#515151"></path><path d="M4.98848 13.0081C4.98848 12.7839 4.80994 12.6021 4.5897 12.6021C4.36946 12.6021 4.19092 12.7839 4.19092 13.0081V15.0818C4.19092 15.306 4.36946 15.4878 4.5897 15.4878C4.80994 15.4878 4.98848 15.306 4.98848 15.0818V13.0081Z" fill="#515151"></path><path d="M2.90022 16.7639C2.90022 16.5397 2.72168 16.3579 2.50144 16.3579C2.2812 16.3579 2.10266 16.5397 2.10266 16.7639V18.8376C2.10266 19.0618 2.2812 19.2436 2.50144 19.2436C2.72168 19.2436 2.90022 19.0618 2.90022 18.8376V16.7639Z" fill="#515151"></path><path d="M4.98848 16.7639C4.98848 16.5397 4.80994 16.3579 4.5897 16.3579C4.36946 16.3579 4.19092 16.5397 4.19092 16.7639V18.8376C4.19092 19.0618 4.36946 19.2436 4.5897 19.2436C4.80994 19.2436 4.98848 19.0618 4.98848 18.8376V16.7639Z" fill="#515151"></path><path d="M7.06197 16.7639C7.06197 16.5397 6.88343 16.3579 6.66319 16.3579C6.44295 16.3579 6.2644 16.5397 6.2644 16.7639V18.8376C6.2644 19.0618 6.44295 19.2436 6.66319 19.2436C6.88343 19.2436 7.06197 19.0618 7.06197 18.8376V16.7639Z" fill="#515151"></path><path d="M7.06197 13.0226C7.06197 12.7984 6.88343 12.6166 6.66319 12.6166C6.44295 12.6166 6.2644 12.7984 6.2644 13.0226V15.0963C6.2644 15.3205 6.44295 15.5023 6.66319 15.5023C6.88343 15.5023 7.06197 15.3205 7.06197 15.0963V13.0226Z" fill="#515151"></path><path d="M19.1851 7.19318H21.6503V11.326H19.1851V7.19318ZM20.0116 8.01974V8.8173H20.8092V8.01974H20.0116ZM20.8237 9.68737H20.0116V10.4849H20.8237V9.68737Z" fill="#515151"></path><path d="M18.7356 13.0081C18.7356 12.7839 18.557 12.6021 18.3368 12.6021C18.1165 12.6021 17.938 12.7839 17.938 13.0081V15.0818C17.938 15.306 18.1165 15.4878 18.3368 15.4878C18.557 15.4878 18.7356 15.306 18.7356 15.0818V13.0081Z" fill="#515151"></path><path d="M20.4032 13.0081C20.4032 12.7839 20.2246 12.6021 20.0044 12.6021C19.7841 12.6021 19.6056 12.7839 19.6056 13.0081V15.0818C19.6056 15.306 19.7841 15.4878 20.0044 15.4878C20.2246 15.4878 20.4032 15.306 20.4032 15.0818V13.0081Z" fill="#515151"></path><path d="M22.8973 13.0226C22.8973 12.7984 22.7188 12.6166 22.4985 12.6166C22.2783 12.6166 22.0997 12.7984 22.0997 13.0226V15.0963C22.0997 15.3205 22.2783 15.5023 22.4985 15.5023C22.7188 15.5023 22.8973 15.3205 22.8973 15.0963V13.0226Z" fill="#515151"></path><path d="M18.721 16.7639C18.721 16.5397 18.5425 16.3579 18.3222 16.3579C18.102 16.3579 17.9235 16.5397 17.9235 16.7639V18.8376C17.9235 19.0618 18.102 19.2436 18.3222 19.2436C18.5425 19.2436 18.721 19.0618 18.721 18.8376V16.7639Z" fill="#515151"></path><path d="M20.3886 16.7639C20.3886 16.5397 20.2101 16.3579 19.9898 16.3579C19.7696 16.3579 19.5911 16.5397 19.5911 16.7639V18.8376C19.5911 19.0618 19.7696 19.2436 19.9898 19.2436C20.2101 19.2436 20.3886 19.0618 20.3886 18.8376V16.7639Z" fill="#515151"></path><path d="M22.8973 16.7639C22.8973 16.5397 22.7188 16.3579 22.4985 16.3579C22.2783 16.3579 22.0997 16.5397 22.0997 16.7639V18.8376C22.0997 19.0618 22.2783 19.2436 22.4985 19.2436C22.7188 19.2436 22.8973 19.0618 22.8973 18.8376V16.7639Z" fill="#515151"></path><path d="M18.721 20.9258C18.721 20.7015 18.5425 20.5197 18.3222 20.5197C18.102 20.5197 17.9235 20.7015 17.9235 20.9258V22.5789C17.9235 22.8032 18.102 22.9849 18.3222 22.9849C18.5425 22.9849 18.721 22.8032 18.721 22.5789V20.9258Z" fill="#515151"></path><path d="M12.5 11.3405C11.804 11.3405 11.2529 10.7749 11.2529 10.0789C11.2529 9.39733 11.8185 8.84628 12.5 8.84628C13.1961 8.84628 13.7616 9.41183 13.7471 10.1079C13.7471 10.7894 13.1816 11.3405 12.5 11.3405ZM12.9061 10.0934C12.9061 9.87587 12.7175 9.68735 12.5 9.67285C12.268 9.67285 12.065 9.86136 12.0795 10.0934C12.0795 10.3109 12.2825 10.4994 12.5 10.4994C12.7175 10.4994 12.9061 10.3109 12.9061 10.0789V10.0934Z" fill="#515151"></path><path d="M11.2384 16.7639C11.2384 16.5397 11.0598 16.3579 10.8396 16.3579C10.6193 16.3579 10.4408 16.5397 10.4408 16.7639V18.8376C10.4408 19.0618 10.6193 19.2436 10.8396 19.2436C11.0598 19.2436 11.2384 19.0618 11.2384 18.8376V16.7639Z" fill="#515151"></path><path d="M14.5592 16.7639C14.5592 16.5397 14.3806 16.3579 14.1604 16.3579C13.9401 16.3579 13.7616 16.5397 13.7616 16.7639V18.8376C13.7616 19.0618 13.9401 19.2436 14.1604 19.2436C14.3806 19.2436 14.5592 19.0618 14.5592 18.8376V16.7639Z" fill="#515151"></path><path d="M14.5592 13.0226C14.5592 12.7984 14.3806 12.6166 14.1604 12.6166C13.9401 12.6166 13.7616 12.7984 13.7616 13.0226V15.0963C13.7616 15.3205 13.9401 15.5023 14.1604 15.5023C14.3806 15.5023 14.5592 15.3205 14.5592 15.0963V13.0226Z" fill="#515151"></path><path d="M11.2238 13.0226C11.2238 12.7984 11.0453 12.6166 10.8251 12.6166C10.6048 12.6166 10.4263 12.7984 10.4263 13.0226V15.0963C10.4263 15.3205 10.6048 15.5023 10.8251 15.5023C11.0453 15.5023 11.2238 15.3205 11.2238 15.0963V13.0226Z" fill="#515151"></path></svg>