<svg xmlns="http://www.w3.org/2000/svg" width="25" height="25" viewBox="0 0 25 25" fill="none"><path d="M9.22422 9.1497C9.20321 9.1497 9.18219 9.1497 9.16117 9.14182C9.02194 9.11292 8.92212 8.98945 8.92212 8.84497V7.00083C8.92212 6.90101 8.96941 6.80906 9.05084 6.7539C9.13228 6.6961 9.23473 6.68297 9.32667 6.71712L10.057 6.97719C10.0701 6.98244 10.0832 6.9877 10.0964 6.99558C10.1542 7.0271 10.2198 7.04286 10.2855 7.04286C10.5088 7.04286 10.6927 6.8616 10.6927 6.63568V6.54636C10.6927 6.32307 10.5114 6.13918 10.2855 6.13918C10.1936 6.13918 10.1043 6.17071 10.0333 6.22587C10.0228 6.23375 10.0123 6.24163 9.99918 6.24952L9.37921 6.61204C9.28464 6.66721 9.16906 6.66721 9.07448 6.61204C8.97991 6.55687 8.92212 6.45705 8.92212 6.34934V5.20923C8.92212 4.72849 9.31354 4.33707 9.79428 4.33707H11.8302C12.0088 4.15319 12.4081 3.84058 13.0307 3.84058C13.1988 3.84058 13.3354 3.97718 13.3354 4.14531C13.3354 4.31343 13.1988 4.45004 13.0307 4.45004C12.4948 4.45004 12.2269 4.80468 12.2164 4.82044C12.1586 4.90188 12.0692 4.94653 11.9694 4.94653H9.7969C9.64979 4.94653 9.53158 5.06475 9.53158 5.21186V5.82394L9.67869 5.73725C9.8547 5.60591 10.0675 5.53498 10.2882 5.53498C10.8503 5.53498 11.3048 5.98944 11.3048 6.54899V6.63831C11.3048 7.19785 10.8503 7.65232 10.2908 7.65232C10.1358 7.65232 9.98079 7.61554 9.84156 7.54724L9.53421 7.43691V8.1173C9.59988 8.07789 9.66555 8.04374 9.72335 8.01485C10.0386 7.86248 10.3985 7.77579 10.7085 7.77579H11.9248C12.1192 7.77579 12.3109 7.81257 12.4922 7.8835L12.9361 8.0595C13.1516 8.14357 13.388 8.14619 13.6034 8.06739L13.7768 8.00434C14.3573 7.79155 14.7777 7.28192 14.8775 6.67509L14.8827 6.63831C14.9537 6.20748 14.8565 5.67421 14.6463 5.33533C14.557 5.19347 14.6017 5.00695 14.7435 4.91764C14.8854 4.82832 15.0719 4.87298 15.1612 5.01484C15.4449 5.47193 15.5736 6.16283 15.4791 6.73551L15.4738 6.77228C15.3372 7.59716 14.7672 8.28805 13.9817 8.57439L13.8083 8.63744C13.451 8.76879 13.0622 8.76353 12.7102 8.6243L12.2663 8.4483C12.1559 8.40364 12.0403 8.38262 11.9221 8.38262H10.7058C10.275 8.38262 9.65505 8.64269 9.50531 8.97632C9.4554 9.08665 9.34506 9.15495 9.22948 9.15495L9.22422 9.1497Z" fill="#515151"></path><path d="M14.4361 5.58488C14.268 5.58488 14.1314 5.44828 14.1314 5.28015C14.1314 5.11202 14.268 4.97542 14.4361 4.97542C14.5885 4.97542 14.7146 4.85195 14.7146 4.69696C14.7146 4.54197 14.5911 4.4185 14.4361 4.4185C14.423 4.4185 14.4204 4.4185 14.4072 4.4185C14.3547 4.4185 14.134 4.42638 14.0263 4.73374C13.9712 4.89136 13.7952 4.9728 13.6375 4.91763C13.4799 4.86246 13.3985 4.68645 13.4536 4.52884C13.6717 3.91675 14.1918 3.79328 14.4493 3.81167C14.93 3.81955 15.3188 4.2136 15.3188 4.69696C15.3188 5.18033 14.9221 5.58225 14.4335 5.58225L14.4361 5.58488Z" fill="#515151"></path><path d="M16.8267 15.7487C16.7821 15.7487 16.7374 15.7382 16.6954 15.7198C16.5903 15.6699 16.522 15.5622 16.522 15.4439C16.522 15.4334 16.5115 14.3853 15.7076 13.211C14.7304 11.7846 15.4607 10.7206 16.2356 9.59104C16.7768 8.80032 17.3915 7.90715 17.6279 6.69874C17.6595 6.53324 17.8197 6.42816 17.9826 6.45968C18.1481 6.4912 18.2532 6.65145 18.2216 6.81432C17.9616 8.1462 17.3101 9.09717 16.7348 9.93517C15.9703 11.049 15.4659 11.7846 16.2067 12.8669C16.7374 13.6392 16.9607 14.3643 17.0579 14.8476C18.0325 13.9728 18.8285 12.88 18.1533 11.2329C18.1008 11.1357 17.8539 10.6576 17.6358 9.91678C17.5885 9.75654 17.6805 9.58841 17.8407 9.54113C18.001 9.49384 18.1691 9.58579 18.2164 9.74603C18.4371 10.4921 18.6892 10.9518 18.6919 10.9571C18.6971 10.9676 18.7024 10.9781 18.7076 10.9886C19.128 12.0026 19.1069 12.9667 18.6472 13.852C18.2558 14.6059 17.6017 15.2023 17.0132 15.683C16.9581 15.7277 16.8898 15.7513 16.8215 15.7513L16.8267 15.7487Z" fill="#515151"></path><path d="M17.7462 7.72062C17.7146 7.72062 17.6805 7.71536 17.649 7.70486C17.4913 7.64969 17.4047 7.47894 17.4598 7.31869C17.9038 6.01308 17.8276 4.76264 17.2444 3.88523C16.7479 3.13654 15.8889 2.69784 14.7645 2.61903C13.6875 2.54284 12.7996 2.86859 12.1297 3.58838C11.62 4.13742 11.4256 4.72324 11.4256 4.72849C11.3757 4.88874 11.205 4.97543 11.0447 4.92551C10.8845 4.8756 10.7978 4.70485 10.8477 4.5446C10.8556 4.51571 11.0736 3.84057 11.6673 3.19433C12.219 2.59276 13.212 1.89923 14.8066 2.01219C16.1279 2.10677 17.1446 2.63742 17.7488 3.54898C18.4344 4.58138 18.5369 6.02622 18.0325 7.51309C17.9905 7.63918 17.8723 7.71799 17.7462 7.71799V7.72062Z" fill="#515151"></path><path d="M13.4484 12.1655C13.4221 12.1655 13.3959 12.1629 13.3696 12.155C13.2067 12.1103 13.1121 11.9448 13.1568 11.7819C13.296 11.2697 13.5587 10.7495 13.9423 10.2346C14.6437 9.29156 15.1454 8.48508 15.4344 7.84147C15.768 7.09278 15.7496 6.72238 15.6735 6.54112C15.6472 6.4807 15.571 6.29681 15.1638 6.23901C14.9983 6.21537 14.8827 6.06301 14.9064 5.89488C14.93 5.72938 15.0824 5.61379 15.2505 5.63744C15.8705 5.72675 16.1279 6.04987 16.2356 6.30732C16.5693 7.11117 15.9808 8.51398 14.4309 10.5972C14.0946 11.049 13.8635 11.5009 13.7453 11.9396C13.7085 12.0735 13.585 12.1629 13.4537 12.1629L13.4484 12.1655Z" fill="#515151"></path><path d="M14.3809 15.1996C14.3021 15.1996 14.2286 15.1707 14.1708 15.1156L14.1576 15.105C13.6664 14.648 13.3039 14.0595 13.141 13.45C13.099 13.2872 13.1935 13.1217 13.3564 13.0796C13.5193 13.0376 13.6848 13.1322 13.7268 13.2951C13.824 13.6628 14.0132 14.0227 14.2654 14.338C14.733 13.2373 15.4317 12.4938 15.4659 12.4571C15.5815 12.3362 15.7732 12.331 15.8941 12.4465C16.0149 12.5621 16.0202 12.7539 15.9046 12.8747C15.9046 12.8747 15.0613 13.7732 14.6647 14.9921C14.6331 15.0919 14.5517 15.1681 14.4492 15.1917C14.4256 15.197 14.3993 15.1996 14.3757 15.1996H14.3809Z" fill="#515151"></path><path d="M11.5806 11.3064C11.5438 11.3064 11.5071 11.2986 11.4703 11.2854C11.3153 11.225 11.2391 11.049 11.2995 10.8914C11.9589 9.21799 13.4642 8.14356 13.5298 8.0989C13.6664 8.0017 13.8556 8.03585 13.9528 8.17246C14.05 8.30906 14.0158 8.4982 13.8792 8.5954C13.8556 8.61116 12.4554 9.6173 11.8643 11.1147C11.817 11.2329 11.7041 11.3064 11.5832 11.3064H11.5806Z" fill="#515151"></path><path d="M10.1515 11.3826C10.1515 11.3826 10.1279 11.3826 10.1147 11.3826C9.94925 11.3643 9.82841 11.2119 9.84942 11.0464C10.1331 8.65321 11.9221 7.84936 11.9983 7.8152C12.1533 7.74953 12.3319 7.81783 12.3976 7.97282C12.4633 8.12519 12.395 8.30382 12.2426 8.37212C12.1769 8.40102 10.6927 9.08404 10.4536 11.1173C10.4352 11.2723 10.3039 11.3853 10.1515 11.3853V11.3826Z" fill="#515151"></path><path d="M14.2812 22.345C12.479 22.345 11.1445 21.8117 10.317 20.7583C9.40811 19.6025 9.18481 17.8292 9.68394 15.7697C10.099 14.0622 9.35819 12.662 8.52544 11.9212C7.83717 11.3091 7.04645 11.0858 6.40809 11.3248C6.26886 11.3774 6.1165 11.3222 6.04031 11.1935C5.96676 11.0674 5.99303 10.9045 6.10336 10.81C6.12175 10.7942 6.55783 10.4264 7.29864 10.2662C7.93174 10.1296 8.91423 10.1243 10.0859 10.8178C10.2987 10.6182 10.6691 10.3634 11.1183 10.4606C11.4519 10.5341 11.712 10.718 11.8959 11.007C12.1008 10.8783 12.3792 10.7784 12.684 10.8756C13.0228 10.986 13.2435 11.2487 13.3039 11.6033C13.5246 11.6164 13.8425 11.6532 14.1813 11.7478C15.0325 11.9842 15.6157 12.4702 15.8626 13.1532C15.8994 13.2557 15.8784 13.3713 15.8101 13.4527C15.7391 13.5368 15.6288 13.5735 15.5237 13.5551C15.5027 13.5499 13.2593 13.148 12.479 14.1699C12.043 14.7399 11.9379 15.5779 12.1927 16.4685C12.4817 17.4825 13.1936 18.3835 13.9213 18.6594C14.0789 18.7198 14.1577 18.8932 14.0973 19.0508C14.0368 19.2084 13.8635 19.2872 13.7058 19.2268C12.7943 18.8827 11.951 17.8424 11.6069 16.634C11.2995 15.5569 11.4414 14.5245 11.9957 13.7995C12.705 12.8748 14.1603 12.8222 15.0009 12.8826C14.3337 12.1655 13.0412 12.1996 13.0255 12.2023C12.9388 12.2049 12.8547 12.1707 12.7943 12.1103C12.7339 12.0473 12.705 11.9632 12.7102 11.8765C12.7365 11.5297 12.5552 11.472 12.4974 11.4536C12.3214 11.3958 12.0692 11.6296 12.0167 11.69C11.9458 11.7714 11.8381 11.8082 11.733 11.7898C11.6279 11.7714 11.5386 11.6952 11.5018 11.5954C11.4992 11.5875 11.4966 11.577 11.4913 11.5665C11.4204 11.3642 11.2995 11.1199 10.9869 11.0516C10.6874 10.986 10.388 11.38 10.3853 11.3853C10.2908 11.5166 10.1095 11.5481 9.97291 11.4614C9.14803 10.9203 8.42824 10.7784 7.86344 10.8047C8.22859 10.9466 8.59111 11.1698 8.92737 11.4667C9.48954 11.9658 9.91774 12.6226 10.1673 13.3607C10.4431 14.1777 10.4799 15.0604 10.2724 15.9142C9.81529 17.7872 9.99918 19.3765 10.7925 20.3827C11.4992 21.2811 12.6708 21.7356 14.2785 21.7356C15.3871 21.7356 16.2724 21.3573 16.9029 20.6138C18.2216 19.0613 18.2952 16.1138 17.9589 14.0622C17.9484 14.0017 17.9589 13.9387 17.9852 13.8809C17.9983 13.852 19.4195 10.8441 19.0045 7.45267C18.5999 4.13743 16.7558 3.3073 16.7374 3.29942C16.5824 3.23375 16.5115 3.05511 16.5798 2.90012C16.6454 2.74513 16.8241 2.6742 16.9791 2.7425C17.0684 2.78191 19.1621 3.72236 19.6087 7.37912C20.0106 10.6628 18.8206 13.5157 18.5763 14.0569C18.6656 14.6375 18.8206 15.9483 18.6787 17.401C18.5264 18.9536 18.085 20.1673 17.3705 21.0079C16.6165 21.8958 15.5789 22.345 14.2812 22.345Z" fill="#515151"></path><path d="M14.1577 16.9807C13.6586 16.9807 13.254 16.5762 13.254 16.0771C13.254 15.9089 13.3906 15.7723 13.5588 15.7723C13.7269 15.7723 13.8635 15.9089 13.8635 16.0771C13.8635 16.2452 13.9975 16.3739 14.1603 16.3739C14.3232 16.3739 14.4572 16.2399 14.4572 16.0771C14.4572 15.9142 14.5938 15.7723 14.7619 15.7723C14.93 15.7723 15.0666 15.9089 15.0666 16.0771C15.0666 16.5762 14.6621 16.9807 14.163 16.9807H14.1577Z" fill="#515151"></path><path d="M16.5561 19.19C16.057 19.19 15.6525 18.7855 15.6525 18.2863C15.6525 18.1182 15.7891 17.9816 15.9572 17.9816C16.1253 17.9816 16.2619 18.1182 16.2619 18.2863C16.2619 18.4545 16.3959 18.5832 16.5588 18.5832C16.7216 18.5832 16.8556 18.4492 16.8556 18.2863C16.8556 18.1235 16.9922 17.9816 17.1604 17.9816C17.3285 17.9816 17.4651 18.1182 17.4651 18.2863C17.4651 18.7855 17.0605 19.19 16.5614 19.19H16.5561Z" fill="#515151"></path><path d="M15.6866 19.9282C15.1875 19.9282 14.7829 19.5236 14.7829 19.0245C14.7829 18.8564 14.9195 18.7198 15.0876 18.7198C15.2558 18.7198 15.3897 18.8564 15.3897 19.0245C15.3897 19.1926 15.5237 19.3214 15.6866 19.3214C15.8495 19.3214 15.9834 19.1874 15.9834 19.0245C15.9834 18.8616 16.12 18.7198 16.2882 18.7198C16.4563 18.7198 16.5929 18.8564 16.5929 19.0245C16.5929 19.5236 16.1883 19.9282 15.6892 19.9282H15.6866Z" fill="#515151"></path><path d="M7.60863 7.10066C7.81755 7.10066 7.98692 6.93129 7.98692 6.72237C7.98692 6.51345 7.81755 6.34409 7.60863 6.34409C7.39971 6.34409 7.23035 6.51345 7.23035 6.72237C7.23035 6.93129 7.39971 7.10066 7.60863 7.10066Z" fill="#515151"></path><path d="M6.44219 8.46931C6.65111 8.46931 6.82047 8.29994 6.82047 8.09102C6.82047 7.8821 6.65111 7.71274 6.44219 7.71274C6.23327 7.71274 6.0639 7.8821 6.0639 8.09102C6.0639 8.29994 6.23327 8.46931 6.44219 8.46931Z" fill="#515151"></path><path d="M5.02898 9.1497C5.2379 9.1497 5.40727 8.98033 5.40727 8.77141C5.40727 8.56249 5.2379 8.39313 5.02898 8.39313C4.82006 8.39313 4.6507 8.56249 4.6507 8.77141C4.6507 8.98033 4.82006 9.1497 5.02898 9.1497Z" fill="#515151"></path><path d="M3.65508 10.1926C3.864 10.1926 4.03337 10.0232 4.03337 9.81432C4.03337 9.6054 3.864 9.43604 3.65508 9.43604C3.44616 9.43604 3.27679 9.6054 3.27679 9.81432C3.27679 10.0232 3.44616 10.1926 3.65508 10.1926Z" fill="#515151"></path><path d="M1.53765 9.61463C1.74657 9.61463 1.91593 9.44527 1.91593 9.23635C1.91593 9.02743 1.74657 8.85806 1.53765 8.85806C1.32873 8.85806 1.15936 9.02743 1.15936 9.23635C1.15936 9.44527 1.32873 9.61463 1.53765 9.61463Z" fill="#515151"></path><path d="M2.48339 11.6401C2.69231 11.6401 2.86167 11.4707 2.86167 11.2618C2.86167 11.0529 2.69231 10.8835 2.48339 10.8835C2.27447 10.8835 2.1051 11.0529 2.1051 11.2618C2.1051 11.4707 2.27447 11.6401 2.48339 11.6401Z" fill="#515151"></path><path d="M6.02196 7.10066C6.23088 7.10066 6.40025 6.93129 6.40025 6.72237C6.40025 6.51345 6.23088 6.34409 6.02196 6.34409C5.81304 6.34409 5.64368 6.51345 5.64368 6.72237C5.64368 6.93129 5.81304 7.10066 6.02196 7.10066Z" fill="#515151"></path><path d="M4.43529 7.5052C4.64421 7.5052 4.81358 7.33583 4.81358 7.12691C4.81358 6.91799 4.64421 6.74863 4.43529 6.74863C4.22637 6.74863 4.05701 6.91799 4.05701 7.12691C4.05701 7.33583 4.22637 7.5052 4.43529 7.5052Z" fill="#515151"></path><path d="M2.8485 8.31431C3.05742 8.31431 3.22679 8.14495 3.22679 7.93602C3.22679 7.7271 3.05742 7.55774 2.8485 7.55774C2.63958 7.55774 2.47021 7.7271 2.47021 7.93602C2.47021 8.14495 2.63958 8.31431 2.8485 8.31431Z" fill="#515151"></path><path d="M11.7408 5.4483H12.4107" stroke="#515151" stroke-width="0.262698" stroke-linecap="round" stroke-linejoin="round"></path><path d="M2.03937 24H24.684" stroke="#515151" stroke-width="0.525396" stroke-linecap="round" stroke-linejoin="round"></path><path d="M17.8669 19.8284C19.493 20.7504 20.8722 22.0849 21.9203 23.6296" stroke="#515151" stroke-width="0.525396" stroke-linecap="round" stroke-linejoin="round"></path><path d="M4.80298 23.6296C6.0508 21.8012 7.76884 20.2671 9.80475 19.3713" stroke="#515151" stroke-width="0.525396" stroke-linecap="round" stroke-linejoin="round"></path></svg>