<svg width="25" height="25" viewBox="0 0 25 25" fill="none" xmlns="http://www.w3.org/2000/svg"><path d="M11.1899 6.01004L11.1399 4.25004C11.1399 3.41004 11.8199 2.73004 12.6599 2.73004C13.4999 2.73004 14.1799 3.41004 14.1799 4.25004V5.96004L14.1299 6.01004H11.1799H11.1899Z" fill="white"></path><path d="M11.1899 6.00005L11.1499 4.25005C11.1499 3.42005 11.8299 2.74005 12.6599 2.74005C13.4899 2.74005 14.1699 3.42005 14.1699 4.25005V5.96005L14.1299 6.00005H11.1799H11.1899Z" fill="white"></path><path d="M11.1899 5.99L11.1599 4.25C11.1599 3.42 11.8299 2.75 12.6599 2.75C13.4899 2.75 14.1599 3.42 14.1599 4.25V5.96L14.1299 5.99H11.1799H11.1899Z" fill="white"></path><path d="M11.1899 5.98001L11.1699 4.25001C11.1699 3.43001 11.8399 2.76001 12.6599 2.76001C13.4799 2.76001 14.1499 3.43001 14.1499 4.25001V5.96001C14.1499 5.96001 14.1499 5.98001 14.1299 5.98001H11.1799H11.1899Z" fill="white"></path><path d="M11.1899 5.99L11.1599 4.25C11.1599 3.42 11.8299 2.75 12.6599 2.75C13.4899 2.75 14.1599 3.42 14.1599 4.25V5.96L14.1299 5.99H11.1799H11.1899Z" fill="white"></path><path d="M11.1899 5.98001L11.1699 4.25001C11.1699 3.43001 11.8399 2.76001 12.6599 2.76001C13.4799 2.76001 14.1499 3.43001 14.1499 4.25001V5.96001C14.1499 5.96001 14.1499 5.98001 14.1299 5.98001H11.1799H11.1899Z" fill="white"></path><path d="M11.1899 5.97002V4.25002C11.1899 3.43002 11.8499 2.77002 12.6599 2.77002C13.4699 2.77002 14.1399 3.44002 14.1399 4.25002V5.96002H11.1899V5.97002Z" fill="white"></path><path d="M12.67 2.77002C11.86 2.77002 11.2 3.43002 11.2 4.24002V5.95002H14.15V4.24002C14.15 3.43002 13.49 2.77002 12.68 2.77002H12.67Z" fill="white"></path><path d="M11.1899 6.21003C11.0499 6.21003 10.9399 6.10003 10.9399 5.96003V4.25003C10.9399 3.30003 11.7099 2.53003 12.6599 2.53003C13.6099 2.53003 14.3799 3.30003 14.3799 4.25003V5.96003C14.3799 6.10003 14.2699 6.21003 14.1299 6.21003H11.1799H11.1899ZM12.6699 3.02003C11.9999 3.02003 11.4499 3.57003 11.4499 4.24003V5.75003L13.9499 5.70003L13.8999 4.24003C13.8999 3.56003 13.3499 3.01003 12.6699 3.01003V3.02003Z" fill="#515151"></path><path d="M11.19 6.20004C11.06 6.20004 10.95 6.09004 10.95 5.96004V4.25004C10.95 3.30004 11.72 2.54004 12.66 2.54004C13.6 2.54004 14.37 3.31004 14.37 4.25004V5.96004C14.37 6.09004 14.26 6.20004 14.13 6.20004H11.18H11.19ZM12.67 3.01004C11.99 3.01004 11.44 3.56004 11.44 4.24004V5.75004L13.95 5.71004L13.91 4.24004C13.91 3.56004 13.36 3.01004 12.67 3.01004Z" fill="#515151"></path><path d="M11.19 6.19005C11.06 6.19005 10.96 6.09005 10.96 5.96005V4.25005C10.96 3.31005 11.72 2.55005 12.66 2.55005C13.6 2.55005 14.36 3.31005 14.36 4.25005V5.96005C14.36 6.09005 14.26 6.19005 14.13 6.19005H11.18H11.19ZM12.67 3.00005C11.98 3.00005 11.43 3.56005 11.43 4.24005V5.75005L13.95 5.72005L13.92 4.24005C13.92 3.55005 13.36 3.00005 12.67 3.00005Z" fill="#515151"></path><path d="M11.19 6.18006C11.07 6.18006 10.97 6.08006 10.97 5.96006V4.25006C10.97 3.32006 11.73 2.56006 12.66 2.56006C13.59 2.56006 14.35 3.32006 14.35 4.25006V5.96006C14.35 6.08006 14.25 6.18006 14.13 6.18006H11.18H11.19ZM12.67 2.99006C11.98 2.99006 11.42 3.55006 11.42 4.24006V5.75006L13.95 5.73006L13.93 4.24006C13.93 3.55006 13.37 2.99006 12.68 2.99006H12.67Z" fill="#515151"></path><path d="M11.19 6.19005C11.06 6.19005 10.96 6.09005 10.96 5.96005V4.25005C10.96 3.31005 11.72 2.55005 12.66 2.55005C13.6 2.55005 14.36 3.31005 14.36 4.25005V5.96005C14.36 6.09005 14.26 6.19005 14.13 6.19005H11.18H11.19ZM12.67 3.00005C11.98 3.00005 11.43 3.56005 11.43 4.24005V5.75005L13.95 5.72005L13.92 4.24005C13.92 3.55005 13.36 3.00005 12.67 3.00005Z" fill="#515151"></path><path d="M11.19 6.18006C11.07 6.18006 10.97 6.08006 10.97 5.96006V4.25006C10.97 3.32006 11.73 2.56006 12.66 2.56006C13.59 2.56006 14.35 3.32006 14.35 4.25006V5.96006C14.35 6.08006 14.25 6.18006 14.13 6.18006H11.18H11.19ZM12.67 2.99006C11.98 2.99006 11.42 3.55006 11.42 4.24006V5.75006L13.95 5.73006L13.93 4.24006C13.93 3.55006 13.37 2.99006 12.68 2.99006H12.67Z" fill="#515151"></path><path d="M11.19 6.17001C11.07 6.17001 10.98 6.08001 10.98 5.96001V4.25001C10.98 3.32001 11.73 2.57001 12.66 2.57001C13.59 2.57001 14.34 3.33001 14.34 4.25001V5.96001C14.34 6.08001 14.25 6.17001 14.13 6.17001H11.18H11.19ZM12.67 2.98001C11.97 2.98001 11.41 3.55001 11.41 4.24001V5.75001H13.95V4.24001C13.95 3.54001 13.38 2.98001 12.69 2.98001H12.67Z" fill="#515151"></path><path d="M14.14 6.16002H11.19C11.08 6.16002 10.99 6.07002 10.99 5.96002V4.25002C10.99 3.33002 11.74 2.58002 12.66 2.58002C13.58 2.58002 14.33 3.33002 14.33 4.25002V5.96002C14.33 6.07002 14.24 6.16002 14.13 6.16002H14.14ZM11.39 5.76002H13.94V4.25002C13.94 3.55002 13.37 2.98002 12.67 2.98002C11.97 2.98002 11.4 3.55002 11.4 4.25002V5.76002H11.39Z" fill="#515151"></path><path d="M10.91 8.36997L10.86 5.80997L12.67 4.96997L14.45 5.76997L14.47 8.31997L14.43 8.36997H10.91Z" fill="white"></path><path d="M10.91 8.35998L10.87 5.80998L12.67 4.97998L14.44 5.76998L14.46 8.31998L14.43 8.35998H10.91Z" fill="white"></path><path d="M10.91 8.34999L10.88 5.80999L12.68 4.98999L14.44 5.77999L14.46 8.31999L14.43 8.34999H10.91Z" fill="white"></path><path d="M10.91 8.34L10.89 5.81L12.68 5L14.43 5.79V8.32V8.34H10.91Z" fill="white"></path><path d="M10.91 8.34999L10.88 5.80999L12.68 4.98999L14.44 5.77999L14.45 8.31999L14.42 8.34999H10.91Z" fill="white"></path><path d="M10.91 8.34L10.89 5.81L12.68 5L14.43 5.79V8.32V8.34H10.91Z" fill="white"></path><path d="M10.91 8.32995V5.80995L12.69 5.00995L14.43 5.79995V8.31995H10.91V8.32995Z" fill="white"></path><path d="M12.69 5.01996L10.91 5.80996V8.31996H14.43V5.80996L12.69 5.01996Z" fill="white"></path><path d="M10.91 8.56998C10.77 8.56998 10.66 8.45998 10.66 8.31998V5.80998C10.66 5.70998 10.72 5.61998 10.81 5.57998L12.59 4.78998L12.78 4.80998L14.53 5.58998C14.62 5.62998 14.68 5.71998 14.68 5.81998V8.32998C14.68 8.46998 14.57 8.57998 14.43 8.57998H10.91V8.56998ZM11.13 5.98998L11.16 8.12998L14.23 8.07998L14.18 5.94998L12.69 5.29998L11.13 5.98998Z" fill="#515151"></path><path d="M10.91 8.55999C10.78 8.55999 10.67 8.44999 10.67 8.31999V5.80999C10.67 5.70999 10.73 5.62999 10.81 5.58999L12.59 4.79999L12.77 4.81999L14.52 5.59999C14.61 5.63999 14.66 5.71999 14.66 5.81999V8.32999C14.66 8.45999 14.55 8.56999 14.42 8.56999H10.9L10.91 8.55999ZM11.12 5.97999L11.14 8.12999L14.22 8.08999L14.18 5.94999L12.68 5.28999L11.12 5.97999Z" fill="#515151"></path><path d="M10.9101 8.55C10.7801 8.55 10.6801 8.45 10.6801 8.32V5.81C10.6801 5.72 10.7301 5.64 10.8201 5.6L12.6001 4.81L12.7801 4.83L14.5301 5.6C14.6101 5.64 14.6601 5.72 14.6601 5.81V8.32C14.6601 8.45 14.5601 8.55 14.4301 8.55H10.9101ZM11.1201 5.97L11.1401 8.12L14.2301 8.09L14.2001 5.94L12.6901 5.27L11.1201 5.97Z" fill="#515151"></path><path d="M10.9101 8.54001C10.7901 8.54001 10.6901 8.44001 10.6901 8.32001V5.81001C10.6901 5.72001 10.7401 5.64001 10.8201 5.61001L12.6001 4.82001L12.7701 4.84001V4.82001L14.5201 5.61001C14.6001 5.65001 14.6501 5.72001 14.6501 5.81001V8.32001C14.6501 8.44001 14.5501 8.54001 14.4301 8.54001H10.9101ZM11.1201 5.96001V8.12001L14.2301 8.10001L14.2101 5.94001L12.6901 5.26001L11.1201 5.96001Z" fill="#515151"></path><path d="M10.9101 8.55C10.7801 8.55 10.6801 8.45 10.6801 8.32V5.81C10.6801 5.72 10.7301 5.64 10.8201 5.6L12.6001 4.81H12.7801L14.5201 5.6C14.6001 5.64 14.6501 5.72 14.6501 5.81V8.32C14.6501 8.45 14.5501 8.55 14.4201 8.55H10.9001H10.9101ZM11.1201 5.97L11.1401 8.12L14.2301 8.09L14.2001 5.94L12.6901 5.27L11.1201 5.97Z" fill="#515151"></path><path d="M10.9101 8.54001C10.7901 8.54001 10.6901 8.44001 10.6901 8.32001V5.81001C10.6901 5.72001 10.7401 5.64001 10.8201 5.61001L12.6001 4.82001H12.7801L14.5201 5.61001C14.6001 5.65001 14.6501 5.72001 14.6501 5.81001V8.32001C14.6501 8.44001 14.5501 8.54001 14.4301 8.54001H10.9101ZM11.1201 5.96001V8.12001L14.2301 8.10001L14.2101 5.94001L12.6901 5.26001L11.1201 5.96001Z" fill="#515151"></path><path d="M10.9101 8.52996C10.7901 8.52996 10.7001 8.43996 10.7001 8.31996V5.80996C10.7001 5.72996 10.7501 5.64996 10.8201 5.61996L12.6001 4.82996H12.7701L14.5101 5.61996C14.5901 5.64996 14.6301 5.72996 14.6301 5.80996V8.31996C14.6301 8.43996 14.5401 8.52996 14.4201 8.52996H10.9001H10.9101ZM11.1101 5.94996V8.11996H14.2201V5.94996L12.6801 5.25996L11.1001 5.95996L11.1101 5.94996Z" fill="#515151"></path><path d="M14.4301 8.51995H10.9101C10.8001 8.51995 10.7101 8.42995 10.7101 8.31995V5.80995C10.7101 5.72995 10.7601 5.65995 10.8301 5.62995L12.6101 4.83995C12.6601 4.81995 12.7201 4.81995 12.7701 4.83995L14.5101 5.62995C14.5801 5.65995 14.6301 5.72995 14.6301 5.80995V8.31995C14.6301 8.42995 14.5401 8.51995 14.4301 8.51995ZM11.1101 8.11995H14.2301V5.93995L12.6901 5.23995L11.1101 5.93995V8.11995Z" fill="#515151"></path><path d="M2.03003 13.75L2.81003 10.59L21.99 10.56L23.67 13.68L23.63 13.75H2.03003Z" fill="white"></path><path d="M2.03003 13.74L2.82003 10.59L21.99 10.56L23.66 13.68L23.63 13.74H2.03003Z" fill="white"></path><path d="M2.03003 13.73L2.83003 10.6L21.99 10.58L23.65 13.69L23.63 13.73H2.03003Z" fill="white"></path><path d="M2.03003 13.72L2.84003 10.6H21.99L23.65 13.69C23.65 13.69 23.65 13.7 23.65 13.71C23.65 13.71 23.64 13.71 23.63 13.71H2.03003V13.72Z" fill="white"></path><path d="M2.03003 13.73L2.83003 10.6L21.99 10.58L23.65 13.69L23.63 13.73H2.03003Z" fill="white"></path><path d="M2.03003 13.72L2.84003 10.6H21.99L23.65 13.69C23.65 13.69 23.65 13.7 23.65 13.71C23.65 13.71 23.64 13.71 23.63 13.71H2.03003V13.72Z" fill="white"></path><path d="M2.03003 13.71L2.84003 10.6H21.99L23.64 13.7V13.71H23.63H2.03003Z" fill="white"></path><path d="M23.63 13.7H2.03003L2.85003 10.61H21.99L23.63 13.7Z" fill="white"></path><path d="M2.03005 13.95C1.95005 13.95 1.88005 13.91 1.83005 13.85C1.78005 13.79 1.77005 13.71 1.79005 13.63L2.62005 10.53C2.65005 10.42 2.75005 10.34 2.86005 10.34H21.9901C22.0801 10.34 22.1701 10.39 22.2101 10.47L23.8501 13.57C23.8901 13.65 23.8901 13.74 23.8501 13.82C23.8001 13.9 23.7201 13.94 23.6301 13.94H2.03005V13.95ZM3.02005 10.86L2.33005 13.52L23.2901 13.46L21.8301 10.85H3.02005V10.86Z" fill="#515151"></path><path d="M2.03006 13.94C1.95006 13.94 1.89006 13.91 1.84006 13.85C1.79006 13.79 1.78006 13.72 1.80006 13.64L2.63006 10.54C2.66006 10.44 2.76006 10.36 2.86006 10.36H21.9901C22.0801 10.36 22.1601 10.41 22.2001 10.49L23.8401 13.59C23.8801 13.67 23.8801 13.75 23.8401 13.83C23.8001 13.9 23.7201 13.95 23.6301 13.95H2.03006V13.94ZM3.02006 10.85L2.32006 13.52L23.2901 13.47L21.8301 10.84H3.02006V10.85Z" fill="#515151"></path><path d="M2.03009 13.9301C1.96009 13.9301 1.89009 13.9001 1.85009 13.8401C1.81009 13.7801 1.79009 13.7101 1.81009 13.6401L2.64009 10.5401C2.67009 10.4401 2.76009 10.3701 2.86009 10.3701H21.9901C22.0701 10.3701 22.1501 10.4201 22.1901 10.4901L23.8301 13.5901C23.8701 13.6601 23.8701 13.7501 23.8301 13.8201C23.7901 13.8901 23.7101 13.9301 23.6301 13.9301H2.03009ZM3.02009 10.8401L2.31009 13.5201L23.2901 13.4801L21.8401 10.8301H3.02009V10.8401Z" fill="#515151"></path><path d="M2.0301 13.92C1.9601 13.92 1.9001 13.89 1.8601 13.83C1.8201 13.78 1.8001 13.71 1.8201 13.64L2.6501 10.54C2.6801 10.44 2.7701 10.38 2.8601 10.38H21.9901C22.0701 10.38 22.1501 10.42 22.1901 10.5L23.8301 13.6C23.8701 13.67 23.8601 13.75 23.8301 13.82C23.7901 13.89 23.7201 13.93 23.6401 13.93H2.0301V13.92ZM2.3101 13.51L23.3001 13.48L21.8501 10.81H3.0201L2.3001 13.5L2.3101 13.51Z" fill="#515151"></path><path d="M2.03009 13.9301C1.96009 13.9301 1.89009 13.9001 1.85009 13.8401C1.81009 13.7901 1.79009 13.7101 1.81009 13.6401L2.64009 10.5401C2.67009 10.4401 2.76009 10.3701 2.86009 10.3701H21.9901C22.0801 10.3701 22.1501 10.4201 22.1901 10.4901L23.8301 13.5901C23.8701 13.6601 23.8701 13.7501 23.8301 13.8201C23.7901 13.8901 23.7101 13.9301 23.6301 13.9301H2.03009ZM3.02009 10.8401L2.31009 13.5101L23.2901 13.4701L21.8401 10.8201H3.02009V10.8401Z" fill="#515151"></path><path d="M2.0301 13.92C1.9601 13.92 1.9001 13.89 1.8601 13.83C1.8201 13.78 1.8001 13.71 1.8201 13.64L2.6501 10.54C2.6801 10.44 2.7601 10.38 2.8601 10.38H21.9901C22.0701 10.38 22.1501 10.42 22.1801 10.5L23.8201 13.6C23.8601 13.67 23.8501 13.75 23.8201 13.82C23.7801 13.89 23.7101 13.93 23.6301 13.93H2.0301V13.92ZM2.3101 13.51L23.3001 13.49L21.8601 10.82H3.0201L2.3001 13.51H2.3101Z" fill="#515151"></path><path d="M2.03001 13.91C1.96001 13.91 1.90001 13.88 1.86001 13.83C1.82001 13.78 1.81001 13.71 1.82001 13.65L2.65001 10.55C2.67001 10.46 2.76001 10.39 2.85001 10.39H21.98C22.06 10.39 22.13 10.43 22.17 10.5L23.81 13.6C23.85 13.67 23.84 13.74 23.81 13.81C23.77 13.87 23.7 13.91 23.63 13.91H2.03001ZM2.30001 13.5H23.3L21.86 10.81H3.02001L2.30001 13.5Z" fill="#515151"></path><path d="M23.6301 13.9H2.03008C1.97008 13.9 1.91008 13.87 1.87008 13.82C1.83008 13.77 1.82008 13.71 1.84008 13.65L2.67008 10.55C2.69008 10.46 2.77008 10.4 2.86008 10.4H21.9901C22.0601 10.4 22.1301 10.44 22.1701 10.51L23.8101 13.61C23.8401 13.67 23.8401 13.75 23.8101 13.81C23.7701 13.87 23.7101 13.91 23.6401 13.91L23.6301 13.9ZM2.29008 13.5H23.3001L21.8701 10.8H3.01008L2.29008 13.5Z" fill="#515151"></path><path d="M18.85 13.74L21.56 10.07V9.57001C21.56 9.43001 21.66 9.32001 21.8 9.32001C21.94 9.32001 22.05 9.43001 22.05 9.57001V10.12L24.63 13.68L18.9 13.76C18.9 13.76 18.86 13.73 18.85 13.73V13.74Z" fill="white"></path><path d="M18.89 13.76C18.89 13.76 18.86 13.74 18.85 13.74L21.56 10.08V9.57997C21.56 9.44997 21.66 9.33997 21.79 9.33997C21.92 9.33997 22.03 9.44997 22.03 9.57997V10.13L24.61 13.7L18.88 13.77L18.89 13.76Z" fill="white"></path><path d="M18.86 13.73L21.57 10.08V9.56997C21.57 9.43997 21.67 9.33997 21.79 9.33997C21.91 9.33997 22.02 9.43997 22.02 9.56997V10.12L24.6 13.69L18.88 13.74C18.88 13.74 18.85 13.73 18.85 13.72L18.86 13.73Z" fill="white"></path><path d="M18.89 13.74C18.89 13.74 18.88 13.74 18.87 13.73C18.87 13.73 18.87 13.72 18.87 13.71L21.58 10.09V9.56997C21.58 9.44997 21.67 9.34998 21.8 9.34998C21.93 9.34998 22.02 9.44997 22.02 9.56997V10.12L24.6 13.7L18.89 13.74Z" fill="white"></path><path d="M18.87 13.73L21.58 10.08V9.56997C21.58 9.43997 21.68 9.33997 21.8 9.33997C21.92 9.33997 22.03 9.43997 22.03 9.56997V10.12L24.61 13.69L18.89 13.74C18.89 13.74 18.86 13.73 18.86 13.72L18.87 13.73Z" fill="white"></path><path d="M18.89 13.74C18.89 13.74 18.88 13.74 18.87 13.73C18.87 13.73 18.87 13.72 18.87 13.71L21.58 10.09V9.56997C21.58 9.44997 21.67 9.34998 21.8 9.34998C21.93 9.34998 22.02 9.44997 22.02 9.56997V10.12L24.6 13.7L18.89 13.74Z" fill="white"></path><path d="M18.88 13.72C18.88 13.72 18.88 13.72 18.88 13.71L21.59 10.09V9.56999C21.59 9.44999 21.68 9.35999 21.8 9.35999C21.92 9.35999 22.01 9.44999 22.01 9.56999V10.12L24.59 13.71L18.89 13.73L18.88 13.72Z" fill="white"></path><path d="M24.58 13.71L22 10.12V9.56999C22 9.45999 21.91 9.37 21.8 9.37C21.69 9.37 21.6 9.45999 21.6 9.56999V10.1L18.89 13.72H24.58V13.71Z" fill="white"></path><path d="M18.89 13.97C18.8 13.97 18.71 13.92 18.67 13.83C18.63 13.75 18.63 13.65 18.69 13.57L21.36 10V9.56999C21.36 9.31999 21.55 9.12 21.8 9.12C22.05 9.12 22.25 9.31999 22.25 9.56999V10.06L24.79 13.57C24.85 13.65 24.85 13.75 24.81 13.83C24.77 13.91 24.68 13.97 24.59 13.97H18.9H18.89ZM19.33 13.54L24.19 13.46L21.79 10.26V10.24C21.62 10.47 19.32 13.54 19.32 13.54H19.33Z" fill="#515151"></path><path d="M18.89 13.96C18.8 13.96 18.72 13.91 18.68 13.83C18.64 13.75 18.65 13.65 18.7 13.58L21.37 10.01V9.57C21.37 9.33 21.56 9.13 21.8 9.13C22.04 9.13 22.24 9.33 22.24 9.57V10.06L24.78 13.58C24.83 13.65 24.84 13.75 24.8 13.83C24.76 13.91 24.68 13.96 24.59 13.96H18.9H18.89ZM19.32 13.54L24.19 13.47L21.8 10.26V10.22C21.65 10.41 20.39 12.1 19.32 13.53V13.54Z" fill="#515151"></path><path d="M18.89 13.95C18.8 13.95 18.72 13.9 18.68 13.82C18.64 13.74 18.65 13.65 18.7 13.58L21.37 10.01V9.57001C21.37 9.33001 21.56 9.14001 21.79 9.14001C22.02 9.14001 22.22 9.33001 22.22 9.57001V10.06L24.76 13.58C24.81 13.65 24.82 13.74 24.78 13.82C24.74 13.9 24.66 13.94 24.58 13.94H18.89V13.95ZM19.31 13.53L24.19 13.48L21.81 10.25L21.79 10.21C21.68 10.36 19.87 12.78 19.31 13.53Z" fill="#515151"></path><path d="M18.89 13.94C18.81 13.94 18.73 13.89 18.69 13.82C18.65 13.74 18.66 13.66 18.71 13.59L21.38 10.02V9.57002C21.38 9.34002 21.56 9.15002 21.8 9.15002C22.04 9.15002 22.22 9.34002 22.22 9.57002V10.06L24.76 13.59C24.81 13.66 24.81 13.75 24.78 13.82C24.74 13.89 24.67 13.94 24.58 13.94H18.89ZM19.31 13.53L24.2 13.49L21.83 10.25C21.83 10.25 21.81 10.22 21.8 10.2L19.31 13.53Z" fill="#515151"></path><path d="M18.89 13.95C18.8 13.95 18.72 13.9 18.68 13.82C18.64 13.74 18.65 13.65 18.7 13.58L21.37 10.01V9.57001C21.37 9.33001 21.56 9.14001 21.79 9.14001C22.02 9.14001 22.22 9.33001 22.22 9.57001V10.06L24.76 13.58C24.81 13.65 24.82 13.74 24.78 13.82C24.74 13.9 24.66 13.94 24.57 13.94H18.88L18.89 13.95ZM19.31 13.53L24.19 13.48L21.81 10.25V10.21C21.68 10.36 19.56 13.2 19.31 13.53Z" fill="#515151"></path><path d="M18.89 13.94C18.81 13.94 18.73 13.89 18.69 13.82C18.65 13.75 18.66 13.66 18.71 13.59L21.38 10.02V9.57002C21.38 9.34002 21.56 9.15002 21.8 9.15002C22.04 9.15002 22.22 9.34002 22.22 9.57002V10.06L24.76 13.59C24.81 13.66 24.81 13.75 24.78 13.82C24.75 13.89 24.67 13.94 24.58 13.94H18.89ZM19.31 13.53L24.2 13.5L21.83 10.26C21.83 10.26 21.81 10.23 21.8 10.21L19.31 13.54V13.53Z" fill="#515151"></path><path d="M18.89 13.93C18.81 13.93 18.74 13.89 18.7 13.81C18.66 13.74 18.67 13.65 18.72 13.59L21.39 10.02V9.56003C21.39 9.33003 21.57 9.15002 21.8 9.15002C22.03 9.15002 22.21 9.33003 22.21 9.56003V10.05L24.75 13.58C24.8 13.64 24.8 13.73 24.77 13.8C24.73 13.87 24.66 13.91 24.58 13.91H18.89V13.93ZM21.77 10.22L19.3 13.52L24.19 13.5L21.83 10.24C21.83 10.24 21.8 10.19 21.8 10.17C21.8 10.19 21.78 10.2 21.77 10.22Z" fill="#515151"></path><path d="M18.8899 13.92C18.8099 13.92 18.7399 13.88 18.7099 13.81C18.6799 13.74 18.6799 13.66 18.7299 13.6L21.3999 10.03V9.56998C21.3999 9.34998 21.5799 9.16998 21.7999 9.16998C22.0199 9.16998 22.1999 9.34998 22.1999 9.56998V10.06L24.7499 13.6C24.7899 13.66 24.7999 13.74 24.7699 13.81C24.7399 13.88 24.6699 13.92 24.5899 13.92H18.8999H18.8899ZM21.7999 10.09C21.7999 10.09 21.7899 10.18 21.7599 10.21L19.2899 13.51H24.1899L21.8299 10.23C21.8099 10.2 21.7899 10.16 21.7899 10.11V10.08L21.7999 10.09Z" fill="#515151"></path><path d="M9.88997 12.87L9.83997 8.32002L15.24 8.27002L15.29 12.82L15.24 12.87H9.88997Z" fill="white"></path><path d="M9.88998 12.86L9.84998 8.32003L15.24 8.28003L15.28 12.82L15.24 12.86H9.88998Z" fill="white"></path><path d="M9.88999 12.85L9.85999 8.31998L15.24 8.28998L15.27 12.82L15.24 12.85H9.88999Z" fill="white"></path><path d="M9.89 12.84L9.87 8.31999L15.23 8.29999L15.25 12.82C15.25 12.82 15.25 12.84 15.23 12.84H9.89Z" fill="white"></path><path d="M9.88999 12.85L9.85999 8.31998L15.24 8.28998L15.26 12.82L15.24 12.85H9.88999Z" fill="white"></path><path d="M9.89 12.84L9.87 8.31999L15.23 8.29999L15.25 12.82C15.25 12.82 15.25 12.84 15.23 12.84H9.89Z" fill="white"></path><path d="M9.89001 12.83V8.32001H15.23V12.83H9.89001Z" fill="white"></path><path d="M15.23 8.32001H9.89001V12.82H15.23V8.32001Z" fill="white"></path><path d="M9.89001 13.07C9.75001 13.07 9.64001 12.96 9.64001 12.82V8.32001C9.64001 8.18001 9.75001 8.07001 9.89001 8.07001H15.23C15.37 8.07001 15.48 8.18001 15.48 8.32001V12.82C15.48 12.96 15.37 13.07 15.23 13.07H9.89001ZM10.11 8.57001L10.14 12.62L15.03 12.57L14.98 8.55001L10.11 8.57001Z" fill="#515151"></path><path d="M9.89003 13.06C9.76003 13.06 9.65002 12.95 9.65002 12.82V8.32002C9.65002 8.19002 9.76003 8.08002 9.89003 8.08002H15.23C15.36 8.08002 15.47 8.19002 15.47 8.32002V12.82C15.47 12.95 15.36 13.06 15.23 13.06H9.89003ZM10.11 8.56002L10.13 12.62L15.03 12.58L14.99 8.54002L10.11 8.56002Z" fill="#515151"></path><path d="M9.89003 13.05C9.76003 13.05 9.66003 12.95 9.66003 12.82V8.32003C9.66003 8.19003 9.76003 8.09003 9.89003 8.09003H15.23C15.36 8.09003 15.46 8.19003 15.46 8.32003V12.82C15.46 12.95 15.36 13.05 15.23 13.05H9.89003ZM10.11 8.55003V12.62L15.03 12.59L15 8.53003L10.11 8.55003Z" fill="#515151"></path><path d="M9.89004 13.04C9.77004 13.04 9.67004 12.94 9.67004 12.82V8.32004C9.67004 8.20004 9.77004 8.10004 9.89004 8.10004H15.23C15.35 8.10004 15.45 8.20004 15.45 8.32004V12.82C15.45 12.94 15.35 13.04 15.23 13.04H9.89004ZM10.11 12.62L15.03 12.6L15.01 8.52004L10.11 8.54004V12.62Z" fill="#515151"></path><path d="M9.89003 13.05C9.76003 13.05 9.66003 12.95 9.66003 12.82V8.32003C9.66003 8.19003 9.76003 8.09003 9.89003 8.09003H15.23C15.36 8.09003 15.46 8.19003 15.46 8.32003V12.82C15.46 12.95 15.36 13.05 15.23 13.05H9.89003ZM10.11 8.55003V12.62L15.03 12.59L15 8.53003L10.11 8.55003Z" fill="#515151"></path><path d="M9.89004 13.04C9.77004 13.04 9.67004 12.94 9.67004 12.82V8.32004C9.67004 8.20004 9.77004 8.10004 9.89004 8.10004H15.23C15.35 8.10004 15.45 8.20004 15.45 8.32004V12.82C15.45 12.94 15.35 13.04 15.23 13.04H9.89004ZM10.11 12.62L15.03 12.6L15.01 8.52004L10.11 8.54004V12.62Z" fill="#515151"></path><path d="M9.89005 13.03C9.77005 13.03 9.68005 12.94 9.68005 12.82V8.31999C9.68005 8.19999 9.77005 8.10999 9.89005 8.10999H15.2301C15.3501 8.10999 15.4401 8.19999 15.4401 8.31999V12.82C15.4401 12.94 15.3501 13.03 15.2301 13.03H9.89005ZM10.1001 12.62H15.0301V8.51999H10.1101V12.62H10.1001Z" fill="#515151"></path><path d="M15.2401 13.02H9.90007C9.79007 13.02 9.70007 12.93 9.70007 12.82V8.31999C9.70007 8.20999 9.79007 8.12 9.90007 8.12H15.2401C15.3501 8.12 15.4401 8.20999 15.4401 8.31999V12.82C15.4401 12.93 15.3501 13.02 15.2401 13.02ZM10.0901 12.62H15.0301V8.52H10.0901V12.62Z" fill="#515151"></path><path d="M1.59993 23.62L1.54993 13.7L23.6299 13.65L23.6799 23.57L23.6299 23.62H1.59993Z" fill="white"></path><path d="M1.59994 23.61L1.55994 13.7L23.6299 13.66L23.6699 23.57L23.6299 23.61H1.59994Z" fill="white"></path><path d="M1.59995 23.6L1.56995 13.7L23.6299 13.67L23.6599 23.57L23.6299 23.6H1.59995Z" fill="white"></path><path d="M1.59996 23.59L1.57996 13.7L23.62 13.68L23.64 23.57C23.64 23.57 23.64 23.59 23.62 23.59H1.59996Z" fill="white"></path><path d="M1.59995 23.6L1.56995 13.7L23.6299 13.67L23.6599 23.57L23.6299 23.6H1.59995Z" fill="white"></path><path d="M1.59996 23.59L1.57996 13.7L23.62 13.68L23.64 23.57C23.64 23.57 23.64 23.59 23.62 23.59H1.59996Z" fill="white"></path><path d="M1.59998 23.58V13.7H23.63V23.58H1.59998Z" fill="white"></path><path d="M23.63 13.7H1.59998V23.57H23.63V13.7Z" fill="white"></path><path d="M1.59998 23.82C1.45998 23.82 1.34998 23.71 1.34998 23.57V13.7C1.34998 13.56 1.45998 13.45 1.59998 13.45H23.63C23.77 13.45 23.88 13.56 23.88 13.7V23.57C23.88 23.71 23.77 23.82 23.63 23.82H1.59998ZM1.81998 13.95L1.84998 23.37L23.43 23.32L23.38 13.93L1.81998 13.95Z" fill="#515151"></path><path d="M1.59999 23.81C1.46999 23.81 1.35999 23.7 1.35999 23.57V13.7C1.35999 13.57 1.46999 13.46 1.59999 13.46H23.63C23.76 13.46 23.87 13.57 23.87 13.7V23.57C23.87 23.7 23.76 23.81 23.63 23.81H1.59999ZM1.81999 13.94L1.83999 23.37L23.43 23.33L23.39 13.92L1.81999 13.94Z" fill="#515151"></path><path d="M1.6 23.8C1.47 23.8 1.37 23.7 1.37 23.57V13.7C1.37 13.57 1.47 13.47 1.6 13.47H23.63C23.76 13.47 23.86 13.57 23.86 13.7V23.57C23.86 23.7 23.76 23.8 23.63 23.8H1.6ZM1.82 13.93V23.37L23.43 23.34L23.4 13.91L1.82 13.93Z" fill="#515151"></path><path d="M1.6 23.79C1.48 23.79 1.38 23.69 1.38 23.57V13.7C1.38 13.58 1.48 13.48 1.6 13.48H23.63C23.75 13.48 23.85 13.58 23.85 13.7V23.57C23.85 23.69 23.75 23.79 23.63 23.79H1.6ZM1.82 23.37L23.43 23.35L23.41 13.9L1.82 13.92V23.37Z" fill="#515151"></path><path d="M1.6 23.8C1.47 23.8 1.37 23.7 1.37 23.57V13.7C1.37 13.57 1.47 13.47 1.6 13.47H23.63C23.76 13.47 23.86 13.57 23.86 13.7V23.57C23.86 23.7 23.76 23.8 23.63 23.8H1.6ZM1.82 13.93V23.37L23.43 23.34L23.4 13.91L1.82 13.93Z" fill="#515151"></path><path d="M1.6 23.79C1.48 23.79 1.38 23.69 1.38 23.57V13.7C1.38 13.58 1.48 13.48 1.6 13.48H23.63C23.75 13.48 23.85 13.58 23.85 13.7V23.57C23.85 23.69 23.75 23.79 23.63 23.79H1.6ZM1.82 23.37L23.43 23.35L23.41 13.9L1.82 13.92V23.37Z" fill="#515151"></path><path d="M1.60001 23.78C1.48001 23.78 1.39001 23.69 1.39001 23.57V13.7C1.39001 13.58 1.48001 13.49 1.60001 13.49H23.63C23.75 13.49 23.84 13.58 23.84 13.7V23.57C23.84 23.69 23.75 23.78 23.63 23.78H1.60001ZM1.81001 23.37H23.43V13.9H1.81001V23.37Z" fill="#515151"></path><path d="M23.63 23.77H1.60002C1.49002 23.77 1.40002 23.68 1.40002 23.57V13.7C1.40002 13.59 1.49002 13.5 1.60002 13.5H23.63C23.74 13.5 23.83 13.59 23.83 13.7V23.57C23.83 23.68 23.74 23.77 23.63 23.77ZM1.80002 23.37H23.43V13.9H1.80002V23.37Z" fill="#515151"></path><path d="M9.52998 23.62L9.47998 12.89L15.58 12.84L15.63 23.57L15.58 23.62H9.52998Z" fill="white"></path><path d="M9.52999 23.61L9.48999 12.89L15.58 12.85L15.62 23.57L15.58 23.61H9.52999Z" fill="white"></path><path d="M9.53 23.6L9.5 12.89L15.58 12.86L15.61 23.57L15.58 23.6H9.53Z" fill="white"></path><path d="M9.53001 23.59L9.51001 12.89L15.58 12.87L15.6 23.57C15.6 23.57 15.6 23.59 15.58 23.59H9.53001Z" fill="white"></path><path d="M9.53 23.6L9.5 12.89L15.58 12.86L15.61 23.57L15.58 23.6H9.53Z" fill="white"></path><path d="M9.53001 23.59L9.51001 12.89L15.58 12.87L15.6 23.57C15.6 23.57 15.6 23.59 15.58 23.59H9.53001Z" fill="white"></path><path d="M9.53003 23.58V12.89H15.58V23.58H9.53003Z" fill="white"></path><path d="M15.58 12.89H9.53003V23.57H15.58V12.89Z" fill="white"></path><path d="M9.53003 23.82C9.39003 23.82 9.28003 23.71 9.28003 23.57V12.89C9.28003 12.75 9.39003 12.64 9.53003 12.64H15.58C15.72 12.64 15.83 12.75 15.83 12.89V23.57C15.83 23.71 15.72 23.82 15.58 23.82H9.53003ZM9.75003 13.14L9.78003 23.37L15.38 23.32L15.33 13.12L9.75003 13.14Z" fill="#515151"></path><path d="M9.53004 23.81C9.40004 23.81 9.29004 23.7 9.29004 23.57V12.89C9.29004 12.76 9.40004 12.65 9.53004 12.65H15.58C15.71 12.65 15.82 12.76 15.82 12.89V23.57C15.82 23.7 15.71 23.81 15.58 23.81H9.53004ZM9.75004 13.13L9.77004 23.37L15.38 23.33L15.34 13.11L9.75004 13.13Z" fill="#515151"></path><path d="M9.53005 23.8C9.40005 23.8 9.30005 23.7 9.30005 23.57V12.89C9.30005 12.76 9.40005 12.66 9.53005 12.66H15.58C15.71 12.66 15.81 12.76 15.81 12.89V23.57C15.81 23.7 15.71 23.8 15.58 23.8H9.53005ZM9.75005 13.12V23.37L15.38 23.34L15.35 13.1L9.75005 13.12Z" fill="#515151"></path><path d="M9.53006 23.79C9.41006 23.79 9.31006 23.69 9.31006 23.57V12.89C9.31006 12.77 9.41006 12.67 9.53006 12.67H15.5801C15.7001 12.67 15.8001 12.77 15.8001 12.89V23.57C15.8001 23.69 15.7001 23.79 15.5801 23.79H9.53006ZM9.75006 23.37L15.3801 23.35L15.3601 13.09L9.75006 13.11V23.37Z" fill="#515151"></path><path d="M9.53005 23.8C9.40005 23.8 9.30005 23.7 9.30005 23.57V12.89C9.30005 12.76 9.40005 12.66 9.53005 12.66H15.58C15.71 12.66 15.81 12.76 15.81 12.89V23.57C15.81 23.7 15.71 23.8 15.58 23.8H9.53005ZM9.75005 13.12V23.37L15.38 23.34L15.35 13.1L9.75005 13.12Z" fill="#515151"></path><path d="M9.53006 23.79C9.41006 23.79 9.31006 23.69 9.31006 23.57V12.89C9.31006 12.77 9.41006 12.67 9.53006 12.67H15.5801C15.7001 12.67 15.8001 12.77 15.8001 12.89V23.57C15.8001 23.69 15.7001 23.79 15.5801 23.79H9.53006ZM9.75006 23.37L15.3801 23.35L15.3601 13.09L9.75006 13.11V23.37Z" fill="#515151"></path><path d="M9.53007 23.78C9.41007 23.78 9.32007 23.69 9.32007 23.57V12.89C9.32007 12.77 9.41007 12.68 9.53007 12.68H15.5801C15.7001 12.68 15.7901 12.77 15.7901 12.89V23.57C15.7901 23.69 15.7001 23.78 15.5801 23.78H9.53007ZM9.74007 23.37H15.3801V13.09H9.75007V23.37H9.74007Z" fill="#515151"></path><path d="M15.5801 23.77H9.53008C9.42008 23.77 9.33008 23.68 9.33008 23.57V12.89C9.33008 12.78 9.42008 12.69 9.53008 12.69H15.5801C15.6901 12.69 15.7801 12.78 15.7801 12.89V23.57C15.7801 23.68 15.6901 23.77 15.5801 23.77ZM9.73008 23.37H15.3801V13.09H9.73008V23.37Z" fill="#515151"></path><path d="M9.54004 12.94L12.54 10.34L15.61 12.85L15.58 12.94H9.54004Z" fill="white"></path><path d="M9.54004 12.93L12.55 10.35L15.61 12.86L15.58 12.93H9.54004Z" fill="white"></path><path d="M9.54004 12.92L12.55 10.35L15.6 12.86L15.58 12.92H9.54004Z" fill="white"></path><path d="M9.54003 12.91L12.56 10.37L15.59 12.88C15.59 12.88 15.59 12.89 15.59 12.9C15.59 12.91 15.59 12.91 15.57 12.91H9.53003H9.54003Z" fill="white"></path><path d="M9.54004 12.92L12.55 10.35L15.6 12.86L15.58 12.92H9.54004Z" fill="white"></path><path d="M9.54003 12.91L12.56 10.37L15.59 12.88C15.59 12.88 15.59 12.89 15.59 12.9C15.59 12.91 15.59 12.91 15.57 12.91H9.53003H9.54003Z" fill="white"></path><path d="M9.54004 12.9L12.57 10.37L15.59 12.88V12.89L15.58 12.9H9.54004Z" fill="white"></path><path d="M9.54004 12.89H15.58L12.57 10.38L9.54004 12.89Z" fill="white"></path><path d="M9.53999 13.14C9.43999 13.14 9.33999 13.07 9.29999 12.97C9.25999 12.87 9.29999 12.76 9.37999 12.69L12.41 10.18C12.41 10.18 12.51 10.12 12.57 10.12C12.63 10.12 12.69 10.14 12.73 10.18L15.74 12.69C15.82 12.76 15.85 12.87 15.81 12.97C15.77 13.07 15.68 13.13 15.58 13.13H9.53999V13.14ZM10.13 12.73L15.03 12.64L12.57 10.71L10.13 12.73Z" fill="#515151"></path><path d="M9.54005 13.13C9.44005 13.13 9.35005 13.07 9.31005 12.97C9.28005 12.87 9.31005 12.77 9.38005 12.7L12.41 10.19C12.41 10.19 12.51 10.13 12.56 10.13C12.61 10.13 12.67 10.15 12.71 10.19L15.72 12.7C15.8 12.76 15.83 12.87 15.79 12.97C15.76 13.06 15.67 13.13 15.57 13.13H9.53005H9.54005ZM10.12 12.72L15.03 12.65L12.57 10.69L10.12 12.72Z" fill="#515151"></path><path d="M9.53993 13.12C9.43993 13.12 9.35993 13.06 9.31993 12.97C9.28993 12.88 9.31993 12.78 9.38993 12.71L12.4199 10.2C12.4199 10.2 12.5099 10.15 12.5699 10.15C12.6299 10.15 12.6799 10.17 12.7199 10.2L15.7299 12.71C15.7999 12.77 15.8299 12.88 15.7999 12.97C15.7699 13.06 15.6799 13.12 15.5799 13.12H9.53993ZM10.1199 12.71L15.0299 12.66L12.5699 10.68L10.1099 12.71H10.1199Z" fill="#515151"></path><path d="M9.53994 13.11C9.44994 13.11 9.36994 13.05 9.32994 12.96C9.29994 12.87 9.32994 12.77 9.39994 12.72L12.4299 10.21C12.4299 10.21 12.5199 10.16 12.5699 10.16C12.6199 10.16 12.6699 10.18 12.7099 10.21L15.7199 12.72C15.7899 12.78 15.8199 12.88 15.7899 12.96C15.7599 13.05 15.6799 13.11 15.5799 13.11H9.53994ZM10.1099 12.7L15.0299 12.66L12.5699 10.66L10.1099 12.7Z" fill="#515151"></path><path d="M9.53993 13.12C9.43993 13.12 9.35993 13.06 9.31993 12.97C9.28993 12.88 9.31993 12.78 9.38993 12.71L12.4199 10.2C12.4199 10.2 12.5099 10.15 12.5699 10.15C12.6299 10.15 12.6799 10.17 12.7199 10.2L15.7299 12.71C15.7999 12.77 15.8299 12.88 15.7999 12.97C15.7699 13.06 15.6799 13.12 15.5799 13.12H9.53993ZM10.1199 12.71L15.0299 12.66L12.5799 10.68L10.1199 12.71Z" fill="#515151"></path><path d="M9.53994 13.11C9.44994 13.11 9.35994 13.05 9.32994 12.96C9.29994 12.87 9.32994 12.77 9.39994 12.72L12.4299 10.21C12.4299 10.21 12.5199 10.16 12.5699 10.16C12.6199 10.16 12.6699 10.18 12.7099 10.21L15.7199 12.72C15.7899 12.78 15.8199 12.88 15.7899 12.96C15.7599 13.05 15.6799 13.11 15.5799 13.11H9.53994ZM10.1099 12.7L15.0299 12.66L12.5799 10.66L10.1199 12.7H10.1099Z" fill="#515151"></path><path d="M9.54002 13.1C9.45002 13.1 9.37002 13.04 9.34002 12.96C9.31002 12.88 9.34002 12.78 9.40002 12.73L12.43 10.22C12.43 10.22 12.51 10.17 12.56 10.17C12.61 10.17 12.66 10.19 12.7 10.22L15.71 12.73C15.78 12.79 15.8 12.88 15.77 12.96C15.74 13.04 15.66 13.1 15.57 13.1H9.53002H9.54002ZM10.1 12.69L15.02 12.67L12.57 10.64L10.1 12.68V12.69Z" fill="#515151"></path><path d="M15.58 13.09H9.54003C9.46003 13.09 9.38003 13.04 9.35003 12.96C9.32003 12.88 9.35003 12.79 9.41003 12.74L12.44 10.23C12.51 10.17 12.62 10.17 12.7 10.23L15.71 12.74C15.77 12.79 15.8 12.88 15.77 12.96C15.74 13.04 15.67 13.09 15.58 13.09ZM10.1 12.69H15.03L12.58 10.64L10.1 12.69Z" fill="#515151"></path><path d="M1.59993 23.62L1.54993 13.7L5.53993 13.65L5.58993 23.57L5.53993 23.62H1.59993Z" fill="white"></path><path d="M1.59994 23.61L1.55994 13.7L5.53994 13.66L5.57994 23.57L5.53994 23.61H1.59994Z" fill="white"></path><path d="M1.59995 23.6L1.56995 13.7L5.53995 13.67L5.56995 23.57L5.53995 23.6H1.59995Z" fill="white"></path><path d="M1.59996 23.59L1.57996 13.7L5.53996 13.68L5.55996 23.57C5.55996 23.57 5.55996 23.59 5.53996 23.59H1.59996Z" fill="white"></path><path d="M1.59995 23.6L1.56995 13.7L5.53995 13.67L5.56995 23.57L5.53995 23.6H1.59995Z" fill="white"></path><path d="M1.59996 23.59L1.57996 13.7L5.53996 13.68L5.55996 23.57C5.55996 23.57 5.55996 23.59 5.53996 23.59H1.59996Z" fill="white"></path><path d="M1.59998 23.58V13.7H5.53998V23.58H1.59998Z" fill="white"></path><path d="M5.53998 13.7H1.59998V23.57H5.53998V13.7Z" fill="white"></path><path d="M1.59998 23.82C1.45998 23.82 1.34998 23.71 1.34998 23.57V13.7C1.34998 13.56 1.45998 13.45 1.59998 13.45H5.53998C5.67998 13.45 5.78998 13.56 5.78998 13.7V23.57C5.78998 23.71 5.67998 23.82 5.53998 23.82H1.59998ZM1.81998 13.95L1.84998 23.37L5.33998 23.32L5.28998 13.93L1.81998 13.95Z" fill="#515151"></path><path d="M1.59999 23.81C1.46999 23.81 1.35999 23.7 1.35999 23.57V13.7C1.35999 13.57 1.46999 13.46 1.59999 13.46H5.53999C5.66999 13.46 5.77999 13.57 5.77999 13.7V23.57C5.77999 23.7 5.66999 23.81 5.53999 23.81H1.59999ZM1.81999 13.94L1.83999 23.37L5.33999 23.33L5.29999 13.92L1.81999 13.94Z" fill="#515151"></path><path d="M1.6 23.8C1.47 23.8 1.37 23.7 1.37 23.57V13.7C1.37 13.57 1.47 13.47 1.6 13.47H5.54C5.67 13.47 5.77 13.57 5.77 13.7V23.57C5.77 23.7 5.67 23.8 5.54 23.8H1.6ZM1.82 13.93V23.37L5.34 23.34L5.31 13.91L1.82 13.93Z" fill="#515151"></path><path d="M1.6 23.79C1.48 23.79 1.38 23.69 1.38 23.57V13.7C1.38 13.58 1.48 13.48 1.6 13.48H5.54C5.66 13.48 5.76 13.58 5.76 13.7V23.57C5.76 23.69 5.66 23.79 5.54 23.79H1.6ZM1.82 23.37L5.34 23.35L5.32 13.9L1.82 13.92V23.37Z" fill="#515151"></path><path d="M1.6 23.8C1.47 23.8 1.37 23.7 1.37 23.57V13.7C1.37 13.57 1.47 13.47 1.6 13.47H5.54C5.67 13.47 5.77 13.57 5.77 13.7V23.57C5.77 23.7 5.67 23.8 5.54 23.8H1.6ZM1.82 13.93V23.37L5.34 23.34L5.31 13.91L1.82 13.93Z" fill="#515151"></path><path d="M1.6 23.79C1.48 23.79 1.38 23.69 1.38 23.57V13.7C1.38 13.58 1.48 13.48 1.6 13.48H5.54C5.66 13.48 5.76 13.58 5.76 13.7V23.57C5.76 23.69 5.66 23.79 5.54 23.79H1.6ZM1.82 23.37L5.34 23.35L5.32 13.9L1.82 13.92V23.37Z" fill="#515151"></path><path d="M1.60001 23.78C1.48001 23.78 1.39001 23.69 1.39001 23.57V13.7C1.39001 13.58 1.48001 13.49 1.60001 13.49H5.54001C5.66001 13.49 5.75001 13.58 5.75001 13.7V23.57C5.75001 23.69 5.66001 23.78 5.54001 23.78H1.60001ZM1.81001 23.37H5.34001V13.9H1.81001V23.37Z" fill="#515151"></path><path d="M5.54002 23.77H1.60002C1.49002 23.77 1.40002 23.68 1.40002 23.57V13.7C1.40002 13.59 1.49002 13.5 1.60002 13.5H5.54002C5.65002 13.5 5.74002 13.59 5.74002 13.7V23.57C5.74002 23.68 5.65002 23.77 5.54002 23.77ZM1.80002 23.37H5.34002V13.9H1.80002V23.37Z" fill="#515151"></path><path d="M20.1199 23.62L20.0699 13.69L23.6299 13.64L23.6799 23.57L23.6299 23.62H20.1199Z" fill="white"></path><path d="M20.12 23.61L20.08 13.69L23.63 13.65L23.67 23.57L23.63 23.61H20.12Z" fill="white"></path><path d="M20.12 23.6L20.09 13.69L23.63 13.66L23.66 23.57L23.63 23.6H20.12Z" fill="white"></path><path d="M20.11 23.59L20.09 13.69L23.62 13.67L23.64 23.57C23.64 23.57 23.64 23.59 23.62 23.59H20.11Z" fill="white"></path><path d="M20.12 23.6L20.09 13.69L23.63 13.66L23.66 23.57L23.63 23.6H20.12Z" fill="white"></path><path d="M20.12 23.59L20.1 13.69L23.63 13.67L23.65 23.57C23.65 23.57 23.65 23.59 23.63 23.59H20.12Z" fill="white"></path><path d="M20.12 23.58V13.69H23.63V23.58H20.12Z" fill="white"></path><path d="M23.63 13.69H20.12V23.57H23.63V13.69Z" fill="white"></path><path d="M20.12 23.82C19.98 23.82 19.87 23.71 19.87 23.57V13.69C19.87 13.55 19.98 13.44 20.12 13.44H23.63C23.77 13.44 23.88 13.55 23.88 13.69V23.57C23.88 23.71 23.77 23.82 23.63 23.82H20.12ZM20.33 13.94L20.36 23.37L23.42 23.32L23.37 13.92L20.33 13.94Z" fill="#515151" fill-opacity="0.01"></path><path d="M20.12 23.81C19.99 23.81 19.88 23.7 19.88 23.57V13.69C19.88 13.56 19.99 13.45 20.12 13.45H23.63C23.76 13.45 23.87 13.56 23.87 13.69V23.57C23.87 23.7 23.76 23.81 23.63 23.81H20.12ZM20.33 13.93L20.35 23.37L23.42 23.33L23.38 13.91L20.33 13.93Z" fill="#515151" fill-opacity="0.01"></path><path d="M20.12 23.8C19.99 23.8 19.89 23.7 19.89 23.57V13.69C19.89 13.56 19.99 13.46 20.12 13.46H23.63C23.76 13.46 23.86 13.56 23.86 13.69V23.57C23.86 23.7 23.76 23.8 23.63 23.8H20.12ZM20.33 13.92V23.37L23.42 23.34L23.39 13.9L20.33 13.92Z" fill="#515151" fill-opacity="0.01"></path><path d="M20.11 23.79C19.99 23.79 19.89 23.69 19.89 23.57V13.69C19.89 13.57 19.99 13.47 20.11 13.47H23.62C23.74 13.47 23.84 13.57 23.84 13.69V23.57C23.84 23.69 23.74 23.79 23.62 23.79H20.11ZM20.33 23.37L23.42 23.35L23.4 13.89L20.33 13.91V23.37Z" fill="#515151" fill-opacity="0.01"></path><path d="M20.12 23.8C19.99 23.8 19.89 23.7 19.89 23.57V13.69C19.89 13.56 19.99 13.46 20.12 13.46H23.63C23.76 13.46 23.86 13.56 23.86 13.69V23.57C23.86 23.7 23.76 23.8 23.63 23.8H20.12ZM20.33 13.92V23.37L23.42 23.34L23.39 13.9L20.33 13.92Z" fill="#515151" fill-opacity="0.01"></path><path d="M20.12 23.79C20 23.79 19.9 23.69 19.9 23.57V13.69C19.9 13.57 20 13.47 20.12 13.47H23.63C23.75 13.47 23.85 13.57 23.85 13.69V23.57C23.85 23.69 23.75 23.79 23.63 23.79H20.12ZM20.33 23.37L23.42 23.35L23.4 13.89L20.33 13.91V23.37Z" fill="#515151" fill-opacity="0.01"></path><path d="M20.12 23.78C20 23.78 19.91 23.69 19.91 23.57V13.69C19.91 13.57 20 13.48 20.12 13.48H23.63C23.75 13.48 23.84 13.57 23.84 13.69V23.57C23.84 23.69 23.75 23.78 23.63 23.78H20.12ZM20.33 23.37H23.43V13.89H20.34V23.37H20.33Z" fill="#515151" fill-opacity="0.01"></path><path d="M23.63 23.77H20.12C20.01 23.77 19.92 23.68 19.92 23.57V13.69C19.92 13.58 20.01 13.49 20.12 13.49H23.63C23.74 13.49 23.83 13.58 23.83 13.69V23.57C23.83 23.68 23.74 23.77 23.63 23.77ZM20.32 23.37H23.43V13.89H20.32V23.37Z" fill="#515151" fill-opacity="0.01"></path><path d="M4.46992 23.62L4.41992 13.7L5.74992 13.65L5.78992 23.57L5.74992 23.62H4.46992Z" fill="white"></path><path d="M4.46993 23.61L4.42993 13.7L5.74993 13.66L5.77993 23.57L5.74993 23.61H4.46993Z" fill="white"></path><path d="M4.46994 23.6L4.43994 13.7L5.74994 13.67L5.76994 23.57L5.74994 23.6H4.46994Z" fill="white"></path><path d="M4.46995 23.59L4.44995 13.7L5.74995 13.68L5.76995 23.57C5.76995 23.57 5.76995 23.59 5.74995 23.59H4.46995Z" fill="white"></path><path d="M4.46994 23.6L4.43994 13.7L5.74994 13.67L5.76994 23.57L5.74994 23.6H4.46994Z" fill="white"></path><path d="M4.46995 23.59L4.44995 13.7L5.74995 13.68L5.76995 23.57C5.76995 23.57 5.76995 23.59 5.74995 23.59H4.46995Z" fill="white"></path><path d="M4.46997 23.58V13.7H5.74997V23.58H4.46997Z" fill="white"></path><path d="M5.74997 13.7H4.46997V23.57H5.74997V13.7Z" fill="white"></path><path d="M4.46997 23.82C4.32997 23.82 4.21997 23.71 4.21997 23.57V13.7C4.21997 13.56 4.32997 13.45 4.46997 13.45H5.74997C5.88997 13.45 5.99997 13.56 5.99997 13.7V23.57C5.99997 23.71 5.88997 23.82 5.74997 23.82H4.46997ZM4.68997 13.95L4.71997 23.37L5.54997 23.32L5.49997 13.93L4.68997 13.95Z" fill="#515151"></path><path d="M4.46998 23.81C4.33998 23.81 4.22998 23.7 4.22998 23.57V13.7C4.22998 13.57 4.33998 13.46 4.46998 13.46H5.74998C5.87998 13.46 5.98998 13.57 5.98998 13.7V23.57C5.98998 23.7 5.87998 23.81 5.74998 23.81H4.46998ZM4.68998 13.94L4.70998 23.37L5.54998 23.33L5.50998 13.92L4.68998 13.94Z" fill="#515151"></path><path d="M4.46999 23.8C4.33999 23.8 4.23999 23.7 4.23999 23.57V13.7C4.23999 13.57 4.33999 13.47 4.46999 13.47H5.74999C5.87999 13.47 5.97999 13.57 5.97999 13.7V23.57C5.97999 23.7 5.87999 23.8 5.74999 23.8H4.46999ZM4.68999 13.93V23.37L5.54999 23.34L5.51999 13.91L4.68999 13.93Z" fill="#515151"></path><path d="M4.47 23.79C4.35 23.79 4.25 23.69 4.25 23.57V13.7C4.25 13.58 4.35 13.48 4.47 13.48H5.75C5.87 13.48 5.97 13.58 5.97 13.7V23.57C5.97 23.69 5.87 23.79 5.75 23.79H4.47ZM4.69 23.37L5.55 23.35L5.53 13.9L4.69 13.92V23.37Z" fill="#515151"></path><path d="M4.46999 23.8C4.33999 23.8 4.23999 23.7 4.23999 23.57V13.7C4.23999 13.57 4.33999 13.47 4.46999 13.47H5.74999C5.87999 13.47 5.97999 13.57 5.97999 13.7V23.57C5.97999 23.7 5.87999 23.8 5.74999 23.8H4.46999ZM4.68999 13.93V23.37L5.54999 23.34L5.51999 13.91L4.68999 13.93Z" fill="#515151"></path><path d="M4.47 23.79C4.35 23.79 4.25 23.69 4.25 23.57V13.7C4.25 13.58 4.35 13.48 4.47 13.48H5.75C5.87 13.48 5.97 13.58 5.97 13.7V23.57C5.97 23.69 5.87 23.79 5.75 23.79H4.47ZM4.69 23.37L5.55 23.35L5.53 13.9L4.69 13.92V23.37Z" fill="#515151"></path><path d="M4.47001 23.78C4.35001 23.78 4.26001 23.69 4.26001 23.57V13.7C4.26001 13.58 4.35001 13.49 4.47001 13.49H5.75001C5.87001 13.49 5.96001 13.58 5.96001 13.7V23.57C5.96001 23.69 5.87001 23.78 5.75001 23.78H4.47001ZM4.68001 23.37H5.55001V13.9H4.69001V23.37H4.68001Z" fill="#515151"></path><path d="M5.75002 23.77H4.47002C4.36002 23.77 4.27002 23.68 4.27002 23.57V13.7C4.27002 13.59 4.36002 13.5 4.47002 13.5H5.75002C5.86002 13.5 5.95002 13.59 5.95002 13.7V23.57C5.95002 23.68 5.86002 23.77 5.75002 23.77ZM4.67002 23.37H5.55002V13.9H4.67002V23.37Z" fill="#515151"></path><path d="M0.729932 23.62L0.679932 13.7L2.00993 13.65L2.05993 23.57L2.00993 23.62H0.729932Z" fill="white"></path><path d="M0.729941 23.61L0.689941 13.7L2.00994 13.66L2.04994 23.57L2.00994 23.61H0.729941Z" fill="white"></path><path d="M0.729951 23.6L0.699951 13.7L2.00995 13.67L2.03995 23.57L2.00995 23.6H0.729951Z" fill="white"></path><path d="M0.729961 23.59L0.709961 13.7L2.00996 13.68L2.02996 23.57C2.02996 23.57 2.02996 23.59 2.00996 23.59H0.729961Z" fill="white"></path><path d="M0.729951 23.6L0.699951 13.7L2.00995 13.67L2.03995 23.57L2.00995 23.6H0.729951Z" fill="white"></path><path d="M0.729961 23.59L0.709961 13.7L2.00996 13.68L2.02996 23.57C2.02996 23.57 2.02996 23.59 2.00996 23.59H0.729961Z" fill="white"></path><path d="M0.72998 23.58V13.7H2.00998V23.58H0.72998Z" fill="white"></path><path d="M2.00998 13.7H0.72998V23.57H2.00998V13.7Z" fill="white"></path><path d="M0.72998 23.82C0.58998 23.82 0.47998 23.71 0.47998 23.57V13.7C0.47998 13.56 0.58998 13.45 0.72998 13.45H2.00998C2.14998 13.45 2.25998 13.56 2.25998 13.7V23.57C2.25998 23.71 2.14998 23.82 2.00998 23.82H0.72998ZM0.94998 13.95L0.97998 23.37L1.80998 23.32L1.75998 13.93L0.94998 13.95Z" fill="#515151"></path><path d="M0.72999 23.81C0.59999 23.81 0.48999 23.7 0.48999 23.57V13.7C0.48999 13.57 0.59999 13.46 0.72999 13.46H2.00999C2.13999 13.46 2.24999 13.57 2.24999 13.7V23.57C2.24999 23.7 2.13999 23.81 2.00999 23.81H0.72999ZM0.94999 13.94L0.96999 23.37L1.80999 23.33L1.76999 13.92L0.94999 13.94Z" fill="#515151"></path><path d="M0.73 23.8C0.6 23.8 0.5 23.7 0.5 23.57V13.7C0.5 13.57 0.6 13.47 0.73 13.47H2.01C2.14 13.47 2.24 13.57 2.24 13.7V23.57C2.24 23.7 2.14 23.8 2.01 23.8H0.73ZM0.95 13.93V23.37L1.81 23.34L1.78 13.91L0.95 13.93Z" fill="#515151"></path><path d="M0.73001 23.79C0.61001 23.79 0.51001 23.69 0.51001 23.57V13.7C0.51001 13.58 0.61001 13.48 0.73001 13.48H2.01001C2.13001 13.48 2.23001 13.58 2.23001 13.7V23.57C2.23001 23.69 2.13001 23.79 2.01001 23.79H0.73001ZM0.95001 23.37L1.81001 23.35L1.79001 13.9L0.95001 13.92V23.37Z" fill="#515151"></path><path d="M0.73 23.8C0.6 23.8 0.5 23.7 0.5 23.57V13.7C0.5 13.57 0.6 13.47 0.73 13.47H2.01C2.14 13.47 2.24 13.57 2.24 13.7V23.57C2.24 23.7 2.14 23.8 2.01 23.8H0.73ZM0.95 13.93V23.37L1.81 23.34L1.78 13.91L0.95 13.93Z" fill="#515151"></path><path d="M0.73001 23.79C0.61001 23.79 0.51001 23.69 0.51001 23.57V13.7C0.51001 13.58 0.61001 13.48 0.73001 13.48H2.01001C2.13001 13.48 2.23001 13.58 2.23001 13.7V23.57C2.23001 23.69 2.13001 23.79 2.01001 23.79H0.73001ZM0.95001 23.37L1.81001 23.35L1.79001 13.9L0.95001 13.92V23.37Z" fill="#515151"></path><path d="M0.73002 23.78C0.61002 23.78 0.52002 23.69 0.52002 23.57V13.7C0.52002 13.58 0.61002 13.49 0.73002 13.49H2.01002C2.13002 13.49 2.22002 13.58 2.22002 13.7V23.57C2.22002 23.69 2.13002 23.78 2.01002 23.78H0.73002ZM0.94002 23.37H1.81002V13.9H0.95002V23.37H0.94002Z" fill="#515151"></path><path d="M2.01003 23.77H0.730029C0.620029 23.77 0.530029 23.68 0.530029 23.57V13.7C0.530029 13.59 0.620029 13.5 0.730029 13.5H2.01003C2.12003 13.5 2.21003 13.59 2.21003 13.7V23.57C2.21003 23.68 2.12003 23.77 2.01003 23.77ZM0.930029 23.37H1.81003V13.9H0.930029V23.37Z" fill="#515151"></path><path d="M19.4799 23.62L19.4299 13.7L20.7499 13.65L20.7999 23.57L20.7499 23.62H19.4799Z" fill="white"></path><path d="M19.4799 23.61L19.4399 13.7L20.7499 13.66L20.7899 23.57L20.7499 23.61H19.4799Z" fill="white"></path><path d="M19.4799 23.6L19.45 13.7L20.75 13.67L20.78 23.57L20.75 23.6H19.4799Z" fill="white"></path><path d="M19.48 23.59L19.46 13.7L20.76 13.68L20.78 23.57C20.78 23.57 20.78 23.59 20.76 23.59H19.48Z" fill="white"></path><path d="M19.4799 23.6L19.45 13.7L20.75 13.67L20.78 23.57L20.75 23.6H19.4799Z" fill="white"></path><path d="M19.48 23.59L19.46 13.7L20.76 13.68L20.78 23.57C20.78 23.57 20.78 23.59 20.76 23.59H19.48Z" fill="white"></path><path d="M19.48 23.58V13.7H20.76V23.58H19.48Z" fill="white"></path><path d="M20.76 13.7H19.48V23.57H20.76V13.7Z" fill="white"></path><path d="M19.48 23.82C19.34 23.82 19.23 23.71 19.23 23.57V13.7C19.23 13.56 19.34 13.45 19.48 13.45H20.76C20.9 13.45 21.01 13.56 21.01 13.7V23.57C21.01 23.71 20.9 23.82 20.76 23.82H19.48ZM19.7 13.95L19.73 23.37L20.56 23.32L20.51 13.93L19.7 13.95Z" fill="#515151"></path><path d="M19.48 23.81C19.35 23.81 19.24 23.7 19.24 23.57V13.7C19.24 13.57 19.35 13.46 19.48 13.46H20.76C20.89 13.46 21 13.57 21 13.7V23.57C21 23.7 20.89 23.81 20.76 23.81H19.48ZM19.7 13.94L19.72 23.37L20.56 23.33L20.52 13.92L19.7 13.94Z" fill="#515151"></path><path d="M19.48 23.8C19.35 23.8 19.25 23.7 19.25 23.57V13.7C19.25 13.57 19.35 13.47 19.48 13.47H20.76C20.89 13.47 20.99 13.57 20.99 13.7V23.57C20.99 23.7 20.89 23.8 20.76 23.8H19.48ZM19.7 13.93V23.37L20.56 23.34L20.53 13.91L19.7 13.93Z" fill="#515151"></path><path d="M19.48 23.79C19.36 23.79 19.26 23.69 19.26 23.57V13.7C19.26 13.58 19.36 13.48 19.48 13.48H20.76C20.88 13.48 20.98 13.58 20.98 13.7V23.57C20.98 23.69 20.88 23.79 20.76 23.79H19.48ZM19.7 23.37L20.56 23.35L20.54 13.9L19.7 13.92V23.37Z" fill="#515151"></path><path d="M19.48 23.8C19.35 23.8 19.25 23.7 19.25 23.57V13.7C19.25 13.57 19.35 13.47 19.48 13.47H20.76C20.89 13.47 20.99 13.57 20.99 13.7V23.57C20.99 23.7 20.89 23.8 20.76 23.8H19.48ZM19.7 13.93V23.37L20.56 23.34L20.53 13.91L19.7 13.93Z" fill="#515151"></path><path d="M19.48 23.79C19.36 23.79 19.26 23.69 19.26 23.57V13.7C19.26 13.58 19.36 13.48 19.48 13.48H20.76C20.88 13.48 20.98 13.58 20.98 13.7V23.57C20.98 23.69 20.88 23.79 20.76 23.79H19.48ZM19.7 23.37L20.56 23.35L20.54 13.9L19.7 13.92V23.37Z" fill="#515151"></path><path d="M19.48 23.78C19.36 23.78 19.27 23.69 19.27 23.57V13.7C19.27 13.58 19.36 13.49 19.48 13.49H20.76C20.88 13.49 20.97 13.58 20.97 13.7V23.57C20.97 23.69 20.88 23.78 20.76 23.78H19.48ZM19.69 23.37H20.56V13.9H19.7V23.37H19.69Z" fill="#515151"></path><path d="M20.75 23.77H19.47C19.36 23.77 19.27 23.68 19.27 23.57V13.7C19.27 13.59 19.36 13.5 19.47 13.5H20.75C20.86 13.5 20.95 13.59 20.95 13.7V23.57C20.95 23.68 20.86 23.77 20.75 23.77ZM19.68 23.37H20.56V13.9H19.68V23.37Z" fill="#515151"></path><path d="M23.2099 23.62L23.1599 13.7L24.4899 13.65L24.5399 23.57L24.4899 23.62H23.2099Z" fill="white"></path><path d="M23.2099 23.61L23.1699 13.7L24.4899 13.66L24.5299 23.57L24.4899 23.61H23.2099Z" fill="white"></path><path d="M23.2099 23.6L23.1799 13.7L24.4899 13.67L24.5199 23.57L24.4899 23.6H23.2099Z" fill="white"></path><path d="M23.2099 23.59L23.1899 13.7L24.4899 13.68L24.5099 23.57C24.5099 23.57 24.5099 23.59 24.4899 23.59H23.2099Z" fill="white"></path><path d="M23.2099 23.6L23.1799 13.7L24.4899 13.67L24.5199 23.57L24.4899 23.6H23.2099Z" fill="white"></path><path d="M23.2099 23.59L23.1899 13.7L24.4899 13.68L24.5099 23.57C24.5099 23.57 24.5099 23.59 24.4899 23.59H23.2099Z" fill="white"></path><path d="M23.21 23.58V13.7H24.49V23.58H23.21Z" fill="white"></path><path d="M24.49 13.7H23.21V23.57H24.49V13.7Z" fill="white"></path><path d="M23.21 23.82C23.07 23.82 22.96 23.71 22.96 23.57V13.7C22.96 13.56 23.07 13.45 23.21 13.45H24.49C24.63 13.45 24.74 13.56 24.74 13.7V23.57C24.74 23.71 24.63 23.82 24.49 23.82H23.21ZM23.43 13.95L23.46 23.37L24.29 23.32L24.24 13.93L23.43 13.95Z" fill="#515151"></path><path d="M23.21 23.81C23.08 23.81 22.97 23.7 22.97 23.57V13.7C22.97 13.57 23.08 13.46 23.21 13.46H24.49C24.62 13.46 24.73 13.57 24.73 13.7V23.57C24.73 23.7 24.62 23.81 24.49 23.81H23.21ZM23.43 13.94L23.45 23.37L24.29 23.33L24.25 13.92L23.43 13.94Z" fill="#515151"></path><path d="M23.21 23.8C23.08 23.8 22.98 23.7 22.98 23.57V13.7C22.98 13.57 23.08 13.47 23.21 13.47H24.49C24.62 13.47 24.72 13.57 24.72 13.7V23.57C24.72 23.7 24.62 23.8 24.49 23.8H23.21ZM23.43 13.93V23.37L24.29 23.34L24.26 13.91L23.43 13.93Z" fill="#515151"></path><path d="M23.21 23.79C23.09 23.79 22.99 23.69 22.99 23.57V13.7C22.99 13.58 23.09 13.48 23.21 13.48H24.49C24.61 13.48 24.71 13.58 24.71 13.7V23.57C24.71 23.69 24.61 23.79 24.49 23.79H23.21ZM23.43 23.37L24.29 23.35L24.27 13.9L23.43 13.92V23.37Z" fill="#515151"></path><path d="M23.21 23.8C23.08 23.8 22.98 23.7 22.98 23.57V13.7C22.98 13.57 23.08 13.47 23.21 13.47H24.49C24.62 13.47 24.72 13.57 24.72 13.7V23.57C24.72 23.7 24.62 23.8 24.49 23.8H23.21ZM23.43 13.93V23.37L24.29 23.34L24.26 13.91L23.43 13.93Z" fill="#515151"></path><path d="M23.21 23.79C23.09 23.79 22.99 23.69 22.99 23.57V13.7C22.99 13.58 23.09 13.48 23.21 13.48H24.49C24.61 13.48 24.71 13.58 24.71 13.7V23.57C24.71 23.69 24.61 23.79 24.49 23.79H23.21ZM23.43 23.37L24.29 23.35L24.27 13.9L23.43 13.92V23.37Z" fill="#515151"></path><path d="M23.21 23.78C23.09 23.78 23 23.69 23 23.57V13.7C23 13.58 23.09 13.49 23.21 13.49H24.49C24.61 13.49 24.7 13.58 24.7 13.7V23.57C24.7 23.69 24.61 23.78 24.49 23.78H23.21ZM23.42 23.37H24.29V13.9H23.43V23.37H23.42Z" fill="#515151"></path><path d="M24.49 23.77H23.21C23.1 23.77 23.01 23.68 23.01 23.57V13.7C23.01 13.59 23.1 13.5 23.21 13.5H24.49C24.6 13.5 24.69 13.59 24.69 13.7V23.57C24.69 23.68 24.6 23.77 24.49 23.77ZM23.41 23.37H24.29V13.9H23.41V23.37Z" fill="#515151"></path><path d="M0.369995 13.72L3.08 10.05V9.54999C3.08 9.40999 3.17999 9.29999 3.31999 9.29999C3.46 9.29999 3.56999 9.40999 3.56999 9.54999V10.1L6.15 13.66L0.419995 13.74C0.419995 13.74 0.379995 13.71 0.369995 13.71V13.72Z" fill="white"></path><path d="M0.420005 13.7399C0.420005 13.7399 0.390005 13.7199 0.380005 13.7199L3.09 10.0599V9.55995C3.09 9.42995 3.19 9.31995 3.32 9.31995C3.45001 9.31995 3.56 9.42995 3.56 9.55995V10.1099L6.14 13.6799L0.410005 13.7499L0.420005 13.7399Z" fill="white"></path><path d="M0.390005 13.7099L3.1 10.0599V9.54995C3.1 9.41995 3.20001 9.31995 3.32 9.31995C3.44 9.31995 3.55 9.41995 3.55 9.54995V10.0999L6.13 13.6699L0.410005 13.7199C0.410005 13.7199 0.380005 13.7099 0.380005 13.6999L0.390005 13.7099Z" fill="white"></path><path d="M0.420024 13.72C0.420024 13.72 0.410024 13.72 0.400024 13.71C0.400024 13.71 0.400024 13.7 0.400024 13.69L3.11002 10.07V9.54996C3.11002 9.42996 3.20002 9.32996 3.33002 9.32996C3.46002 9.32996 3.55002 9.42996 3.55002 9.54996V10.1L6.13002 13.68L0.420024 13.72Z" fill="white"></path><path d="M0.390005 13.7099L3.1 10.0599V9.54995C3.1 9.41995 3.20001 9.31995 3.32 9.31995C3.44 9.31995 3.55 9.41995 3.55 9.54995V10.0999L6.13 13.6699L0.410005 13.7199C0.410005 13.7199 0.380005 13.7099 0.380005 13.6999L0.390005 13.7099Z" fill="white"></path><path d="M0.420024 13.72C0.420024 13.72 0.410024 13.72 0.400024 13.71C0.400024 13.71 0.400024 13.7 0.400024 13.69L3.11002 10.07V9.54996C3.11002 9.42996 3.20002 9.32996 3.33002 9.32996C3.46002 9.32996 3.55002 9.42996 3.55002 9.54996V10.1L6.13002 13.68L0.420024 13.72Z" fill="white"></path><path d="M0.410034 13.71C0.410034 13.71 0.410034 13.71 0.410034 13.7L3.12003 10.08V9.55998C3.12003 9.43998 3.21003 9.34998 3.33003 9.34998C3.45003 9.34998 3.54003 9.43998 3.54003 9.55998V10.11L6.12003 13.7L0.420034 13.72L0.410034 13.71Z" fill="white"></path><path d="M6.11004 13.7L3.53004 10.11V9.55999C3.53004 9.44999 3.44004 9.35999 3.33004 9.35999C3.22004 9.35999 3.13004 9.44999 3.13004 9.55999V10.09L0.420044 13.7H6.11004Z" fill="white"></path><path d="M0.419997 13.95C0.319997 13.95 0.239997 13.9 0.199997 13.81C0.159997 13.73 0.159997 13.63 0.219997 13.55L2.89 9.97997V9.54998C2.89 9.29998 3.08 9.09998 3.33 9.09998C3.58 9.09998 3.78 9.29998 3.78 9.54998V10.04L6.32 13.55C6.37 13.63 6.38 13.73 6.34 13.81C6.3 13.89 6.21 13.94 6.12 13.94H0.419997V13.95ZM0.859997 13.53L5.72 13.45L3.32 10.25V10.23C3.14 10.47 1.9 12.13 0.859997 13.53Z" fill="#515151"></path><path d="M0.419985 13.94C0.329985 13.94 0.249985 13.89 0.209985 13.81C0.169985 13.73 0.179985 13.63 0.229985 13.56L2.89998 9.98999V9.54999C2.89998 9.30999 3.08998 9.10999 3.32998 9.10999C3.56998 9.10999 3.76998 9.30999 3.76998 9.54999V10.04L6.30998 13.56C6.35998 13.63 6.36998 13.73 6.32998 13.81C6.28998 13.89 6.20998 13.94 6.11998 13.94H0.419985ZM0.849985 13.53L5.71998 13.46L3.32998 10.25V10.21C3.17998 10.4 1.91998 12.09 0.849985 13.52V13.53Z" fill="#515151"></path><path d="M0.419985 13.93C0.329985 13.93 0.249985 13.88 0.209985 13.8C0.169985 13.72 0.179985 13.63 0.229985 13.56L2.89998 9.99V9.55C2.89998 9.31 3.08998 9.12 3.31998 9.12C3.54998 9.12 3.74998 9.31 3.74998 9.55V10.04L6.28998 13.56C6.33998 13.63 6.34998 13.72 6.30998 13.8C6.26998 13.88 6.18998 13.92 6.09998 13.92H0.419985V13.93ZM0.839984 13.52L5.71998 13.47L3.33998 10.24L3.31998 10.19C3.20998 10.34 1.39998 12.76 0.839984 13.51V13.52Z" fill="#515151"></path><path d="M0.419994 13.92C0.339994 13.92 0.259994 13.87 0.219994 13.8C0.179994 13.73 0.189994 13.64 0.239994 13.57L2.90999 10V9.55C2.90999 9.32 3.08999 9.13 3.32999 9.13C3.56999 9.13 3.74999 9.32 3.74999 9.55V10.04L6.28999 13.57C6.33999 13.64 6.33999 13.72 6.30999 13.8C6.26999 13.87 6.19999 13.92 6.10999 13.92H0.419994ZM0.829994 13.51L5.71999 13.47L3.34999 10.23C3.34999 10.23 3.32999 10.2 3.31999 10.18L0.829994 13.51Z" fill="#515151"></path><path d="M0.419985 13.93C0.329985 13.93 0.249985 13.88 0.209985 13.8C0.169985 13.72 0.179985 13.63 0.229985 13.56L2.89998 9.99V9.55C2.89998 9.31 3.08998 9.12 3.31998 9.12C3.54998 9.12 3.74998 9.31 3.74998 9.55V10.04L6.28998 13.56C6.33998 13.63 6.34998 13.72 6.30998 13.8C6.26998 13.88 6.18998 13.92 6.10998 13.92H0.419985V13.93ZM0.839984 13.52L5.71998 13.47L3.33998 10.24L3.31998 10.19C3.20998 10.34 1.39998 12.76 0.839984 13.51V13.52Z" fill="#515151"></path><path d="M0.419994 13.92C0.339994 13.92 0.259994 13.87 0.219994 13.8C0.179994 13.73 0.189994 13.64 0.239994 13.57L2.90999 10V9.55C2.90999 9.32 3.08999 9.13 3.32999 9.13C3.56999 9.13 3.74999 9.32 3.74999 9.55V10.04L6.28999 13.57C6.33999 13.64 6.33999 13.73 6.30999 13.8C6.26999 13.87 6.19999 13.92 6.10999 13.92H0.419994ZM0.829994 13.51L5.71999 13.47L3.34999 10.23C3.34999 10.23 3.32999 10.2 3.31999 10.18L0.829994 13.51Z" fill="#515151"></path><path d="M0.420004 13.91C0.340004 13.91 0.270004 13.87 0.230004 13.79C0.190004 13.72 0.200004 13.63 0.250004 13.57L2.92 10V9.54C2.92 9.31 3.1 9.13 3.33 9.13C3.56 9.13 3.74 9.31 3.74 9.54V10.03L6.28 13.56C6.33 13.62 6.33 13.71 6.3 13.78C6.26 13.85 6.19 13.89 6.11 13.89H0.420004V13.91ZM3.29 10.21L0.820004 13.51L5.71 13.49L3.35 10.23C3.35 10.23 3.32 10.18 3.32 10.16C3.32 10.18 3.3 10.2 3.29 10.21Z" fill="#515151"></path><path d="M0.419956 13.9C0.339956 13.9 0.269956 13.86 0.239956 13.79C0.209956 13.72 0.209956 13.64 0.259956 13.58L2.92996 10.01V9.54996C2.92996 9.32996 3.10996 9.14996 3.32996 9.14996C3.54996 9.14996 3.72996 9.32996 3.72996 9.54996V10.04L6.27996 13.58C6.31996 13.64 6.32996 13.72 6.29996 13.79C6.26996 13.86 6.19996 13.9 6.11996 13.9H0.419956ZM3.31996 9.54996V10.08C3.31996 10.08 3.30996 10.17 3.27996 10.2L0.809956 13.5H5.70996L3.34996 10.22C3.32996 10.19 3.30996 10.15 3.30996 10.1V9.54996H3.31996Z" fill="#515151"></path><path d="M12.67 3.01999C12.53 3.01999 12.42 2.90999 12.42 2.76999V1.42999C12.42 1.28999 12.53 1.17999 12.67 1.17999C12.81 1.17999 12.92 1.28999 12.92 1.42999V2.76999C12.92 2.90999 12.81 3.01999 12.67 3.01999Z" fill="#515151"></path><path d="M12.6701 3.01C12.5401 3.01 12.4301 2.9 12.4301 2.77V1.43C12.4301 1.3 12.5401 1.19 12.6701 1.19C12.8001 1.19 12.9101 1.3 12.9101 1.43V2.77C12.9101 2.9 12.8001 3.01 12.6701 3.01Z" fill="#515151"></path><path d="M12.6701 3.00001C12.5401 3.00001 12.4401 2.90001 12.4401 2.77001V1.43001C12.4401 1.30001 12.5401 1.20001 12.6701 1.20001C12.8001 1.20001 12.9001 1.30001 12.9001 1.43001V2.77001C12.9001 2.90001 12.8001 3.00001 12.6701 3.00001Z" fill="#515151"></path><path d="M12.6701 2.99002C12.5501 2.99002 12.4501 2.89002 12.4501 2.77002V1.43002C12.4501 1.31002 12.5501 1.21002 12.6701 1.21002C12.7901 1.21002 12.8901 1.31002 12.8901 1.43002V2.77002C12.8901 2.89002 12.7901 2.99002 12.6701 2.99002Z" fill="#515151"></path><path d="M12.6701 3.00001C12.5401 3.00001 12.4401 2.90001 12.4401 2.77001V1.43001C12.4401 1.30001 12.5401 1.20001 12.6701 1.20001C12.8001 1.20001 12.9001 1.30001 12.9001 1.43001V2.77001C12.9001 2.90001 12.8001 3.00001 12.6701 3.00001Z" fill="#515151"></path><path d="M12.6701 2.99002C12.5501 2.99002 12.4501 2.89002 12.4501 2.77002V1.43002C12.4501 1.31002 12.5501 1.21002 12.6701 1.21002C12.7901 1.21002 12.8901 1.31002 12.8901 1.43002V2.77002C12.8901 2.89002 12.7901 2.99002 12.6701 2.99002Z" fill="#515151"></path><path d="M12.6701 2.97997C12.5501 2.97997 12.4601 2.88997 12.4601 2.76997V1.42997C12.4601 1.30997 12.5501 1.21997 12.6701 1.21997C12.7901 1.21997 12.8801 1.30997 12.8801 1.42997V2.76997C12.8801 2.88997 12.7901 2.97997 12.6701 2.97997Z" fill="#515151"></path><path d="M12.6701 2.96998C12.5601 2.96998 12.4701 2.87998 12.4701 2.76998V1.42998C12.4701 1.31998 12.5601 1.22998 12.6701 1.22998C12.7801 1.22998 12.8701 1.31998 12.8701 1.42998V2.76998C12.8701 2.87998 12.7801 2.96998 12.6701 2.96998Z" fill="#515151"></path><path d="M11.1801 10.42C11.0401 10.42 10.9301 10.31 10.9301 10.17V9.15997C10.9301 9.01997 11.0401 8.90997 11.1801 8.90997C11.3201 8.90997 11.4301 9.01997 11.4301 9.15997V10.17C11.4301 10.31 11.3201 10.42 11.1801 10.42Z" fill="#515151"></path><path d="M11.1801 10.41C11.0501 10.41 10.9401 10.3 10.9401 10.17V9.15998C10.9401 9.02998 11.0501 8.91998 11.1801 8.91998C11.3101 8.91998 11.4201 9.02998 11.4201 9.15998V10.17C11.4201 10.3 11.3101 10.41 11.1801 10.41Z" fill="#515151"></path><path d="M11.1801 10.4C11.0501 10.4 10.9501 10.3 10.9501 10.17V9.15999C10.9501 9.02999 11.0501 8.92999 11.1801 8.92999C11.3101 8.92999 11.4101 9.02999 11.4101 9.15999V10.17C11.4101 10.3 11.3101 10.4 11.1801 10.4Z" fill="#515151"></path><path d="M11.1801 10.39C11.0601 10.39 10.9601 10.29 10.9601 10.17V9.16C10.9601 9.04 11.0601 8.94 11.1801 8.94C11.3001 8.94 11.4001 9.04 11.4001 9.16V10.17C11.4001 10.29 11.3001 10.39 11.1801 10.39Z" fill="#515151"></path><path d="M11.1801 10.4C11.0501 10.4 10.9501 10.3 10.9501 10.17V9.15999C10.9501 9.02999 11.0501 8.92999 11.1801 8.92999C11.3101 8.92999 11.4101 9.02999 11.4101 9.15999V10.17C11.4101 10.3 11.3101 10.4 11.1801 10.4Z" fill="#515151"></path><path d="M11.1801 10.39C11.0601 10.39 10.9601 10.29 10.9601 10.17V9.16C10.9601 9.04 11.0601 8.94 11.1801 8.94C11.3001 8.94 11.4001 9.04 11.4001 9.16V10.17C11.4001 10.29 11.3001 10.39 11.1801 10.39Z" fill="#515151"></path><path d="M11.1801 10.38C11.0601 10.38 10.9701 10.29 10.9701 10.17V9.15995C10.9701 9.03995 11.0601 8.94995 11.1801 8.94995C11.3001 8.94995 11.3901 9.03995 11.3901 9.15995V10.17C11.3901 10.29 11.3001 10.38 11.1801 10.38Z" fill="#515151"></path><path d="M11.1801 10.37C11.0701 10.37 10.9801 10.28 10.9801 10.17V9.15996C10.9801 9.04996 11.0701 8.95996 11.1801 8.95996C11.2901 8.95996 11.3801 9.04996 11.3801 9.15996V10.17C11.3801 10.28 11.2901 10.37 11.1801 10.37Z" fill="#515151"></path><path d="M14 10.42C13.86 10.42 13.75 10.31 13.75 10.17V9.15997C13.75 9.01997 13.86 8.90997 14 8.90997C14.14 8.90997 14.25 9.01997 14.25 9.15997V10.17C14.25 10.31 14.14 10.42 14 10.42Z" fill="#515151"></path><path d="M14 10.41C13.87 10.41 13.76 10.3 13.76 10.17V9.15998C13.76 9.02998 13.87 8.91998 14 8.91998C14.13 8.91998 14.24 9.02998 14.24 9.15998V10.17C14.24 10.3 14.13 10.41 14 10.41Z" fill="#515151"></path><path d="M14 10.4C13.87 10.4 13.77 10.3 13.77 10.17V9.15999C13.77 9.02999 13.87 8.92999 14 8.92999C14.13 8.92999 14.23 9.02999 14.23 9.15999V10.17C14.23 10.3 14.13 10.4 14 10.4Z" fill="#515151"></path><path d="M14 10.39C13.88 10.39 13.78 10.29 13.78 10.17V9.16C13.78 9.04 13.88 8.94 14 8.94C14.12 8.94 14.22 9.04 14.22 9.16V10.17C14.22 10.29 14.12 10.39 14 10.39Z" fill="#515151"></path><path d="M14 10.4C13.87 10.4 13.77 10.3 13.77 10.17V9.15999C13.77 9.02999 13.87 8.92999 14 8.92999C14.13 8.92999 14.23 9.02999 14.23 9.15999V10.17C14.23 10.3 14.13 10.4 14 10.4Z" fill="#515151"></path><path d="M14 10.39C13.88 10.39 13.78 10.29 13.78 10.17V9.16C13.78 9.04 13.88 8.94 14 8.94C14.12 8.94 14.22 9.04 14.22 9.16V10.17C14.22 10.29 14.12 10.39 14 10.39Z" fill="#515151"></path><path d="M14 10.38C13.88 10.38 13.79 10.29 13.79 10.17V9.15995C13.79 9.03995 13.88 8.94995 14 8.94995C14.12 8.94995 14.21 9.03995 14.21 9.15995V10.17C14.21 10.29 14.12 10.38 14 10.38Z" fill="#515151"></path><path d="M14 10.37C13.89 10.37 13.8 10.28 13.8 10.17V9.15996C13.8 9.04996 13.89 8.95996 14 8.95996C14.11 8.95996 14.2 9.04996 14.2 9.15996V10.17C14.2 10.28 14.11 10.37 14 10.37Z" fill="#515151"></path><path d="M11.14 16.48C11 16.48 10.89 16.37 10.89 16.23V15.22C10.89 15.08 11 14.97 11.14 14.97C11.28 14.97 11.39 15.08 11.39 15.22V16.23C11.39 16.37 11.28 16.48 11.14 16.48Z" fill="#515151"></path><path d="M11.14 16.47C11.01 16.47 10.9 16.36 10.9 16.23V15.22C10.9 15.09 11.01 14.98 11.14 14.98C11.27 14.98 11.38 15.09 11.38 15.22V16.23C11.38 16.36 11.27 16.47 11.14 16.47Z" fill="#515151"></path><path d="M11.14 16.46C11.01 16.46 10.91 16.36 10.91 16.23V15.22C10.91 15.09 11.01 14.99 11.14 14.99C11.27 14.99 11.37 15.09 11.37 15.22V16.23C11.37 16.36 11.27 16.46 11.14 16.46Z" fill="#515151"></path><path d="M11.14 16.45C11.02 16.45 10.92 16.35 10.92 16.23V15.22C10.92 15.1 11.02 15 11.14 15C11.26 15 11.36 15.1 11.36 15.22V16.23C11.36 16.35 11.26 16.45 11.14 16.45Z" fill="#515151"></path><path d="M11.14 16.46C11.01 16.46 10.91 16.36 10.91 16.23V15.22C10.91 15.09 11.01 14.99 11.14 14.99C11.27 14.99 11.37 15.09 11.37 15.22V16.23C11.37 16.36 11.27 16.46 11.14 16.46Z" fill="#515151"></path><path d="M11.14 16.45C11.02 16.45 10.92 16.35 10.92 16.23V15.22C10.92 15.1 11.02 15 11.14 15C11.26 15 11.36 15.1 11.36 15.22V16.23C11.36 16.35 11.26 16.45 11.14 16.45Z" fill="#515151"></path><path d="M11.1401 16.4399C11.0201 16.4399 10.9301 16.3499 10.9301 16.2299V15.2199C10.9301 15.0999 11.0201 15.0099 11.1401 15.0099C11.2601 15.0099 11.3501 15.0999 11.3501 15.2199V16.2299C11.3501 16.3499 11.2601 16.4399 11.1401 16.4399Z" fill="#515151"></path><path d="M11.1401 16.43C11.0301 16.43 10.9401 16.34 10.9401 16.23V15.22C10.9401 15.11 11.0301 15.02 11.1401 15.02C11.2501 15.02 11.3401 15.11 11.3401 15.22V16.23C11.3401 16.34 11.2501 16.43 11.1401 16.43Z" fill="#515151"></path><path d="M13.96 16.48C13.82 16.48 13.71 16.37 13.71 16.23V15.22C13.71 15.08 13.82 14.97 13.96 14.97C14.1 14.97 14.21 15.08 14.21 15.22V16.23C14.21 16.37 14.1 16.48 13.96 16.48Z" fill="#515151"></path><path d="M13.96 16.47C13.83 16.47 13.72 16.36 13.72 16.23V15.22C13.72 15.09 13.83 14.98 13.96 14.98C14.09 14.98 14.2 15.09 14.2 15.22V16.23C14.2 16.36 14.09 16.47 13.96 16.47Z" fill="#515151"></path><path d="M13.96 16.46C13.83 16.46 13.73 16.36 13.73 16.23V15.22C13.73 15.09 13.83 14.99 13.96 14.99C14.09 14.99 14.19 15.09 14.19 15.22V16.23C14.19 16.36 14.09 16.46 13.96 16.46Z" fill="#515151"></path><path d="M13.96 16.45C13.84 16.45 13.74 16.35 13.74 16.23V15.22C13.74 15.1 13.84 15 13.96 15C14.08 15 14.18 15.1 14.18 15.22V16.23C14.18 16.35 14.08 16.45 13.96 16.45Z" fill="#515151"></path><path d="M13.96 16.46C13.83 16.46 13.73 16.36 13.73 16.23V15.22C13.73 15.09 13.83 14.99 13.96 14.99C14.09 14.99 14.19 15.09 14.19 15.22V16.23C14.19 16.36 14.09 16.46 13.96 16.46Z" fill="#515151"></path><path d="M13.96 16.45C13.84 16.45 13.74 16.35 13.74 16.23V15.22C13.74 15.1 13.84 15 13.96 15C14.08 15 14.18 15.1 14.18 15.22V16.23C14.18 16.35 14.08 16.45 13.96 16.45Z" fill="#515151"></path><path d="M13.96 16.4399C13.84 16.4399 13.75 16.3499 13.75 16.2299V15.2199C13.75 15.0999 13.84 15.0099 13.96 15.0099C14.08 15.0099 14.17 15.0999 14.17 15.2199V16.2299C14.17 16.3499 14.08 16.4399 13.96 16.4399Z" fill="#515151"></path><path d="M13.96 16.43C13.85 16.43 13.76 16.34 13.76 16.23V15.22C13.76 15.11 13.85 15.02 13.96 15.02C14.07 15.02 14.16 15.11 14.16 15.22V16.23C14.16 16.34 14.07 16.43 13.96 16.43Z" fill="#515151"></path><path d="M11.02 22.55C10.88 22.55 10.77 22.44 10.77 22.3V18.52C10.77 18.38 10.88 18.27 11.02 18.27C11.16 18.27 11.27 18.38 11.27 18.52V22.3C11.27 22.44 11.16 22.55 11.02 22.55Z" fill="#515151"></path><path d="M11.02 22.54C10.89 22.54 10.78 22.43 10.78 22.3V18.52C10.78 18.39 10.89 18.28 11.02 18.28C11.15 18.28 11.26 18.39 11.26 18.52V22.3C11.26 22.43 11.15 22.54 11.02 22.54Z" fill="#515151"></path><path d="M11.02 22.53C10.89 22.53 10.79 22.43 10.79 22.3V18.52C10.79 18.39 10.89 18.29 11.02 18.29C11.15 18.29 11.25 18.39 11.25 18.52V22.3C11.25 22.43 11.15 22.53 11.02 22.53Z" fill="#515151"></path><path d="M11.02 22.52C10.9 22.52 10.8 22.42 10.8 22.3V18.53C10.8 18.41 10.9 18.31 11.02 18.31C11.14 18.31 11.24 18.41 11.24 18.53V22.3C11.24 22.42 11.14 22.52 11.02 22.52Z" fill="#515151"></path><path d="M11.02 22.53C10.89 22.53 10.79 22.43 10.79 22.3V18.52C10.79 18.39 10.89 18.29 11.02 18.29C11.15 18.29 11.25 18.39 11.25 18.52V22.3C11.25 22.43 11.15 22.53 11.02 22.53Z" fill="#515151"></path><path d="M11.02 22.5201C10.9 22.5201 10.8 22.42 10.8 22.3V18.5201C10.8 18.4001 10.9 18.3 11.02 18.3C11.14 18.3 11.24 18.4001 11.24 18.5201V22.3C11.24 22.42 11.14 22.5201 11.02 22.5201Z" fill="#515151"></path><path d="M11.0201 22.51C10.9001 22.51 10.8101 22.42 10.8101 22.3V18.52C10.8101 18.4 10.9001 18.31 11.0201 18.31C11.1401 18.31 11.2301 18.4 11.2301 18.52V22.3C11.2301 22.42 11.1401 22.51 11.0201 22.51Z" fill="#515151"></path><path d="M11.0201 22.5C10.9101 22.5 10.8201 22.41 10.8201 22.3V18.52C10.8201 18.41 10.9101 18.32 11.0201 18.32C11.1301 18.32 11.2201 18.41 11.2201 18.52V22.3C11.2201 22.41 11.1301 22.5 11.0201 22.5Z" fill="#515151"></path><path d="M14.0601 22.55C13.9201 22.55 13.8101 22.44 13.8101 22.3V18.52C13.8101 18.38 13.9201 18.27 14.0601 18.27C14.2001 18.27 14.3101 18.38 14.3101 18.52V22.3C14.3101 22.44 14.2001 22.55 14.0601 22.55Z" fill="#515151"></path><path d="M14.0601 22.54C13.9301 22.54 13.8201 22.43 13.8201 22.3V18.52C13.8201 18.39 13.9301 18.28 14.0601 18.28C14.1901 18.28 14.3001 18.39 14.3001 18.52V22.3C14.3001 22.43 14.1901 22.54 14.0601 22.54Z" fill="#515151"></path><path d="M14.0601 22.53C13.9301 22.53 13.8301 22.43 13.8301 22.3V18.52C13.8301 18.39 13.9301 18.29 14.0601 18.29C14.1901 18.29 14.2901 18.39 14.2901 18.52V22.3C14.2901 22.43 14.1901 22.53 14.0601 22.53Z" fill="#515151"></path><path d="M14.0601 22.52C13.9401 22.52 13.8401 22.42 13.8401 22.3V18.53C13.8401 18.41 13.9401 18.31 14.0601 18.31C14.1801 18.31 14.2801 18.41 14.2801 18.53V22.3C14.2801 22.42 14.1801 22.52 14.0601 22.52Z" fill="#515151"></path><path d="M14.0601 22.53C13.9301 22.53 13.8301 22.43 13.8301 22.3V18.52C13.8301 18.39 13.9301 18.29 14.0601 18.29C14.1901 18.29 14.2901 18.39 14.2901 18.52V22.3C14.2901 22.43 14.1901 22.53 14.0601 22.53Z" fill="#515151"></path><path d="M14.0601 22.5201C13.9401 22.5201 13.8401 22.42 13.8401 22.3V18.5201C13.8401 18.4001 13.9401 18.3 14.0601 18.3C14.1801 18.3 14.2801 18.4001 14.2801 18.5201V22.3C14.2801 22.42 14.1801 22.5201 14.0601 22.5201Z" fill="#515151"></path><path d="M14.0601 22.51C13.9401 22.51 13.8501 22.42 13.8501 22.3V18.52C13.8501 18.4 13.9401 18.31 14.0601 18.31C14.1801 18.31 14.2701 18.4 14.2701 18.52V22.3C14.2701 22.42 14.1801 22.51 14.0601 22.51Z" fill="#515151"></path><path d="M14.0601 22.5C13.9501 22.5 13.8601 22.41 13.8601 22.3V18.52C13.8601 18.41 13.9501 18.32 14.0601 18.32C14.1701 18.32 14.2601 18.41 14.2601 18.52V22.3C14.2601 22.41 14.1701 22.5 14.0601 22.5Z" fill="#515151"></path></svg>