<svg xmlns="http://www.w3.org/2000/svg" width="25" height="25" viewBox="0 0 25 25" fill="none"><path d="M22.1597 22.7105C21.7462 22.7105 21.4102 22.3228 21.4102 21.8576C21.4102 20.6169 21.3843 16.6366 21.4102 14.4655C21.4102 13.9227 21.3068 13.4316 21.1 13.0181C20.7382 12.3203 20.2729 11.9584 19.6268 11.9326C19.2391 11.9067 18.8256 11.9067 18.3862 11.9326C18.2828 11.9326 18.1794 11.9584 18.1019 11.9843C17.3265 12.2944 16.732 13.2249 16.732 14.1295C16.732 15.551 16.732 16.4557 16.732 17.5671V19.1178C16.732 19.9191 16.732 20.6945 16.732 21.4957V21.8317C16.732 22.2969 16.396 22.6846 15.9825 22.6846H15.9308C15.724 22.6846 15.5431 22.6071 15.388 22.4262C15.2588 22.2711 15.1812 22.0385 15.1812 21.8317V19.5831C15.1812 18.0065 15.1812 16.0421 15.2071 14.6206C15.2071 13.9486 15.1554 13.4316 14.8969 12.9664C14.6643 12.527 14.4317 12.2169 14.1215 12.0876C13.2427 11.7258 12.4415 11.7516 11.7178 12.0876C10.9941 12.4495 10.5806 13.1215 10.5806 14.0261C10.5547 16.3523 10.5547 20.1259 10.5806 21.78C10.5806 22.0126 10.503 22.2194 10.3738 22.4003C10.2446 22.5813 10.0378 22.6588 9.83102 22.6588H9.80517C9.5984 22.6588 9.41748 22.5813 9.2624 22.4003C9.13317 22.2453 9.05563 22.0126 9.05563 21.78V18.9369C9.05563 17.4895 9.05563 16.1455 9.05563 14.388C9.05563 13.9486 9.02978 13.5609 8.87471 13.2249C8.51286 12.4236 8.07347 12.0359 7.42731 11.9584C7.24638 11.9326 7.06546 11.9326 6.85869 11.9326C6.70361 11.9326 6.54853 11.9326 6.4193 11.9326C5.92822 11.9067 5.46299 12.1135 5.10114 12.5012C4.68759 12.9406 4.45498 13.5867 4.45498 14.2329C4.45498 16.4298 4.48082 20.3843 4.48082 21.8576C4.48082 22.0902 4.40328 22.2969 4.27405 22.4779C4.14482 22.633 3.93805 22.7363 3.73128 22.7363H3.70543C3.29189 22.7363 2.95589 22.3486 2.95589 21.8834V19.8157C2.95589 17.6704 2.95589 15.4218 2.93004 13.2507C2.93004 12.2944 2.5165 11.5966 1.76696 11.1572C1.48265 11.0021 1.19834 10.9762 0.862334 10.9762H0.681409C0.448792 10.9504 0.138635 10.847 0.112789 10.3559C0.0869427 9.96824 0.0869427 9.68393 0.242021 9.47715C0.397099 9.27038 0.655563 9.24454 0.965719 9.24454H23.9173C24.0465 9.24454 24.1757 9.24454 24.305 9.24454C24.3825 9.24454 24.5118 9.24454 24.6151 9.32208C24.9253 9.58054 24.8994 9.91654 24.8994 10.1492C24.8994 10.2009 24.8994 10.2525 24.8994 10.2784C24.8994 10.6402 24.7444 10.8729 24.4342 10.9504C23.9173 11.0796 23.5037 11.4415 23.1677 12.0876C22.961 12.5012 22.9351 12.9923 22.9093 13.3541C22.9093 15.6027 22.9093 17.8514 22.9093 20.1V21.8317C22.9093 22.3228 22.5733 22.7105 22.1597 22.7105ZM19.084 11.2606C19.2649 11.2606 19.4459 11.2606 19.6268 11.2606C20.4539 11.2864 21.1259 11.7516 21.5653 12.6563C21.8237 13.1732 21.9788 13.7935 21.9788 14.4397C21.9788 16.5849 21.9788 20.5911 21.9788 21.8317C21.9788 21.9351 22.0563 22.0385 22.1597 22.0385C22.2631 22.0385 22.3407 21.9609 22.3407 21.8317V20.1C22.3407 17.8514 22.3407 15.6027 22.3407 13.3541C22.3407 12.8889 22.3924 12.2944 22.6767 11.7516C23.0902 10.9504 23.633 10.4852 24.305 10.3042C24.305 10.2525 24.305 10.175 24.305 10.1233C24.305 9.99408 24.305 9.94239 24.305 9.91654C24.1499 9.91654 24.0465 9.91654 23.9173 9.91654H23.6588H0.965719C0.810641 9.91654 0.733102 9.91654 0.681409 9.94239C0.681409 9.99408 0.681409 10.1233 0.681409 10.2784V10.3042C0.681409 10.3042 0.681409 10.3042 0.707255 10.3042H0.836487C1.19834 10.3301 1.58603 10.3301 1.99957 10.5627C2.95589 11.1055 3.47282 12.0359 3.47282 13.2507C3.49866 15.4477 3.49866 17.6705 3.49866 19.8415V21.9093C3.49866 22.0126 3.5762 22.116 3.67959 22.116H3.70543C3.75713 22.116 3.78297 22.0902 3.83466 22.0643C3.86051 22.0385 3.88636 21.9868 3.88636 21.9351C3.86051 20.4619 3.86051 16.5074 3.86051 14.3104C3.86051 13.4833 4.17067 12.6821 4.68759 12.0876C5.17868 11.5707 5.79899 11.2864 6.44515 11.3381C6.57438 11.3381 6.72946 11.3381 6.85869 11.3381C7.06546 11.3381 7.27223 11.3381 7.479 11.3639C8.30608 11.4415 8.9264 11.9843 9.36579 12.9923C9.5984 13.4833 9.62425 14.0003 9.62425 14.4655C9.62425 16.1972 9.62425 17.5671 9.62425 19.0145V21.9351C9.62425 21.9868 9.6501 22.0385 9.67594 22.0902C9.70179 22.116 9.75348 22.1419 9.80517 22.1419H9.83102C9.88271 22.1419 9.93441 22.116 9.96025 22.0902C9.9861 22.0643 10.0119 22.0126 10.0119 21.9609C10.0119 20.2809 9.9861 16.5074 10.0119 14.1812C10.0378 13.0181 10.5806 12.0876 11.511 11.6482C12.364 11.2347 13.3203 11.2347 14.3283 11.6224C14.8194 11.8292 15.1295 12.2944 15.4138 12.7596C15.8015 13.4316 15.8274 14.1553 15.8274 14.7757C15.8274 16.1972 15.8274 18.1615 15.8274 19.7382V21.9868C15.8274 22.0385 15.8532 22.0902 15.8791 22.116C15.9049 22.1419 15.9566 22.1677 16.0083 22.1677H16.06C16.1634 22.1677 16.2409 22.0902 16.2409 21.9609V21.6249C16.2409 20.8237 16.2409 20.0483 16.2409 19.2471V17.6963C16.2409 16.5849 16.2409 15.6544 16.2409 14.2587C16.2409 13.044 16.9646 11.8809 17.9985 11.4673C18.1277 11.4156 18.2828 11.3898 18.4379 11.3898C18.6188 11.2864 18.8514 11.2606 19.084 11.2606Z" fill="#515151"></path><path d="M14.2508 8.18483C14.0182 8.18483 13.8373 8.10729 13.708 7.95221C13.5013 7.69375 13.4754 7.30605 13.4754 6.97005C13.4754 6.6082 13.4754 6.42728 13.4754 6.14297V5.8845V5.85866C13.2428 5.83281 12.9326 5.83281 12.6483 5.85866C12.5966 5.85866 12.5708 5.85866 12.5708 5.96204C12.5708 6.37558 12.5708 6.55651 12.5708 6.89251V7.12513C12.5708 7.77129 12.3382 8.15898 11.9505 8.15898C8.74552 8.15898 4.6618 8.15898 1.45685 8.15898C1.14669 8.15898 0.965767 8.0039 0.888228 7.84883C0.733149 7.59036 0.707303 7.22851 0.810689 6.81497C0.965767 6.2722 1.06915 6.16881 1.56023 6.14297C1.8187 6.14297 2.05131 6.14297 2.30978 6.14297C2.46486 6.14297 2.64578 6.14297 2.80086 6.14297C2.85255 6.14297 2.8784 6.14297 2.90424 6.14297C2.90424 6.11712 2.90424 6.06543 2.90424 6.01373C2.90424 5.93619 2.90424 5.8845 2.90424 5.80696C2.90424 5.65188 2.90424 5.57435 2.8784 5.52265C2.8784 5.5485 2.8267 5.5485 2.67163 5.5485C2.64578 5.5485 2.61993 5.5485 2.56824 5.5485C2.4907 5.5485 2.38732 5.57435 2.28393 5.5485C2.12885 5.52265 1.97377 5.39342 1.89624 5.23834C1.8187 5.00573 1.97377 4.74726 2.10301 4.66972C2.80086 4.23033 3.80887 4.07526 4.42918 4.07526H4.48087C6.60027 4.07526 8.71967 4.07526 10.8391 4.07526H13.4496H14.9745C17.0164 4.07526 19.0841 4.07526 21.1259 4.07526C21.5136 4.07526 21.7979 4.1011 22.0822 4.12695C22.5475 4.17864 23.2195 4.51464 23.4521 4.97988C23.8139 5.67773 23.9432 6.78912 23.9173 7.56452C23.8915 7.95221 23.7106 8.18483 23.3746 8.21067C23.3229 8.21067 23.2712 8.21067 23.2195 8.21067L14.2508 8.18483ZM13.036 5.2125C13.2169 5.2125 13.3979 5.2125 13.5271 5.23834C13.8631 5.26419 14.0699 5.5485 14.0699 5.93619V6.19466C14.0699 6.47897 14.0699 6.63405 14.0699 6.9959C14.0699 7.35774 14.1216 7.46113 14.1474 7.51282C14.1733 7.53867 14.1991 7.53867 14.2766 7.53867H23.2453C23.297 7.53867 23.3229 7.53867 23.3746 7.53867C23.3746 7.53867 23.3746 7.53867 23.3746 7.51282C23.4004 6.86666 23.297 5.8845 22.9869 5.29004C22.8835 5.05742 22.4182 4.79895 22.0822 4.77311C21.8238 4.74726 21.5653 4.72142 21.2035 4.72142C19.1616 4.72142 17.0939 4.72142 15.052 4.72142H12.9326H10.8908C8.77137 4.72142 6.65197 4.72142 4.53256 4.72142C4.11902 4.72142 3.6021 4.79895 3.13686 4.92819C3.2144 4.95403 3.29194 5.00573 3.36948 5.08326C3.5504 5.26419 3.5504 5.5485 3.5504 5.80696C3.5504 5.91035 3.5504 5.98789 3.5504 6.06543C3.52456 6.6082 3.34363 6.84082 2.8784 6.84082C2.72332 6.84082 2.54239 6.84082 2.36147 6.84082C2.12885 6.84082 1.87039 6.84082 1.63777 6.84082C1.58608 6.84082 1.53439 6.84082 1.48269 6.84082C1.45685 6.89251 1.45685 6.9442 1.431 7.02174C1.37931 7.25436 1.37931 7.43528 1.40515 7.48698C1.431 7.51282 1.48269 7.53867 1.53439 7.53867C4.73933 7.53867 8.79721 7.53867 12.0022 7.53867C12.028 7.48698 12.0539 7.35774 12.0539 7.15097V6.91836C12.0539 6.58235 12.0539 6.42728 12.0539 6.01373C12.0539 5.57435 12.2865 5.26419 12.6483 5.23834C12.7517 5.23834 12.9068 5.2125 13.036 5.2125ZM17.4299 6.97005C17.1973 6.97005 17.0164 6.89251 16.8871 6.76328C16.7579 6.63405 16.7062 6.42728 16.7062 6.19466C16.7062 5.93619 16.7837 5.72942 16.913 5.57435C17.0422 5.41927 17.2231 5.34173 17.4299 5.34173C18.0502 5.34173 18.1278 5.80696 18.1278 6.19466C18.1278 6.37558 18.1277 6.6082 17.9727 6.78912C17.8434 6.91836 17.6367 6.97005 17.4299 6.97005ZM17.3007 6.2722C17.3007 6.2722 17.3265 6.29804 17.4557 6.29804C17.5074 6.29804 17.5591 6.29804 17.5591 6.29804C17.5591 6.2722 17.5591 6.24635 17.5591 6.16881C17.5591 6.03958 17.5591 5.98789 17.5333 5.96204C17.5333 5.96204 17.4816 5.96204 17.4299 5.96204C17.4041 5.96204 17.3524 5.96204 17.3265 6.01373C17.3007 6.03958 17.2748 6.09127 17.2748 6.16881C17.2748 6.24635 17.3007 6.2722 17.3007 6.2722ZM21.5136 6.97005C21.0484 6.97005 20.7899 6.65989 20.7899 6.11712C20.7899 5.91035 20.8675 5.70358 20.9967 5.5485C21.1259 5.39342 21.3327 5.31588 21.5395 5.31588C21.7462 5.31588 21.9272 5.39342 22.0564 5.5485C22.1856 5.70358 22.2632 5.91035 22.2373 6.14297C22.2115 6.65989 21.953 6.97005 21.5136 6.97005ZM21.4878 6.29804C21.5653 6.29804 21.5912 6.2722 21.617 6.2722C21.617 6.2722 21.6429 6.24635 21.6429 6.11712C21.6429 6.09127 21.6429 6.03958 21.617 5.98789C21.5912 5.96204 21.5653 5.93619 21.4878 5.93619C21.4619 5.93619 21.4102 5.96204 21.3844 5.98789C21.3585 6.01373 21.3585 6.03958 21.3585 6.09127C21.3585 6.2205 21.3844 6.24635 21.3844 6.24635C21.3585 6.2722 21.4102 6.29804 21.4878 6.29804ZM15.4397 6.97005H15.4139C15.233 6.97005 15.0262 6.9442 14.897 6.73743C14.7677 6.55651 14.7419 6.32389 14.7419 6.11712C14.7419 5.62604 15.0003 5.31588 15.4139 5.31588C15.6207 5.31588 15.8274 5.39342 15.9825 5.57435C16.1117 5.72942 16.1893 5.93619 16.1893 6.16881C16.1634 6.53066 16.0342 6.97005 15.4397 6.97005ZM15.3105 6.29804C15.3363 6.29804 15.3622 6.29804 15.4139 6.29804C15.5431 6.29804 15.569 6.2722 15.569 6.2722C15.569 6.2722 15.5948 6.24635 15.5948 6.14297C15.5948 6.09127 15.5948 6.06543 15.569 6.03958C15.5431 5.98789 15.4914 5.98789 15.4139 5.98789C15.3622 5.98789 15.3105 5.98789 15.3105 6.14297C15.3105 6.2205 15.3105 6.2722 15.3105 6.29804ZM10.7874 6.97005C10.6323 6.97005 10.4255 6.9442 10.2705 6.76328C10.1154 6.58235 10.1154 6.32389 10.1154 6.14297C10.1154 5.62604 10.3738 5.31588 10.8391 5.31588C11.0458 5.31588 11.2268 5.39342 11.3302 5.52265C11.4594 5.67773 11.5369 5.91035 11.5369 6.19466C11.5111 6.47897 11.4077 6.97005 10.7874 6.97005ZM10.684 6.29804C10.7098 6.29804 10.7357 6.29804 10.7874 6.29804C10.8908 6.29804 10.9166 6.2722 10.9166 6.2722C10.9166 6.2722 10.9166 6.24635 10.9166 6.19466C10.9166 6.03958 10.8908 5.98789 10.8908 5.98789C10.8908 5.98789 10.8649 5.96204 10.8132 5.96204C10.7357 5.96204 10.7098 5.98789 10.7098 5.98789C10.7098 5.98789 10.684 6.01373 10.684 6.14297C10.6582 6.2205 10.684 6.2722 10.684 6.29804ZM8.87475 6.97005C8.64214 6.97005 8.46121 6.89251 8.33198 6.76328C8.20275 6.63405 8.15105 6.42728 8.15105 6.16881C8.15105 5.67773 8.43536 5.36757 8.9006 5.36757C9.05568 5.36757 9.26245 5.39342 9.41753 5.57435C9.5726 5.75527 9.59845 6.01373 9.59845 6.2205C9.59845 6.68574 9.33999 6.9442 8.87475 6.97005ZM8.74552 6.2722C8.74552 6.2722 8.77137 6.29804 8.87475 6.29804C8.92645 6.29804 9.00398 6.29804 9.00398 6.2722C9.00398 6.2722 9.00398 6.24635 9.00398 6.19466C9.00398 6.09127 9.00398 6.03958 9.00398 6.01373C8.97814 6.01373 8.95229 6.01373 8.9006 6.01373C8.74552 6.01373 8.74552 6.06543 8.74552 6.16881C8.71967 6.24635 8.74552 6.2722 8.74552 6.2722ZM6.98797 6.9442H6.96212C6.47104 6.91836 6.29012 6.68574 6.29012 6.11712C6.29012 5.85866 6.36766 5.65188 6.52273 5.49681C6.65197 5.36757 6.80704 5.29004 7.01381 5.31588C7.27228 5.34173 7.47905 5.44511 7.58243 5.60019C7.65997 5.70358 7.76336 5.91035 7.73751 6.19466C7.65997 6.71159 7.42736 6.9442 6.98797 6.9442ZM6.96212 6.29804C7.06551 6.29804 7.1172 6.2722 7.1172 6.2722C7.1172 6.2722 7.1172 6.24635 7.14305 6.14297C7.14305 6.09127 7.14305 6.03958 7.14305 6.03958C7.1172 6.01373 7.06551 5.98789 6.96212 5.98789C6.93628 5.98789 6.91043 5.98789 6.91043 5.98789C6.91043 5.98789 6.88458 6.03958 6.88458 6.14297C6.88458 6.2205 6.88458 6.2722 6.88458 6.29804C6.88458 6.29804 6.91043 6.29804 6.96212 6.29804ZM19.4976 6.9442C19.4718 6.9442 19.4718 6.9442 19.4459 6.9442C18.8514 6.91836 18.7739 6.45312 18.7998 6.06543C18.8256 5.57435 19.0324 5.31588 19.4976 5.31588C19.9628 5.34173 20.2213 5.62604 20.2213 6.14297C20.2213 6.40143 20.1438 6.6082 20.0145 6.73743C19.8853 6.89251 19.7302 6.97005 19.4976 6.9442ZM19.3684 6.29804C19.3942 6.29804 19.4201 6.29804 19.4459 6.29804C19.5751 6.29804 19.601 6.2722 19.601 6.2722C19.601 6.2722 19.601 6.24635 19.6268 6.14297C19.6268 6.03958 19.6268 5.98789 19.4718 5.98789C19.4201 5.98789 19.3942 5.98789 19.3684 5.98789C19.3684 6.01373 19.3684 6.03958 19.3684 6.09127C19.3684 6.19466 19.3684 6.24635 19.3684 6.29804ZM4.97195 6.9442C4.76518 6.9442 4.58426 6.86666 4.45502 6.73743C4.32579 6.6082 4.2741 6.40143 4.2741 6.14297C4.2741 5.67773 4.58426 5.31588 4.97195 5.29004C5.25626 5.29004 5.41134 5.39342 5.48888 5.49681C5.59226 5.60019 5.69565 5.80696 5.69565 6.14297C5.7215 6.68574 5.48888 6.9442 4.97195 6.9442ZM4.9978 5.96204C4.92026 5.96204 4.84272 6.03958 4.84272 6.14297C4.84272 6.2205 4.86857 6.2722 4.86857 6.2722C4.86857 6.2722 4.89441 6.29804 4.97195 6.29804C5.04949 6.29804 5.10118 6.29804 5.12703 6.2722C5.12703 6.2722 5.12703 6.2205 5.12703 6.16881C5.12703 6.06543 5.10118 6.01373 5.10118 5.98789C5.07534 5.96204 5.04949 5.96204 4.9978 5.96204Z" fill="#515151"></path></svg>